<svg width="29" height="28" viewBox="0 0 29 28" fill="none" xmlns="http://www.w3.org/2000/svg">
<path d="M7.11111 12.9444H11.3333C12.4944 12.9444 13.4444 11.9944 13.4444 10.8333V6.61111C13.4444 5.45 12.4944 4.5 11.3333 4.5H7.11111C5.95 4.5 5 5.45 5 6.61111V10.8333C5 11.9944 5.95 12.9444 7.11111 12.9444Z" fill="#97B2C4"/>
<path d="M7.11111 23.5H11.3333C12.4944 23.5 13.4444 22.55 13.4444 21.3889V17.1667C13.4444 16.0055 12.4944 15.0555 11.3333 15.0555H7.11111C5.95 15.0555 5 16.0055 5 17.1667V21.3889C5 22.55 5.95 23.5 7.11111 23.5Z" fill="#97B2C4"/>
<path d="M15.5555 6.61111V10.8333C15.5555 11.9944 16.5055 12.9444 17.6667 12.9444H21.8889C23.05 12.9444 24 11.9944 24 10.8333V6.61111C24 5.45 23.05 4.5 21.8889 4.5H17.6667C16.5055 4.5 15.5555 5.45 15.5555 6.61111Z" fill="#004166" fill-opacity="0.2"/>
<path d="M17.6667 23.5H21.8889C23.05 23.5 24 22.55 24 21.3889V17.1667C24 16.0055 23.05 15.0555 21.8889 15.0555H17.6667C16.5055 15.0555 15.5555 16.0055 15.5555 17.1667V21.3889C15.5555 22.55 16.5055 23.5 17.6667 23.5Z" fill="#97B2C4"/>
</svg>
