<svg width="29" height="28" viewBox="0 0 29 28" fill="none" xmlns="http://www.w3.org/2000/svg">
<path d="M15.7215 19.0345H13.4085C12.7724 19.0345 12.252 18.5141 12.252 17.878H4.16806V22.504C4.16806 23.7761 5.20892 24.817 6.48107 24.817H22.6605C23.9326 24.817 24.9735 23.7761 24.9735 22.504V17.878H16.878C16.878 18.5141 16.3576 19.0345 15.7215 19.0345ZM23.817 8.626H19.191C19.191 6.07013 17.1209 4 14.565 4C12.0091 4 9.939 6.07013 9.939 8.626H5.313C4.04085 8.626 3 9.66685 3 10.939V14.4085C3 15.6922 4.02928 16.7215 5.313 16.7215H12.252V15.565C12.252 14.9289 12.7724 14.4085 13.4085 14.4085H15.7215C16.3576 14.4085 16.878 14.9289 16.878 15.565V16.7215H23.817C25.0891 16.7215 26.13 15.6806 26.13 14.4085V10.939C26.13 9.66685 25.0891 8.626 23.817 8.626ZM12.252 8.626C12.252 7.35385 13.2928 6.313 14.565 6.313C15.8371 6.313 16.878 7.35385 16.878 8.626H12.2404H12.252Z" fill="#004166" fill-opacity="0.2"/>
<rect x="12.252" y="14.4082" width="4.626" height="4.626" rx="1" fill="#97B2C4"/>
</svg>
