<svg width="35" height="28" viewBox="0 0 35 28" fill="none" xmlns="http://www.w3.org/2000/svg">
<path d="M17.2451 17.8672C14.1595 17.8672 8 19.4157 8 22.4897V23.6454C8 24.281 8.52004 24.801 9.15564 24.801H25.3346C25.9701 24.801 26.4902 24.281 26.4902 23.6454V22.4897C26.4902 19.4157 20.3306 17.8672 17.2451 17.8672Z" fill="#97B2C4"/>
<path d="M12.3221 10.9335H22.1797C22.4917 10.9335 22.7459 10.6792 22.7459 10.3672V10.3441C22.7459 10.0321 22.4917 9.77782 22.1797 9.77782H21.8677C21.8677 8.06748 20.9316 6.59982 19.5564 5.79087V6.88873C19.5564 7.21231 19.3021 7.46655 18.9786 7.46655C18.655 7.46655 18.4007 7.21231 18.4007 6.88873V5.31706C18.0309 5.22461 17.6496 5.15527 17.2451 5.15527C16.8406 5.15527 16.4593 5.22461 16.0895 5.31706V6.88873C16.0895 7.21231 15.8352 7.46655 15.5116 7.46655C15.1881 7.46655 14.9338 7.21231 14.9338 6.88873V5.79087C13.5586 6.59982 12.6226 8.06748 12.6226 9.77782H12.3221C12.0101 9.77782 11.7558 10.0321 11.7558 10.3441V10.3788C11.7558 10.6792 12.0101 10.9335 12.3221 10.9335Z" fill="#97B2C4"/>
<path d="M17.2451 15.5568C19.3946 15.5568 21.1858 14.0775 21.7059 12.0898H12.7844C13.3044 14.0775 15.0956 15.5568 17.2451 15.5568Z" fill="#97B2C4"/>
<path d="M32.2453 7.73271L33.32 6.77353L32.4533 5.2712L31.0781 5.7219C30.9163 5.59478 30.7314 5.49077 30.5349 5.40988L30.246 4H28.5125L28.2236 5.40988C28.0272 5.49077 27.8423 5.59478 27.6689 5.7219L26.3053 5.2712L25.4386 6.77353L26.5133 7.73271C26.4902 7.92916 26.4902 8.13718 26.5133 8.33364L25.4386 9.31593L26.3053 10.8183L27.692 10.3791C27.8423 10.4947 28.0156 10.5871 28.189 10.668L28.5125 12.0895H30.246L30.558 10.6796C30.7429 10.5987 30.9047 10.5062 31.0665 10.3907L32.4417 10.8298L33.3084 9.32749L32.2337 8.34519C32.2684 8.12562 32.2568 7.92916 32.2453 7.73271ZM29.3793 9.48927C28.5819 9.48927 27.9347 8.84212 27.9347 8.04473C27.9347 7.24734 28.5819 6.60018 29.3793 6.60018C30.1767 6.60018 30.8238 7.24734 30.8238 8.04473C30.8238 8.84212 30.1767 9.48927 29.3793 9.48927Z" fill="#004166" fill-opacity="0.2"/>
<path d="M29.2637 13.0028L28.2814 13.3264C28.1659 13.2339 28.0388 13.1646 27.9001 13.1068L27.6921 12.0898H26.4555L26.2475 13.0952C26.1088 13.153 25.9702 13.2339 25.8546 13.3148L24.8839 12.9912L24.2598 14.066L25.0225 14.7478C25.011 14.898 25.011 15.0367 25.0225 15.1754L24.2598 15.8803L24.8839 16.9551L25.8777 16.6431C25.9933 16.7239 26.1088 16.7933 26.236 16.8511L26.444 17.868H27.6805L27.9001 16.8626C28.0272 16.8048 28.1543 16.7355 28.2699 16.6546L29.2522 16.9666L29.8762 15.8919L29.1135 15.187C29.1251 15.0367 29.1251 14.898 29.1135 14.7594L29.8762 14.0775L29.2637 13.0028ZM27.068 16.0075C26.5018 16.0075 26.0395 15.5452 26.0395 14.9789C26.0395 14.4127 26.5018 13.9504 27.068 13.9504C27.6343 13.9504 28.0965 14.4127 28.0965 14.9789C28.0965 15.5452 27.6343 16.0075 27.068 16.0075Z" fill="#004166" fill-opacity="0.2"/>
</svg>
