<svg width="29" height="28" viewBox="0 0 29 28" fill="none" xmlns="http://www.w3.org/2000/svg">
<path d="M17.09 4.59C16.71 4.21 16.2 4 15.67 4H8.5C7.4 4 6.5 4.9 6.5 6V22C6.5 23.1 7.39 24 8.49 24H20.5C21.6 24 22.5 23.1 22.5 22V10.83C22.5 10.3 22.29 9.79 21.91 9.42L17.09 4.59ZM17.5 20H11.5C10.95 20 10.5 19.55 10.5 19C10.5 18.45 10.95 18 11.5 18H17.5C18.05 18 18.5 18.45 18.5 19C18.5 19.55 18.05 20 17.5 20ZM17.5 16H11.5C10.95 16 10.5 15.55 10.5 15C10.5 14.45 10.95 14 11.5 14H17.5C18.05 14 18.5 14.45 18.5 15C18.5 15.55 18.05 16 17.5 16ZM15.5 10V5.5L21 11H16.5C15.95 11 15.5 10.55 15.5 10Z" fill="#004166" fill-opacity="0.2"/>
<path d="M17.5 20H11.5C10.95 20 10.5 19.55 10.5 19C10.5 18.45 10.95 18 11.5 18H17.5C18.05 18 18.5 18.45 18.5 19C18.5 19.55 18.05 20 17.5 20ZM17.5 16H11.5C10.95 16 10.5 15.55 10.5 15C10.5 14.45 10.95 14 11.5 14H17.5C18.05 14 18.5 14.45 18.5 15C18.5 15.55 18.05 16 17.5 16Z" fill="#97B2C4"/>
</svg>
