<svg width="34" height="34" viewBox="0 0 34 34" fill="none" xmlns="http://www.w3.org/2000/svg">
<path d="M17 34C26.3888 34 34 26.3888 34 17C34 7.61116 26.3888 0 17 0C7.61116 0 0 7.61116 0 17C0 26.3888 7.61116 34 17 34Z" fill="#FEFEFE"/>
<path fill-rule="evenodd" clip-rule="evenodd" d="M16.4903 0C16.4049 6.89148 15.9345 10.7645 13.3495 13.3495C10.7646 15.934 6.89104 16.4049 0 16.4903V17.5092C6.89104 17.595 10.7646 18.0655 13.3495 20.6504C15.9345 23.235 16.4049 27.1085 16.4903 33.9996H17.5097C17.5946 27.1085 18.0655 23.235 20.6505 20.6504C23.2346 18.065 27.1081 17.595 33.9996 17.5092V16.4903C27.1081 16.4049 23.2346 15.934 20.6505 13.3495C18.0651 10.7645 17.5946 6.89148 17.5097 0H16.4903Z" fill="#1876D2"/>
</svg>