<svg width="34" height="34" viewBox="0 0 34 34" fill="none" xmlns="http://www.w3.org/2000/svg">
<path d="M34 17C34 26.3884 26.3884 34 17 34C7.61156 34 0 26.3884 0 17C0 7.61199 7.61156 0 17 0C26.388 0 34 7.61199 34 17Z" fill="#FEFEFE"/>
<path d="M6.4197 16.7597C12.3611 14.146 20.0493 10.9594 21.1114 10.5181C23.895 9.36418 24.7492 9.58509 24.3236 12.1422C24.0174 13.9796 23.1352 20.0634 22.4313 23.8498C22.0139 26.0954 21.0774 26.3616 19.605 25.3902C18.8971 24.9227 15.3228 22.5586 14.547 22.0036C13.8387 21.4979 12.8625 20.8893 14.0874 19.691C14.5231 19.2641 17.3803 16.5358 19.6063 14.4122C19.8977 14.1334 19.5314 13.6755 19.1946 13.8989C16.1941 15.8888 12.0344 18.6502 11.5047 19.0096C10.7049 19.5528 9.93645 19.8021 8.55772 19.4061C7.51572 19.1068 6.49811 18.7496 6.10214 18.6137C4.57617 18.09 4.9386 17.4118 6.4197 16.7597Z" fill="#1876D2"/>
</svg>
