<svg width="34" height="34" viewBox="0 0 34 34" fill="none" xmlns="http://www.w3.org/2000/svg">
<path d="M17 34C26.3888 34 34 26.3888 34 17C34 7.61116 26.3888 0 17 0C7.61116 0 0 7.61116 0 17C0 26.3888 7.61116 34 17 34Z" fill="#FEFEFE"/>
<path d="M25.2171 12.7599C25.0559 11.8716 24.2892 11.2251 23.3997 11.023C22.0685 10.7407 19.6046 10.5391 16.9386 10.5391C14.2744 10.5391 11.7713 10.7407 10.4383 11.023C9.5501 11.2251 8.78207 11.8307 8.62089 12.7599C8.45841 13.7692 8.29767 15.1828 8.29767 16.9997C8.29767 18.8171 8.45841 20.2307 8.66054 21.24C8.82303 22.1283 9.58971 22.7747 10.4775 22.9768C11.8911 23.2591 14.314 23.4608 16.9796 23.4608C19.6456 23.4608 22.0685 23.2591 23.4816 22.9768C24.3698 22.7747 25.1365 22.1692 25.299 21.24C25.4597 20.2307 25.6619 18.7762 25.7028 16.9997C25.6209 15.1828 25.4188 13.7692 25.2171 12.7599ZM14.7588 19.8264V14.173L19.6847 16.9997L14.7588 19.8264Z" fill="#1876D2"/>
</svg>
