<svg width="34" height="34" viewBox="0 0 34 34" fill="none" xmlns="http://www.w3.org/2000/svg">
<path fill-rule="evenodd" clip-rule="evenodd" d="M18.0993 24.5031C10.3392 24.5031 5.91639 19.1851 5.75391 10.3398H9.63393C9.7424 16.8245 12.6183 19.592 14.8705 20.1618V10.3398H18.5332V15.9563C20.7853 15.7123 23.1185 13.1618 23.9327 10.3398H27.5683C26.9715 13.813 24.421 16.3631 22.6032 17.3942C24.421 18.2624 27.3244 20.4876 28.4365 24.5031H24.394C23.5528 21.8171 21.3821 19.7279 18.5332 19.4565V24.5031H18.0993Z" fill="#1876D2"/>
<path d="M17 0C7.62637 0 0 7.62637 0 17C0 26.3736 7.62637 34 17 34C26.3745 34 34 26.3736 34 17C34 7.62637 26.3745 0 17 0Z" fill="#FEFEFE"/>
<path fill-rule="evenodd" clip-rule="evenodd" d="M17.952 23.5039C11.2117 23.5039 7.36991 18.8846 7.22833 11.2012H10.5987C10.6932 16.8342 13.1915 19.2384 15.1474 19.7332V11.2012H18.3292V16.0801C20.2856 15.8679 22.3125 13.6524 23.0195 11.2012H26.1773C25.6589 14.2183 23.4434 16.4334 21.8647 17.329C23.4434 18.0831 25.9656 20.0159 26.9318 23.5039H23.4198C22.6893 21.1707 20.8039 19.356 18.3292 19.1203V23.5039H17.952Z" fill="#1876D2"/>
</svg>
