<svg width="34" height="34" viewBox="0 0 34 34" fill="none" xmlns="http://www.w3.org/2000/svg">
<path d="M17 34C26.3888 34 34 26.3888 34 17C34 7.61116 26.3888 0 17 0C7.61116 0 0 7.61116 0 17C0 26.3888 7.61116 34 17 34Z" fill="#FEFEFE"/>
<path fill-rule="evenodd" clip-rule="evenodd" d="M16.8269 12.2141V18.2718C14.5835 18.3428 11.2737 20.3153 12.5304 24.468C13.958 28.9597 20.5781 27.9212 20.7636 24.5621C20.8743 23.3328 19.293 21.014 16.8056 22.8532V20.3196H22.7278V25.8716C20.0457 29.1527 12.6707 30.1898 9.39702 23.7945C6.8382 17.8592 11.3133 12.1653 16.8269 12.2141Z" fill="#1876D2"/>
<path fill-rule="evenodd" clip-rule="evenodd" d="M19.784 5.00073C16.7808 9.29027 16.6798 15.3541 19.784 19.8362C22.6055 15.771 23.0799 9.9389 19.784 5.00073ZM19.784 13.9937C18.8975 15.578 18.8975 17.3971 19.784 19.2533C20.6739 17.3971 20.6739 15.578 19.784 13.9937ZM18.2127 14.9032C17.7557 11.7541 18.0872 9.09948 19.784 6.03839C21.4807 9.09948 21.8127 11.7541 21.3614 14.9032C21.2337 12.861 20.9035 10.5009 19.784 8.5397C18.6644 10.5009 18.3342 12.861 18.2127 14.9032Z" fill="#1876D2"/>
</svg>
