<svg width="22" height="22" viewBox="0 0 22 22" fill="none" xmlns="http://www.w3.org/2000/svg">
<path d="M11 0C4.928 0 0 4.928 0 11C0 17.072 4.928 22 11 22C17.072 22 22 17.072 22 11C22 4.928 17.072 0 11 0ZM11 4.4C13.123 4.4 14.85 6.127 14.85 8.25C14.85 10.373 13.123 12.1 11 12.1C8.877 12.1 7.15 10.373 7.15 8.25C7.15 6.127 8.877 4.4 11 4.4ZM11 19.8C8.767 19.8 6.127 18.898 4.246 16.632C6.105 15.18 8.448 14.3 11 14.3C13.552 14.3 15.895 15.18 17.754 16.632C15.873 18.898 13.233 19.8 11 19.8Z" fill="#0078D2"/>
</svg>
