<svg width="40" height="45" viewBox="0 0 40 45" fill="none" xmlns="http://www.w3.org/2000/svg">
<path d="M35.5556 4.44444H33.3333V0H28.8889V4.44444H11.1111V0H6.66667V4.44444H4.44444C1.97778 4.44444 0.0222222 6.44444 0.0222222 8.88889L0 40C0 42.4444 1.97778 44.4444 4.44444 44.4444H35.5556C38 44.4444 40 42.4444 40 40V8.88889C40 6.44444 38 4.44444 35.5556 4.44444ZM35.5556 40H4.44444V17.7778H35.5556V40ZM13.3333 26.6667H8.88889V22.2222H13.3333V26.6667ZM22.2222 26.6667H17.7778V22.2222H22.2222V26.6667ZM31.1111 26.6667H26.6667V22.2222H31.1111V26.6667ZM13.3333 35.5556H8.88889V31.1111H13.3333V35.5556ZM22.2222 35.5556H17.7778V31.1111H22.2222V35.5556ZM31.1111 35.5556H26.6667V31.1111H31.1111V35.5556Z" fill="url(#paint0_linear_101_5343)"/>
<defs>
<linearGradient id="paint0_linear_101_5343" x1="-3.07692" y1="2.22256" x2="35.8974" y2="49.402" gradientUnits="userSpaceOnUse">
<stop stop-color="#7DAEEB"/>
<stop offset="1" stop-color="#3E7CCE"/>
</linearGradient>
</defs>
</svg>
