<svg width="41" height="41" viewBox="0 0 41 41" fill="none" xmlns="http://www.w3.org/2000/svg">
<path d="M22.7787 13.6665H18.2226V18.222H22.7787V13.6665ZM31.8893 13.6665H27.3333V18.222H31.8893V13.6665ZM38.7228 28.472C35.8762 28.472 33.1427 28.0165 30.5912 27.1736C29.7937 26.923 28.9053 27.1055 28.2673 27.7205L23.2562 32.7315C16.8097 29.4515 11.5256 24.19 8.24555 17.7435L13.257 12.71C13.895 12.0954 14.0775 11.207 13.8261 10.4099C12.984 7.85893 12.5286 5.12544 12.5286 2.27798C12.5286 1.02544 11.5035 0 10.251 0L2.27794 0.000884484C1.02539 0.000884484 0 1.02633 0 2.27886C0 23.6665 17.3342 41.0005 38.722 41.0005C39.975 41.0005 41 39.975 41 38.7225V30.7505C41 29.4979 39.975 28.4729 38.722 28.4729L38.7228 28.472ZM36.4453 13.6665V18.222H41V13.6665H36.4453Z" fill="url(#paint0_linear_101_5353)"/>
<defs>
<linearGradient id="paint0_linear_101_5353" x1="-3.15385" y1="2.05033" x2="31.9071" y2="49.2079" gradientUnits="userSpaceOnUse">
<stop stop-color="#7DAEEB"/>
<stop offset="1" stop-color="#3E7CCE"/>
</linearGradient>
</defs>
</svg>
