<svg width="118" height="83" viewBox="0 0 118 83" fill="none" xmlns="http://www.w3.org/2000/svg">
<path fill-rule="evenodd" clip-rule="evenodd" d="M58.8337 77.5102C72.5199 77.5102 85.113 77.7144 95.108 78.0573C119.567 64.0736 111.097 36.8265 102.315 21.4134C90.0939 -0.0393642 61.2131 -7.74926 49.2659 9.36634C33.0537 32.6026 17.4109 24.492 8.96404 42.1359C0.51722 59.7798 13.3456 76.6945 22.5604 78.0573C32.5543 77.7144 45.1507 77.5102 58.8337 77.5102Z" fill="#EAEFF8"/>
<path fill-rule="evenodd" clip-rule="evenodd" d="M58.8336 77.5098C91.328 77.5098 117.668 78.6629 117.668 80.0868C117.668 81.5107 91.328 82.6626 58.8336 82.6626C26.3393 82.6626 0 81.5095 0 80.0868C0 78.664 26.3404 77.5098 58.8336 77.5098Z" fill="#D2DFEE"/>
<path fill-rule="evenodd" clip-rule="evenodd" d="M77.807 6.38261C92.501 9.65657 101.852 23.1697 102.769 29.6888C103.144 32.3667 102.448 26.1007 94.9514 20.3963C88.2526 15.2978 83.0364 14.3533 75.0669 13.7374C69.4356 13.3023 63.537 12.6098 63.9554 9.25149C64.2872 6.60235 68.3203 4.26841 77.807 6.38261Z" fill="white"/>
<path fill-rule="evenodd" clip-rule="evenodd" d="M20.9345 71.5725C20.2686 70.7323 19.3197 70.0387 19.0422 68.9999C18.7159 67.7791 19.4362 66.4839 19.2575 65.2265C19.0356 63.645 17.5107 62.6207 16.6839 61.2545C15.8748 59.916 16.2532 59.4666 16.18 57.9039C16.069 55.55 14.1379 52.5768 11.5665 53.3759C8.95508 54.1861 9.38127 56.6132 9.84073 58.44C10.1681 59.7407 9.95171 59.9283 9.63652 61.2312C9.25252 62.8049 8.01286 64.3265 8.5267 65.8613C8.84633 66.8102 9.77747 67.4506 10.1137 68.3951C10.4955 69.4638 10.0338 70.6236 9.85626 71.7456C9.48114 74.1062 10.0194 76.0739 11.7341 78.0194C11.9162 78.193 12.1082 78.356 12.309 78.5077C14.7106 78.3723 17.4141 78.2469 20.3784 78.1348L20.3995 78.1115C21.9743 76.3991 22.4427 73.4591 20.9345 71.5725Z" fill="#D2DFEE"/>
<path fill-rule="evenodd" clip-rule="evenodd" d="M12.7519 55.5047C12.7436 55.4778 12.7298 55.4528 12.7114 55.4314C12.6931 55.41 12.6705 55.3926 12.6452 55.3802C12.6198 55.3679 12.5922 55.3609 12.564 55.3596C12.5358 55.3583 12.5077 55.3628 12.4813 55.3729C12.4549 55.3829 12.4309 55.3982 12.4107 55.4179C12.3905 55.4376 12.3746 55.4612 12.3638 55.4873C12.3531 55.5133 12.3478 55.5413 12.3483 55.5696C12.3488 55.5978 12.3551 55.6255 12.3668 55.6512C12.5733 56.1985 12.7479 56.7573 12.8895 57.3248C12.8296 57.2716 12.7685 57.2138 12.7064 57.1695C12.4127 56.9356 12.0924 56.7374 11.752 56.579C11.7029 56.5581 11.6476 56.557 11.5977 56.5759C11.5478 56.5948 11.5072 56.6324 11.4843 56.6806C11.4615 56.7288 11.4583 56.784 11.4753 56.8346C11.4923 56.8852 11.5282 56.9273 11.5755 56.9519C11.8867 57.0965 12.1799 57.2772 12.4489 57.4902C12.6849 57.6796 12.896 57.8981 13.0771 58.1405C13.3401 59.4002 13.5132 60.7542 13.6686 62.1825C13.4428 61.828 13.1865 61.4938 12.9028 61.1837C12.4595 60.6923 11.929 60.2874 11.338 59.9895C11.3138 59.9775 11.2875 59.9703 11.2605 59.9685C11.2336 59.9666 11.2065 59.9701 11.1809 59.9787C11.1553 59.9873 11.1316 60.0009 11.1113 60.0186C11.0909 60.0364 11.0742 60.058 11.0622 60.0822C11.0502 60.1064 11.043 60.1327 11.0412 60.1596C11.0393 60.1866 11.0428 60.2136 11.0514 60.2393C11.06 60.2649 11.0736 60.2885 11.0914 60.3089C11.1091 60.3293 11.1307 60.3459 11.1549 60.358C11.7005 60.6351 12.1898 61.0115 12.5976 61.4678C13.0675 61.9908 13.4636 62.5755 13.7752 63.2057L13.8151 63.5931C13.9028 64.4443 13.9927 65.3166 14.0992 66.2089C14.0987 66.2174 14.0987 66.2259 14.0992 66.2344C14.2102 67.1656 14.3401 68.1211 14.5043 69.0844C14.0844 68.4301 13.6011 67.8186 13.0615 67.2588C12.3494 66.513 11.5107 65.8994 10.5844 65.4465C10.5355 65.4254 10.4803 65.4241 10.4304 65.4427C10.3806 65.4614 10.3398 65.4986 10.3168 65.5467C10.2937 65.5947 10.2901 65.6497 10.3067 65.7004C10.3232 65.751 10.3587 65.7932 10.4057 65.8183C11.2882 66.2502 12.0871 66.8353 12.7652 67.5462C13.534 68.3555 14.1899 69.2649 14.7152 70.2498C14.9727 71.5708 15.3089 72.8753 15.7218 74.1563C15.9326 74.8044 16.1701 75.4548 16.4343 76.1074C14.9597 74.8353 13.1958 73.944 11.2969 73.5115C11.2435 73.4991 11.1873 73.5085 11.1408 73.5375C11.0943 73.5666 11.0613 73.6129 11.0489 73.6663C11.0365 73.7197 11.0459 73.7759 11.0749 73.8224C11.104 73.8689 11.1503 73.902 11.2037 73.9144C12.2673 74.1573 13.2914 74.5488 14.2457 75.0775C15.1937 75.6088 16.0642 76.2679 16.8327 77.0363C17.0155 77.444 17.2111 77.8509 17.4198 78.2571L17.8737 78.2382C17.1752 76.8918 16.5887 75.4902 16.1202 74.0476C16.0444 73.0277 16.1657 72.0028 16.4775 71.0288C16.8378 69.9317 17.3677 68.8978 18.0479 67.9646C18.0719 67.9204 18.0789 67.869 18.0676 67.82C18.0563 67.771 18.0276 67.7278 17.9867 67.6985C17.9458 67.6692 17.8957 67.6559 17.8457 67.6609C17.7956 67.666 17.7492 67.6891 17.715 67.726C17.0108 68.6942 16.4626 69.7667 16.0902 70.9045C15.9037 71.4928 15.7806 72.0992 15.7229 72.7136C15.1036 70.4773 14.7607 68.292 14.5098 66.2067C14.7108 65.4357 14.9824 64.6849 15.3211 63.9637C15.5583 63.4407 15.8863 62.9639 16.29 62.5554C16.3261 62.5171 16.3463 62.4664 16.3463 62.4137C16.3463 62.361 16.3261 62.3103 16.2899 62.272C16.2538 62.2337 16.2043 62.2107 16.1517 62.2076C16.0991 62.2046 16.0473 62.2218 16.007 62.2557C15.5665 62.6979 15.2084 63.215 14.9493 63.7828C14.7341 64.2341 14.5487 64.699 14.3944 65.1746C14.3334 64.6197 14.2835 64.0803 14.2235 63.5465L14.1802 63.1303C14.1802 63.1225 14.1802 63.1147 14.1802 63.1081C13.8861 60.2736 13.5909 57.6955 12.7519 55.5047Z" fill="white"/>
<path fill-rule="evenodd" clip-rule="evenodd" d="M14.027 72.6812C13.3101 72.295 12.4477 72.0908 11.9461 71.4493C11.3557 70.6924 11.4755 69.5804 10.9783 68.758C10.3535 67.7236 8.98955 67.4606 8.00847 66.7537C7.04848 66.0611 7.17943 65.6361 6.66559 64.5695C5.88871 62.9625 3.66907 61.4621 2.10978 62.7827C0.531623 64.1201 1.54713 65.6849 2.40834 66.8203C3.02207 67.6304 2.92773 67.8191 3.09309 68.8257C3.29175 70.0354 2.87889 71.4626 3.6946 72.3771C4.19957 72.9431 5.03748 73.114 5.55132 73.6712C6.13398 74.3037 6.15618 75.2482 6.36372 76.0817C6.64006 77.1915 7.12283 78.0793 7.88527 78.7963C9.94398 78.6409 12.3634 78.4966 15.0991 78.3634C15.3094 78.0639 15.4782 77.7372 15.6007 77.3924C16.1845 75.7354 15.6351 73.548 14.027 72.6812Z" fill="#C5DEF8"/>
<path fill-rule="evenodd" clip-rule="evenodd" d="M3.56579 63.9104C3.53636 63.881 3.49644 63.8645 3.45481 63.8645C3.41318 63.8645 3.37326 63.881 3.34383 63.9104C3.31439 63.9399 3.29785 63.9798 3.29785 64.0214C3.29785 64.063 3.31439 64.103 3.34383 64.1324C3.64938 64.4526 3.93619 64.7902 4.20282 65.1434C4.14622 65.1235 4.09184 65.1057 4.02969 65.0891C3.75555 65.0139 3.47362 64.9707 3.18955 64.9603C3.169 64.9596 3.14853 64.9629 3.12926 64.9701C3.11 64.9773 3.09234 64.9882 3.07729 65.0022C3.06225 65.0163 3.05009 65.0331 3.04155 65.0518C3.03302 65.0705 3.02825 65.0907 3.02752 65.1113C3.02679 65.1318 3.03011 65.1523 3.0373 65.1716C3.04449 65.1908 3.05542 65.2085 3.06943 65.2235C3.08345 65.2386 3.10029 65.2507 3.11899 65.2593C3.1377 65.2678 3.15792 65.2726 3.17847 65.2733C3.43784 65.2812 3.69531 65.3204 3.94534 65.3898C4.16602 65.4512 4.37788 65.5407 4.57571 65.6562C5.13062 66.4564 5.65334 67.3475 6.18494 68.2964C5.92231 68.1163 5.64456 67.9592 5.3548 67.827C4.90087 67.6158 4.41164 67.4909 3.91204 67.4585C3.87089 67.4564 3.83056 67.4706 3.79981 67.498C3.76906 67.5255 3.75036 67.5639 3.74779 67.605C3.74644 67.6255 3.74917 67.646 3.75584 67.6654C3.7625 67.6847 3.77295 67.7026 3.78659 67.7179C3.80023 67.7332 3.81679 67.7456 3.83528 67.7544C3.85377 67.7632 3.87383 67.7683 3.89429 67.7693C4.35553 67.7999 4.80708 67.9158 5.22607 68.1111C5.70708 68.3368 6.15512 68.6269 6.55785 68.9734L6.69991 69.232C7.01399 69.798 7.33473 70.3796 7.67322 70.97L7.68319 70.9866C8.03723 71.6026 8.40903 72.2263 8.80968 72.8511C8.32382 72.5197 7.80677 72.2365 7.2659 72.0054C6.54907 71.6974 5.78328 71.5189 5.00411 71.4783C4.98278 71.4758 4.96116 71.4777 4.9406 71.4839C4.92004 71.4901 4.90099 71.5005 4.88462 71.5144C4.86825 71.5283 4.85491 71.5454 4.84544 71.5647C4.83597 71.584 4.83055 71.605 4.82956 71.6265C4.82857 71.6479 4.83202 71.6694 4.83967 71.6894C4.84732 71.7095 4.85901 71.7278 4.87402 71.7431C4.88904 71.7585 4.90707 71.7706 4.92697 71.7787C4.94687 71.7868 4.9682 71.7907 4.98967 71.7901C5.73219 71.8296 6.46187 72.0002 7.14495 72.294C7.92044 72.6301 8.64691 73.0695 9.30465 73.6003C9.87558 74.4441 10.4963 75.2531 11.1636 76.023C11.5032 76.4114 11.8594 76.7998 12.239 77.1705C10.8346 76.7217 9.34182 76.6234 7.89074 76.8842C7.84983 76.8914 7.81346 76.9146 7.78962 76.9486C7.76579 76.9826 7.75646 77.0247 7.76367 77.0657C7.77088 77.1066 7.79404 77.1429 7.82807 77.1668C7.8621 77.1906 7.90421 77.1999 7.94512 77.1927C8.75807 77.0471 9.58744 77.0164 10.4089 77.1017C11.2268 77.1913 12.0285 77.3926 12.7917 77.6999C13.0625 77.9507 13.3444 78.1971 13.6374 78.4391L14.1024 78.4146C13.1292 77.6352 12.2281 76.7697 11.41 75.8288C11.0542 75.1412 10.8352 74.3912 10.7652 73.6202C10.69 72.7492 10.7522 71.8717 10.9494 71.0199C10.9538 71 10.9542 70.9793 10.9506 70.9592C10.947 70.9391 10.9394 70.9199 10.9284 70.9027C10.9174 70.8855 10.9031 70.8706 10.8863 70.8589C10.8695 70.8472 10.8506 70.839 10.8306 70.8346C10.8107 70.8302 10.79 70.8298 10.7699 70.8334C10.7498 70.837 10.7306 70.8445 10.7134 70.8556C10.6962 70.8666 10.6813 70.8809 10.6696 70.8977C10.6579 70.9145 10.6497 70.9334 10.6453 70.9533C10.4408 71.8368 10.3764 72.7468 10.4544 73.6502C10.4987 74.115 10.5925 74.5737 10.7341 75.0186C9.70512 73.6997 8.77761 72.3048 7.95954 70.8457C7.87102 70.2489 7.83759 69.6452 7.85967 69.0422C7.87033 68.6079 7.9575 68.1789 8.11715 67.7748C8.12531 67.7561 8.1297 67.7359 8.13007 67.7155C8.13045 67.6951 8.12679 67.6748 8.11932 67.6558C8.11185 67.6368 8.10071 67.6194 8.08653 67.6047C8.07235 67.59 8.05541 67.5782 8.03668 67.5701C8.01795 67.5619 7.99779 67.5575 7.97737 67.5571C7.95694 67.5568 7.93666 67.5604 7.91765 67.5679C7.89863 67.5754 7.88125 67.5865 7.86655 67.6007C7.85184 67.6149 7.84008 67.6318 7.83192 67.6505C7.6562 68.0887 7.55999 68.5547 7.5478 69.0267C7.53074 69.4052 7.53852 69.7845 7.5711 70.162C7.36542 69.7921 7.16455 69.431 6.96848 69.0789L6.81645 68.8014L6.80756 68.7859C5.76877 66.8959 4.7988 65.1889 3.56579 63.9104Z" fill="white"/>
<path fill-rule="evenodd" clip-rule="evenodd" d="M94.1359 70.7794C94.8684 69.8626 95.8983 69.1057 96.2013 67.9726C96.5575 66.6342 95.7717 65.2269 95.9671 63.8552C96.2112 62.1306 97.8726 61.0119 98.7749 59.5269C99.6628 58.0664 99.2444 57.5748 99.3298 55.8712C99.4508 53.302 101.557 50.0602 104.364 50.9292C107.214 51.817 106.748 54.4628 106.251 56.4561C105.892 57.8755 106.126 58.0786 106.473 59.5014C106.891 61.2183 108.248 62.8786 107.679 64.5533C107.329 65.5899 106.313 66.289 105.947 67.3189C105.529 68.4854 106.034 69.7517 106.227 70.9747C106.637 73.5517 106.05 75.6947 104.179 77.8211C103.955 78.0346 103.717 78.2337 103.468 78.4171C100.879 78.285 97.9914 78.1652 94.8495 78.0575C94.8062 78.0131 94.7629 77.9687 94.7208 77.9232C93.0016 76.0421 92.49 72.8336 94.1359 70.7794Z" fill="#D2DFEE"/>
<path fill-rule="evenodd" clip-rule="evenodd" d="M103.065 53.2447C103.087 53.1891 103.129 53.1442 103.184 53.12C103.238 53.0957 103.3 53.0941 103.356 53.1154C103.411 53.1368 103.456 53.1793 103.48 53.2338C103.505 53.2882 103.506 53.35 103.485 53.4056C103.26 54.0026 103.07 54.6122 102.916 55.2313C102.98 55.1725 103.048 55.1203 103.115 55.0604C103.436 54.8057 103.786 54.5896 104.157 54.4167C104.211 54.3912 104.273 54.3883 104.33 54.4085C104.386 54.4286 104.432 54.4703 104.457 54.5243C104.483 54.5784 104.485 54.6403 104.465 54.6965C104.445 54.7527 104.403 54.7985 104.349 54.824C104.01 54.9814 103.69 55.1785 103.397 55.4111C103.139 55.6173 102.908 55.8561 102.711 56.1214C102.424 57.4953 102.235 58.9736 102.065 60.5318C102.312 60.1448 102.592 59.7798 102.901 59.4408C103.385 58.9048 103.964 58.463 104.609 58.1379C104.662 58.1114 104.724 58.1072 104.78 58.1261C104.837 58.1451 104.883 58.1856 104.91 58.2389C104.936 58.2922 104.941 58.3538 104.922 58.4102C104.903 58.4666 104.862 58.5132 104.809 58.5397C104.213 58.8412 103.679 59.2502 103.232 59.746C102.72 60.3168 102.288 60.9549 101.949 61.6427L101.904 62.0655C101.809 62.9945 101.71 63.9522 101.594 64.9189C101.595 64.9285 101.595 64.9382 101.594 64.9477C101.473 65.9643 101.331 67.002 101.15 68.0552C101.606 67.3394 102.132 66.6702 102.72 66.0576C103.498 65.2441 104.413 64.5746 105.424 64.0799C105.45 64.067 105.479 64.0596 105.509 64.0579C105.538 64.0563 105.568 64.0605 105.596 64.0703C105.624 64.0801 105.65 64.0953 105.672 64.115C105.694 64.1347 105.712 64.1586 105.724 64.1853C105.737 64.212 105.745 64.2409 105.746 64.2705C105.748 64.3 105.744 64.3296 105.734 64.3575C105.724 64.3854 105.709 64.4112 105.689 64.4332C105.67 64.4553 105.646 64.4732 105.619 64.4861C104.656 64.9581 103.784 65.5968 103.043 66.3728C102.204 67.2561 101.489 68.2487 100.916 69.3238C100.635 70.7657 100.269 72.1895 99.818 73.5877C99.5872 74.2946 99.3297 75.0038 99.0412 75.7163C100.651 74.3285 102.576 73.3561 104.648 72.884C104.707 72.8706 104.769 72.8812 104.82 72.9133C104.871 72.9455 104.907 72.9966 104.92 73.0555C104.934 73.1144 104.923 73.1762 104.891 73.2273C104.859 73.2783 104.808 73.3146 104.749 73.328C103.589 73.5928 102.471 74.0203 101.431 74.5976C100.396 75.1773 99.4459 75.8965 98.6072 76.7351C98.393 77.209 98.1633 77.6829 97.9203 78.1579L97.4219 78.139C98.2062 76.6434 98.8626 75.0841 99.3841 73.4778C99.4669 72.3649 99.3343 71.2465 98.9934 70.1839C98.6007 68.9863 98.0229 67.8576 97.281 66.8389C97.2639 66.8147 97.2517 66.7875 97.2451 66.7587C97.2385 66.7298 97.2376 66.7 97.2426 66.6708C97.2475 66.6416 97.2582 66.6137 97.2739 66.5887C97.2896 66.5636 97.3101 66.5419 97.3343 66.5248C97.3584 66.5077 97.3857 66.4955 97.4145 66.4889C97.4433 66.4823 97.4732 66.4814 97.5023 66.4864C97.5315 66.4913 97.5594 66.502 97.5845 66.5177C97.6095 66.5334 97.6312 66.5539 97.6484 66.5781C98.418 67.6349 99.0172 68.806 99.4241 70.0485C99.628 70.69 99.7627 71.3515 99.8258 72.0217C100.501 69.5801 100.876 67.1973 101.149 64.9189C100.928 64.077 100.631 63.2571 100.261 62.4695C99.9353 61.8036 99.5828 61.2916 99.2032 60.9335C99.1599 60.8926 99.1347 60.8362 99.133 60.7767C99.1314 60.7171 99.1534 60.6594 99.1943 60.6161C99.2352 60.5729 99.2917 60.5476 99.3512 60.5459C99.4107 60.5443 99.4685 60.5663 99.5117 60.6073C99.9335 61.0046 100.318 61.5595 100.666 62.272C100.902 62.7644 101.105 63.2715 101.275 63.7902C101.341 63.1887 101.402 62.596 101.463 62.0145L101.508 61.5606V61.5362C101.828 58.4442 102.151 55.6308 103.065 53.2447Z" fill="white"/>
<path fill-rule="evenodd" clip-rule="evenodd" d="M101.675 71.9841C102.452 71.5624 103.397 71.3405 103.944 70.6402C104.589 69.8145 104.459 68.6014 105.001 67.7036C105.682 66.5749 107.172 66.2875 108.242 65.5161C109.289 64.7603 109.146 64.2953 109.708 63.1322C110.553 61.3798 112.982 59.7451 114.678 61.1823C116.402 62.6428 115.293 64.3497 114.353 65.5894C113.687 66.4772 113.786 66.6837 113.606 67.7768C113.384 69.0975 113.839 70.6546 112.949 71.6545C112.394 72.2716 111.484 72.458 110.924 73.0662C110.288 73.7554 110.258 74.7864 110.036 75.6965C109.731 76.9173 109.193 77.9028 108.339 78.693C106.092 78.5398 103.485 78.3978 100.571 78.269C100.313 77.9197 100.108 77.5346 99.9623 77.1259C99.3231 75.3169 99.9179 72.9308 101.675 71.9841Z" fill="#C5DEF8"/>
<path fill-rule="evenodd" clip-rule="evenodd" d="M113.09 62.4139C113.122 62.3815 113.165 62.3629 113.21 62.3623C113.255 62.3617 113.299 62.379 113.331 62.4105C113.364 62.442 113.382 62.4851 113.383 62.5303C113.383 62.5754 113.366 62.619 113.335 62.6514C113.001 63.0003 112.687 63.3686 112.397 63.7545C112.459 63.7323 112.523 63.7135 112.587 63.6946C112.886 63.6122 113.193 63.5652 113.503 63.5548C113.526 63.5539 113.548 63.5574 113.569 63.5651C113.59 63.5728 113.609 63.5846 113.625 63.5997C113.642 63.6149 113.655 63.6331 113.664 63.6534C113.674 63.6737 113.679 63.6956 113.68 63.7179C113.681 63.7632 113.665 63.8072 113.634 63.8404C113.603 63.8737 113.561 63.8934 113.516 63.8955C113.233 63.9048 112.952 63.9472 112.679 64.022C112.438 64.0902 112.207 64.1878 111.991 64.3128C111.384 65.1851 110.814 66.1595 110.235 67.1983C110.521 67.0016 110.824 66.8301 111.139 66.6855C111.635 66.455 112.17 66.3188 112.715 66.2838C112.76 66.2811 112.805 66.2965 112.838 66.3265C112.872 66.3564 112.892 66.3986 112.895 66.4436C112.898 66.4886 112.882 66.5329 112.852 66.5666C112.822 66.6003 112.78 66.6208 112.735 66.6234C112.231 66.6565 111.738 66.783 111.28 66.9963C110.754 67.2422 110.264 67.5588 109.823 67.9374L109.668 68.2182C109.326 68.8364 108.975 69.4712 108.606 70.1138C108.603 70.1204 108.6 70.1267 108.596 70.1326C108.209 70.8052 107.803 71.4866 107.366 72.168C107.896 71.8067 108.461 71.4978 109.051 71.2458C109.832 70.9087 110.668 70.7133 111.518 70.6687C111.541 70.666 111.565 70.6682 111.587 70.675C111.609 70.6818 111.63 70.6931 111.648 70.7083C111.666 70.7234 111.68 70.742 111.69 70.763C111.701 70.784 111.707 70.8068 111.708 70.8302C111.709 70.8535 111.705 70.8768 111.697 70.8987C111.689 70.9206 111.676 70.9405 111.66 70.9573C111.644 70.9741 111.624 70.9874 111.603 70.9964C111.581 71.0053 111.558 71.0097 111.534 71.0094C110.724 71.0536 109.927 71.2414 109.182 71.5643C108.336 71.9312 107.543 72.4106 106.826 72.9893C106.203 73.9106 105.525 74.7937 104.797 75.634C104.426 76.0579 104.037 76.4764 103.623 76.887C105.155 76.3961 106.784 76.2886 108.367 76.574C108.406 76.587 108.439 76.6135 108.46 76.6487C108.481 76.6839 108.488 76.7255 108.481 76.7658C108.474 76.8062 108.453 76.8426 108.421 76.8685C108.389 76.8944 108.349 76.9081 108.308 76.907C107.421 76.7477 106.516 76.7144 105.62 76.8082C104.728 76.9056 103.853 77.1252 103.02 77.4608C102.697 77.7582 102.363 78.0501 102.012 78.3375L101.498 78.3131C102.595 77.4441 103.609 76.4752 104.527 75.4187C104.915 74.6682 105.155 73.8496 105.232 73.0082C105.313 72.0579 105.245 71.1007 105.03 70.1715C105.02 70.1273 105.029 70.0812 105.053 70.0432C105.078 70.0052 105.116 69.9785 105.16 69.9689C105.204 69.9594 105.251 69.9677 105.289 69.9922C105.327 70.0167 105.353 70.0552 105.363 70.0993C105.585 71.0632 105.655 72.0559 105.57 73.0415C105.522 73.5484 105.419 74.0488 105.265 74.5342C106.458 73.0359 107.426 71.4855 108.29 69.9839C108.387 69.3328 108.424 68.6741 108.401 68.0162C108.39 67.5423 108.295 67.0742 108.121 66.6334C108.103 66.592 108.102 66.5452 108.118 66.5031C108.135 66.4611 108.167 66.4273 108.208 66.4092C108.25 66.3911 108.297 66.3902 108.339 66.4066C108.381 66.4231 108.414 66.4555 108.433 66.4969C108.624 66.9754 108.729 67.4843 108.742 67.9996C108.761 68.4125 108.752 68.8263 108.717 69.2381C108.939 68.8386 109.161 68.4435 109.374 68.0562L109.54 67.7543L109.55 67.7365C110.685 65.6745 111.74 63.8089 113.09 62.4139Z" fill="white"/>
<path fill-rule="evenodd" clip-rule="evenodd" d="M54.5619 15.7998C54.3522 18.6853 53.9249 19.0882 51.1703 19.3113C53.9249 19.5332 54.3522 19.9317 54.5619 22.8216C54.7728 19.9361 55.199 19.5332 57.9546 19.3113C55.199 19.0893 54.7728 18.6898 54.5619 15.7998ZM65.7633 23.422C65.6523 24.9647 65.4237 25.1778 63.9521 25.2965C65.4237 25.4153 65.6512 25.6295 65.7633 27.171C65.8743 25.6284 66.1029 25.4153 67.5734 25.2965C66.1029 25.1778 65.8754 24.9636 65.7633 23.422ZM60.8579 11.547C60.7469 13.1096 60.5139 13.3227 59.0234 13.4459C60.5139 13.5669 60.7436 13.7788 60.8579 15.3448C60.9689 13.7822 61.202 13.5691 62.6924 13.4459C61.202 13.3249 60.9711 13.1085 60.8579 11.5459V11.547Z" fill="white"/>
<path fill-rule="evenodd" clip-rule="evenodd" d="M50.5012 63.1812C50.6721 65.5229 51.0161 65.8448 53.2491 66.0268C51.0161 66.2066 50.6721 66.5295 50.5012 68.8712C50.3303 66.5295 49.9851 66.2077 47.7521 66.0268C49.9851 65.8459 50.3303 65.5229 50.5012 63.1812ZM41.4273 69.3573C41.5172 70.607 41.7025 70.7801 42.8945 70.8756C41.7025 70.9721 41.5172 71.1441 41.4273 72.3949C41.3352 71.1441 41.151 70.9721 39.959 70.8756C41.151 70.7801 41.3352 70.607 41.4273 69.3573ZM45.4004 59.7363C45.4926 61.0026 45.679 61.1791 46.8865 61.2745C45.679 61.3722 45.4926 61.5464 45.4004 62.8127C45.3083 61.5464 45.1219 61.37 43.9144 61.2745C45.1219 61.1769 45.3083 61.0026 45.4004 59.7363Z" fill="white"/>
<path fill-rule="evenodd" clip-rule="evenodd" d="M86.1618 57.4117C86.0309 59.204 85.7667 59.4515 84.0532 59.5903C85.7623 59.7279 86.0264 59.9754 86.1618 61.7677C86.2917 59.9754 86.5569 59.7279 88.2705 59.5903C86.5614 59.4515 86.2961 59.204 86.1618 57.4117ZM93.1093 62.1395C93.0393 63.0973 92.8984 63.2294 91.985 63.3026C92.8984 63.377 93.0393 63.5079 93.1093 64.4657C93.1792 63.5079 93.3201 63.377 94.2324 63.3026C93.3201 63.2294 93.1792 63.0973 93.1093 62.1395ZM90.0662 54.7737C89.9962 55.7436 89.8531 55.8768 88.9286 55.9512C89.8531 56.0266 89.9962 56.1598 90.0662 57.1298C90.1372 56.1598 90.2804 56.0266 91.2048 55.9512C90.2804 55.8768 90.1372 55.7436 90.0662 54.7737Z" fill="white"/>
<path fill-rule="evenodd" clip-rule="evenodd" d="M32.8496 77.5588V43.2898C32.8496 42.8093 30.7409 44.1611 28.1373 44.1611C25.5337 44.1611 23.425 43.7715 23.425 43.2898V77.5588C23.425 78.0404 25.5337 78.43 28.1373 78.43C30.7409 78.43 32.8496 78.0404 32.8496 77.5588Z" fill="#BBDBFA"/>
<path fill-rule="evenodd" clip-rule="evenodd" d="M32.8494 77.558V43.2891C32.8494 43.5166 32.3789 43.7241 31.6064 43.8784V78.1473C32.3789 77.993 32.8494 77.7855 32.8494 77.558Z" fill="#99C5F2"/>
<path fill-rule="evenodd" clip-rule="evenodd" d="M37.5617 51.3145C40.1642 51.3145 42.274 51.704 42.274 52.1857C42.274 52.6673 40.1653 53.0569 37.5617 53.0569C34.9581 53.0569 32.8494 52.6662 32.8494 52.1857C32.8494 51.7051 34.9592 51.3145 37.5617 51.3145Z" fill="white"/>
<path fill-rule="evenodd" clip-rule="evenodd" d="M42.274 77.5603V52.1865C42.274 52.6671 40.1654 53.0577 37.5617 53.0577C34.9581 53.0577 32.8494 52.6671 32.8494 52.1865V77.5603C32.8494 78.0419 34.9581 78.4315 37.5617 78.4315C40.1654 78.4315 42.274 78.0419 42.274 77.5603Z" fill="#BBDBFA"/>
<path fill-rule="evenodd" clip-rule="evenodd" d="M42.2741 77.5603V52.1865C42.2741 52.4085 41.8024 52.6205 41.0311 52.7758V78.1496C41.8024 77.9953 42.2741 77.7878 42.2741 77.5603Z" fill="#99C5F2"/>
<path fill-rule="evenodd" clip-rule="evenodd" d="M28.1373 42.4198C30.7398 42.4198 32.8496 42.8093 32.8496 43.2899C32.8496 43.7704 30.7409 44.1611 28.1373 44.1611C25.5337 44.1611 23.425 43.7716 23.425 43.2899C23.425 42.8082 25.5348 42.4198 28.1373 42.4198Z" fill="white"/>
<path fill-rule="evenodd" clip-rule="evenodd" d="M51.6986 77.5586V60.6072C51.6986 60.1267 49.59 61.4784 46.9863 61.4784C44.3827 61.4784 42.274 61.0889 42.274 60.6072V77.5586C42.274 78.0402 44.3827 78.4298 46.9863 78.4298C49.59 78.4298 51.6986 78.0402 51.6986 77.5586Z" fill="#BBDBFA"/>
<path fill-rule="evenodd" clip-rule="evenodd" d="M51.6986 77.5597V60.6083C51.6986 60.8303 51.2269 61.0434 50.4556 61.1988V78.149C51.2269 77.9947 51.6986 77.7872 51.6986 77.5597Z" fill="#99C5F2"/>
<path d="M46.9863 61.4787C49.5888 61.4787 51.6986 61.0887 51.6986 60.6075C51.6986 60.1264 49.5888 59.7363 46.9863 59.7363C44.3838 59.7363 42.274 60.1264 42.274 60.6075C42.274 61.0887 44.3838 61.4787 46.9863 61.4787Z" fill="white"/>
<path fill-rule="evenodd" clip-rule="evenodd" d="M61.132 77.5276V66.4661C61.132 65.9844 59.0234 67.3361 56.4198 67.3361C53.8161 67.3361 51.7075 66.9466 51.7075 66.4661V77.5276C51.7075 78.0082 53.8161 78.3988 56.4198 78.3988C59.0234 78.3988 61.132 78.0082 61.132 77.5276Z" fill="#BBDBFA"/>
<path fill-rule="evenodd" clip-rule="evenodd" d="M61.1321 77.5274V66.4658C61.1321 66.6878 60.6616 66.8997 59.8892 67.0551V78.1167C60.6605 77.9613 61.1321 77.7549 61.1321 77.5274Z" fill="#99C5F2"/>
<path fill-rule="evenodd" clip-rule="evenodd" d="M56.4185 65.5947C59.021 65.5947 61.1308 65.9843 61.1308 66.4659C61.1308 66.9476 59.0221 67.336 56.4185 67.336C53.8149 67.336 51.7062 66.9465 51.7062 66.4659C51.7062 65.9854 53.816 65.5947 56.4185 65.5947Z" fill="white"/>
<path fill-rule="evenodd" clip-rule="evenodd" d="M86.0142 46.9755C85.8436 47.3565 85.5637 47.6782 85.2099 47.9C84.8562 48.1217 84.4446 48.2335 84.0273 48.2212C83.6101 48.2088 83.2058 48.0728 82.8659 47.8305C82.5259 47.5882 82.2656 47.2504 82.1178 46.8599C81.97 46.4695 81.9414 46.044 82.0357 45.6373C82.1299 45.2306 82.3428 44.861 82.6473 44.5754C82.9518 44.2898 83.3342 44.101 83.7461 44.033C84.158 43.9649 84.5808 44.0207 84.961 44.1931C85.2129 44.3066 85.44 44.4686 85.6292 44.6699C85.8185 44.8711 85.9663 45.1077 86.0641 45.3661C86.1619 45.6245 86.2078 45.8996 86.1993 46.1757C86.1907 46.4519 86.1278 46.7236 86.0142 46.9755Z" fill="#586CB2"/>
<path fill-rule="evenodd" clip-rule="evenodd" d="M91.0516 68.6494C91.0516 68.6494 90.5133 69.494 90.2847 69.8414C90.0561 70.1887 89.6965 70.1743 89.9007 70.3807C90.1049 70.5872 90.6776 71.4994 90.6876 71.9345C90.6975 72.3695 90.611 75.2018 91.2247 75.3749C91.8384 75.548 92.2934 74.3017 92.7218 72.5093C93.1502 70.717 93.6252 70.7581 93.5398 69.4951C93.5131 69.1033 91.0516 68.6494 91.0516 68.6494Z" fill="#284191"/>
<path fill-rule="evenodd" clip-rule="evenodd" d="M90.2791 68.6551L90.9394 69.0024L89.9572 70.5961L89.3113 70.271L90.2791 68.6551Z" fill="#EEA886"/>
<path fill-rule="evenodd" clip-rule="evenodd" d="M58.9357 63.3229C58.9357 63.3229 58.4829 62.4473 58.3009 62.0833C58.1189 61.7193 58.3009 61.4174 58.0335 61.4917C57.766 61.5661 56.7017 61.6027 56.3243 61.3908C55.947 61.1788 53.592 59.716 53.1458 60.1522C52.6997 60.5883 53.5287 61.5872 54.8383 62.8335C56.1479 64.0798 55.876 64.4616 56.9902 65.011C57.3376 65.183 58.9357 63.3229 58.9357 63.3229Z" fill="#284191"/>
<path fill-rule="evenodd" clip-rule="evenodd" d="M59.4539 63.0191L58.8336 63.3831L58.0312 61.7728L58.6249 61.4121L59.4539 63.0191Z" fill="#EEA886"/>
<path fill-rule="evenodd" clip-rule="evenodd" d="M76.836 53.9462C76.9403 54.2892 77.0824 54.9107 77.2311 55.6187C77.2921 55.9084 77.3543 56.2125 77.4153 56.5177C77.7094 57.9948 77.9791 59.4942 77.9791 59.4942C77.9791 59.4942 79.4507 65.4639 80.6016 66.3662C82.87 68.1419 89.9596 70.9253 89.9596 70.9253L91.4223 68.3938C91.4223 68.3938 87.478 66.6936 85.9609 65.6193C84.2007 64.3707 82.8678 64.03 82.7502 62.2399C82.6714 61.0491 82.9289 57.1137 82.9311 57.077C83.1997 55.1471 83.4461 52.62 83.0632 51.7166C82.7424 50.9564 76.836 53.9462 76.836 53.9462Z" fill="#4567C6"/>
<path fill-rule="evenodd" clip-rule="evenodd" d="M67.1451 54.615C67.7377 53.8725 70.2947 52.5329 71.965 51.8227C74.6152 50.6718 76.5263 49.6552 76.5263 49.6552C76.5263 49.6552 82.92 54.2254 82.3995 54.8136C81.4117 55.9234 77.3764 55.5184 76.5175 55.6482L74.7972 55.7936C74.7972 55.7936 73.0782 55.959 71.7408 56.2087C69.9485 56.5416 69.8463 57.2075 68.2016 58.3095C66.7289 59.2984 58.9369 63.8786 58.9369 63.8786L57.6051 61.3948C57.6051 61.3948 66.225 55.7692 67.1451 54.615Z" fill="#4567C6"/>
<path fill-rule="evenodd" clip-rule="evenodd" d="M71.6076 38.6521C71.8678 38.8694 72.1439 39.0671 72.4333 39.2437C72.7507 39.4146 72.6552 38.0839 72.6552 38.0839L71.6076 38.6521Z" fill="#FFB27D"/>
<path fill-rule="evenodd" clip-rule="evenodd" d="M72.9094 37.8942C72.9094 37.8942 73.007 36.8954 73.0204 36.7433C73.0337 36.5913 72.8161 36.2217 72.5331 35.8188C72.2501 35.416 71.6875 34.9976 71.602 34.9998C71.5407 34.9899 71.478 34.9932 71.4181 35.0095C71.3582 35.0257 71.3025 35.0546 71.2546 35.0941C71.1434 35.1818 71.0563 35.2964 71.0016 35.4271C70.9187 35.4451 70.8417 35.4838 70.7777 35.5394C70.7137 35.5951 70.6647 35.666 70.6353 35.7456C70.5525 35.7714 70.479 35.8208 70.424 35.8879C70.369 35.9549 70.3348 36.0367 70.3257 36.1229C70.3257 36.1229 70.0627 36.1962 70.0538 36.4237C70.154 36.593 70.2391 36.7709 70.3079 36.9553C70.3479 37.1151 71.0238 38.0129 71.6109 38.65C71.6075 38.6522 72.1891 38.9086 72.9094 37.8942Z" fill="#FFB27D"/>
<path fill-rule="evenodd" clip-rule="evenodd" d="M71.6754 35.1034C71.6754 35.1034 72.3679 36.1422 72.2137 36.2743C72.1765 36.3118 72.1305 36.3395 72.0799 36.3548C72.0294 36.3702 71.9757 36.3726 71.924 36.3619L72.015 36.9168C72.015 36.9168 71.8674 37.3197 71.4712 37.0411C71.4712 37.0411 71.3724 37.4318 71.0272 37.1166C71.0272 37.1166 70.8475 37.3452 70.6599 37.2276C70.4723 37.1099 70.0539 36.4241 70.0539 36.4241C70.0539 36.4241 70.0062 36.2232 70.3003 36.1078C70.3105 36.0208 70.3462 35.9388 70.4028 35.8721C70.4595 35.8053 70.5347 35.7568 70.6188 35.7327C70.6445 35.6513 70.692 35.5785 70.7562 35.5224C70.8204 35.4662 70.8988 35.4287 70.9829 35.4142C70.9829 35.4142 71.1604 34.9081 71.6021 34.998C71.5988 35.0002 71.6476 35.059 71.6754 35.1034Z" fill="#FFB27D"/>
<path fill-rule="evenodd" clip-rule="evenodd" d="M72.9993 36.7087C72.9993 36.7087 72.2513 36.2914 71.7419 36.2414C71.6309 36.2315 71.5132 36.2414 71.46 36.3436C71.4067 36.4457 71.4866 36.6554 71.8018 36.853C72.0391 37.0216 72.2516 37.2226 72.4333 37.45C72.4333 37.45 72.8162 37.5577 72.9993 36.7087Z" fill="#FFB27D"/>
<path fill-rule="evenodd" clip-rule="evenodd" d="M83.3185 39.7815C83.3185 39.7815 79.9469 41.5051 77.8504 42.0289C77.1934 42.192 73.1892 37.7483 72.9328 37.8183C72.6765 37.8882 71.7953 39.3198 71.7953 39.3198C71.7953 39.3198 76.7462 44.9388 77.1723 44.9244C77.5985 44.91 84.0943 42.6926 84.6447 42.1809C85.1952 41.6693 85.5481 40.898 85.0887 40.2432C84.4383 39.3232 83.3185 39.7815 83.3185 39.7815Z" fill="#4F8ECC"/>
<path fill-rule="evenodd" clip-rule="evenodd" d="M82.7879 37.6344C82.7879 37.6344 81.1087 39.4434 80.5616 40.6575C80.0145 41.8717 79.5039 45.4752 79.222 46.1678C78.9401 46.8603 76.5274 49.6537 76.5274 49.6537L82.9976 54.8255C83.7517 53.4702 84.4362 52.0774 85.0486 50.6525C86.0474 48.3219 86.2239 46.1223 86.6489 44.725C88.0983 39.9528 84.8466 37.2959 84.8466 37.2959L82.7879 37.6344Z" fill="#BBDBFA"/>
<path fill-rule="evenodd" clip-rule="evenodd" d="M82.0544 30.9885C82.0544 30.9885 80.9445 31.842 81.1665 32.1505C81.3507 32.4057 80.3197 33.267 80.1677 33.4157C80.0156 33.5644 80.4784 33.9273 80.5373 34.0927C80.5961 34.258 80.2875 35.8295 80.6971 36.0637C81.1066 36.2979 83.334 36.4865 84.1031 36.1747C84.8722 35.8628 86.4026 33.5877 86.5169 32.3902C86.6312 31.1927 83.9943 29.5036 82.0544 30.9885Z" fill="#FFB27D"/>
<path fill-rule="evenodd" clip-rule="evenodd" d="M82.1242 36.3306C82.1242 36.3306 82.1242 36.4682 82.1242 36.679C82.1242 36.7678 82.1242 36.8699 82.1175 36.9798C82.1175 37.0642 82.1175 37.1529 82.1098 37.2439C82.0909 37.8188 82.0476 38.5091 81.9489 38.8177C81.7646 39.3937 84.588 37.1973 84.588 37.1973C84.6106 35.8218 84.7304 34.4496 84.9465 33.091C85.2994 30.9313 82.1242 36.3306 82.1242 36.3306Z" fill="#FFB27D"/>
<path fill-rule="evenodd" clip-rule="evenodd" d="M81.8246 31.1791C81.8246 31.1791 81.4917 29.2447 83.021 28.8485C83.6625 30.6564 88.5323 32.0669 86.3693 31.5631C86.5757 31.7273 87.8709 32.4176 86.154 34.4364C84.6458 36.2121 84.6258 36.0878 84.6258 36.0878C84.6258 36.0878 84.6602 34.877 84.4948 34.5929C84.2385 34.149 83.3772 33.8438 83.3772 33.8438C83.3772 33.8438 84.2429 32.9681 83.6902 32.5431C83.1375 32.118 82.5515 31.2257 81.8246 31.1791Z" fill="#284191"/>
<path fill-rule="evenodd" clip-rule="evenodd" d="M84.3062 33.5309C84.4249 33.411 84.8777 32.865 85.2473 33.4709C85.6169 34.0769 84.2318 34.856 84.1319 34.8294C84.0321 34.8027 83.3051 34.5397 84.3062 33.5309Z" fill="#FFB27D"/>
<path fill-rule="evenodd" clip-rule="evenodd" d="M84.5924 36.8887C84.5924 36.8887 82.87 38.1749 81.9078 38.3925L81.6159 39.58L84.8455 37.2971L84.5924 36.8887Z" fill="#4F8ECC"/>
<path fill-rule="evenodd" clip-rule="evenodd" d="M76.5274 49.655L77.029 49.0635L83.3927 54.0998L82.9643 54.8867L76.5274 49.655Z" fill="#A0795F"/>
<path fill-rule="evenodd" clip-rule="evenodd" d="M80.6581 41.7563C80.6248 42.2268 80.5804 42.6985 80.525 43.1668C80.4051 44.199 80.2375 45.2222 80.0433 46.2044C79.9745 46.5551 79.9012 46.9003 79.8213 47.2399C79.3774 49.2287 78.7848 50.4583 78.2931 51.2041C77.7848 51.9699 78.6516 53.0675 78.6516 53.0675C78.6516 53.0675 82.7768 55.9774 83.6879 55.7943C83.6879 55.7943 85.4004 51.4394 86.2816 46.9047C86.3493 46.5551 86.4125 46.2033 86.4703 45.8526C87.458 41.9494 86.9918 38.5389 84.841 37.2959C84.7789 37.3281 80.8302 39.2847 80.6581 41.7563Z" fill="#61A0E0"/>
<path fill-rule="evenodd" clip-rule="evenodd" d="M86.2227 47.2295C86.2227 47.2295 84.8443 51.7187 85.3493 56.1724C85.4181 56.775 81.7591 55.006 81.7591 55.006L86.2227 47.2295Z" fill="#61A0E0"/>
<path fill-rule="evenodd" clip-rule="evenodd" d="M82.1242 36.331C82.1242 36.331 82.1242 36.4687 82.1242 36.6795C82.1242 36.7683 82.1242 36.8704 82.1175 36.9803C83.4893 36.6751 83.9798 36.2289 83.9942 36.2156C83.3572 36.3488 82.1242 36.331 82.1242 36.331Z" fill="#F08261"/>
<path fill-rule="evenodd" clip-rule="evenodd" d="M81.8912 38.4619C81.8912 38.4619 81.3175 39.1056 81.2453 39.4086C81.2187 39.5196 81.6326 39.514 81.6326 39.514L81.8912 38.4619Z" fill="#4F8ECC"/>
<path fill-rule="evenodd" clip-rule="evenodd" d="M77.2311 55.6192C77.2921 55.9088 77.3543 56.2129 77.4153 56.5181L80.9334 55.4483C80.9079 55.4483 80.4895 55.5149 79.9579 55.5692C79.4263 55.6236 77.2311 55.6192 77.2311 55.6192Z" fill="#3B5BB3"/>
<path fill-rule="evenodd" clip-rule="evenodd" d="M83.942 40.1113C83.942 40.1113 86.6056 44.757 87.317 47.0088C87.539 47.7157 88.0728 54.0384 88.1682 54.3092C88.2637 54.58 90.4989 54.7753 90.4989 54.7753C90.4989 54.7753 90.0105 46.9322 89.965 46.4683C89.9195 46.0044 86.327 38.6086 85.7322 38.0437C85.1373 37.4788 84.892 37.5998 84.2084 38.1547C83.254 38.9293 83.942 40.1113 83.942 40.1113Z" fill="#4F8ECC"/>
<path fill-rule="evenodd" clip-rule="evenodd" d="M81.3141 39.3799C81.3141 39.3799 80.5184 42.2255 82.7347 43.4308C84.7201 44.5117 87.2461 46.8712 87.8609 48.0998L88.5934 49.679L88.9263 48.1652C88.9263 48.1652 89.0373 45.586 82.8856 43.1711C82.8856 43.1711 80.8813 42.6916 81.7103 39.209C81.707 39.2079 81.3308 39.2312 81.3141 39.3799Z" fill="#4F8ECC"/>
<path fill-rule="evenodd" clip-rule="evenodd" d="M93.8139 57.4344L93.9282 66.9112L83.5548 66.3951L84.315 57.9583L93.8139 57.4344Z" fill="#FBBFA8"/>
<path fill-rule="evenodd" clip-rule="evenodd" d="M95.5608 65.6406C94.911 65.9134 94.3415 66.3473 93.906 66.9014L93.7951 57.4235L94.2578 57.3869L95.5608 65.6406Z" fill="#F57A44"/>
<path fill-rule="evenodd" clip-rule="evenodd" d="M93.814 57.4344L92.824 61.2933C92.6753 61.7228 92.5177 62.1001 91.8163 62.0812L85.1729 62.0269C84.5814 62.0269 84.5514 61.725 84.5237 61.321L84.3383 57.9572L93.814 57.4344Z" fill="#F57A44"/>
<path fill-rule="evenodd" clip-rule="evenodd" d="M89.2482 61.5468L87.559 61.5313C87.5129 61.5303 87.468 61.5462 87.4328 61.5761C87.3976 61.6059 87.3746 61.6477 87.3681 61.6933L87.2216 63.2016C87.2187 63.223 87.2202 63.2448 87.226 63.2656C87.2318 63.2864 87.2419 63.3057 87.2555 63.3225C87.2691 63.3392 87.2861 63.353 87.3052 63.363C87.3244 63.3729 87.3454 63.3788 87.367 63.3803L89.1283 63.4602C89.1747 63.4624 89.2203 63.447 89.2557 63.4169C89.2912 63.3868 89.3139 63.3443 89.3192 63.2981L89.3935 61.7255C89.3966 61.7041 89.3953 61.6822 89.3895 61.6614C89.3837 61.6405 89.3737 61.6211 89.3601 61.6043C89.3464 61.5875 89.3294 61.5737 89.3101 61.5638C89.2909 61.5539 89.2698 61.5481 89.2482 61.5468Z" fill="white"/>
<path fill-rule="evenodd" clip-rule="evenodd" d="M88.9596 61.9672L88.9086 63.0281L87.6678 62.9715L87.7665 61.9561L88.9596 61.9672Z" fill="#F57A44"/>
<path fill-rule="evenodd" clip-rule="evenodd" d="M91.8351 57.5434C91.7007 57.1788 91.4469 56.8706 91.1149 56.6688C90.9637 56.5711 90.8031 56.4889 90.6354 56.4236C90.5245 56.1716 89.9107 55.9874 89.1782 55.9996C88.4014 56.0118 87.7721 56.2416 87.7233 56.519C87.6767 56.5423 87.63 56.5678 87.5845 56.5945C87.1129 56.8697 86.771 57.2792 86.6823 57.8275L87.0396 57.8075C87.0882 57.6129 87.1771 57.4306 87.3006 57.2725C87.4241 57.1144 87.5794 56.984 87.7565 56.8897C87.8054 56.8623 87.8553 56.8357 87.9064 56.8098C88.1594 56.9696 88.6433 57.0728 89.1971 57.0639C89.7764 57.0539 90.2758 56.9241 90.51 56.7421C90.6565 56.7983 90.7968 56.8697 90.9284 56.9552C91.1641 57.1011 91.3522 57.3124 91.47 57.5633L91.8351 57.5434Z" fill="#F57A44"/>
<path fill-rule="evenodd" clip-rule="evenodd" d="M90.3879 57.5743C90.4527 57.463 90.4992 57.3419 90.5255 57.2158C90.5255 57.2158 90.5255 56.9805 90.5255 56.8141C90.5255 56.7608 90.5321 56.7153 90.5366 56.6853C90.5998 56.4579 90.626 56.2219 90.6143 55.9861C90.5921 55.7531 90.4645 55.0828 90.4023 54.7653C90.0904 54.7354 89.1094 54.6344 88.5545 54.4923C88.378 54.8575 87.7643 56.1426 87.7587 56.3934C87.757 56.4212 87.757 56.449 87.7587 56.4767C87.7776 56.7253 87.8974 56.9029 87.9218 57.0316C87.9318 57.0793 88.0573 57.5454 88.1882 57.6043C88.2583 57.6433 88.3372 57.6638 88.4174 57.6638C88.4976 57.6638 88.5765 57.6433 88.6466 57.6043C88.6466 57.6043 89.0095 57.7508 89.2614 57.672C89.3603 57.7129 89.4672 57.7306 89.574 57.7236C89.6808 57.7167 89.7846 57.6854 89.8774 57.632C89.8774 57.632 90.2381 57.7385 90.3879 57.5743Z" fill="#FFB27D"/>
<path fill-rule="evenodd" clip-rule="evenodd" d="M83.2008 31.2596C82.6266 30.3673 82.6599 29.7924 83.3006 29.535C84.9343 29.9153 86.1962 30.6596 87.0862 31.7679C86.3486 31.3551 85.0534 31.1856 83.2008 31.2596Z" fill="#284191"/>
<path fill-rule="evenodd" clip-rule="evenodd" d="M82.3662 31.0492C82.0554 30.9183 81.8768 30.9597 81.8301 31.1735C82.0005 31.6224 82.3198 31.9993 82.7346 32.2412C82.5659 32.0325 82.4431 31.6352 82.3662 31.0492Z" fill="#284191"/>
<path fill-rule="evenodd" clip-rule="evenodd" d="M82.6125 30.8269C82.3017 30.6952 82.123 30.737 82.0764 30.9523C82.2469 31.4009 82.5662 31.7774 82.9809 32.0189C82.8122 31.8124 82.6894 31.4151 82.6125 30.8269Z" fill="#284191"/>
<path fill-rule="evenodd" clip-rule="evenodd" d="M86.257 34.0749C86.0129 33.5836 85.7484 33.4456 85.4635 33.6609C85.1994 34.4888 85.1953 35.2476 85.4513 35.9371C85.4632 35.4991 85.7317 34.8784 86.257 34.0749Z" fill="#284191"/>
<path fill-rule="evenodd" clip-rule="evenodd" d="M53.1148 38.8368C51.589 38.8368 50.0974 39.2892 48.8288 40.137C47.5601 40.9847 46.5714 42.1895 45.9875 43.5992C45.4037 45.0089 45.251 46.56 45.5487 48.0565C45.8465 49.553 46.5813 50.9275 47.6603 52.0064C48.7393 53.0852 50.1139 53.8198 51.6104 54.1174C53.1069 54.4149 54.6581 54.262 56.0677 53.6779C57.4773 53.0939 58.682 52.1049 59.5295 50.8362C60.3771 49.5674 60.8293 48.0758 60.8291 46.55C60.8291 45.537 60.6296 44.5339 60.2419 43.598C59.8542 42.6621 59.2859 41.8118 58.5695 41.0955C57.8532 40.3793 57.0028 39.8112 56.0668 39.4236C55.1309 39.036 54.1278 38.8366 53.1148 38.8368Z" fill="#FC9774"/>
<path d="M53.1148 54.4362C51.5564 54.4362 50.0329 53.974 48.7371 53.1082C47.4413 52.2424 46.4313 51.0117 45.8349 49.5719C45.2385 48.1321 45.0825 46.5477 45.3865 45.0192C45.6906 43.4907 46.441 42.0867 47.543 40.9847C48.645 39.8827 50.0491 39.1322 51.5776 38.8282C53.1061 38.5241 54.6904 38.6802 56.1302 39.2766C57.5701 39.873 58.8007 40.8829 59.6666 42.1787C60.5324 43.4745 60.9945 44.998 60.9945 46.5565C60.991 48.6452 60.1597 50.6474 58.6827 52.1244C57.2057 53.6013 55.2036 54.4326 53.1148 54.4362ZM53.1148 39.0097C51.6222 39.0097 50.1631 39.4523 48.9221 40.2816C47.681 41.1108 46.7137 42.2895 46.1425 43.6684C45.5713 45.0474 45.4219 46.5648 45.7131 48.0288C46.0043 49.4927 46.723 50.8374 47.7784 51.8928C48.8339 52.9483 50.1786 53.667 51.6425 53.9582C53.1064 54.2494 54.6238 54.1 56.0028 53.5288C57.3818 52.9576 58.5605 51.9903 59.3897 50.7492C60.219 49.5082 60.6616 48.0491 60.6616 46.5565C60.6604 44.5551 59.865 42.636 58.45 41.2206C57.035 39.8052 55.1162 39.0093 53.1148 39.0075V39.0097Z" fill="white"/>
<path fill-rule="evenodd" clip-rule="evenodd" d="M60.4605 53.593L54.1523 47.9251L52.9038 49.3158L50.1093 43.2628L56.4352 45.3848L55.1767 46.7865L61.4838 52.4543L60.4605 53.593Z" fill="white"/>
<path d="M60.474 53.8305L54.1658 48.1638L52.8573 49.6188L49.7909 42.9765L56.7339 45.3071L55.4155 46.7754L61.7226 52.4422L60.474 53.8305ZM54.1403 47.6855L60.4485 53.3555L61.2453 52.4677L54.9382 46.7998L56.1379 45.4681L50.4268 43.5525L52.9494 49.0173L54.1403 47.6855Z" fill="white"/>
<path fill-rule="evenodd" clip-rule="evenodd" d="M27.5546 9.62871H35.6408L35.0515 17.8203C34.7563 22.5925 31.8419 24.5114 27.5546 24.8487C23.2674 24.5158 20.3541 22.5958 20.0578 17.8203L19.4685 9.62871H27.5546Z" fill="#A4D0FC"/>
<path fill-rule="evenodd" clip-rule="evenodd" d="M26.2494 24.6885C26.2039 33.5315 23.6502 31.4151 23.9066 35.7866H31.2025C31.4589 31.4184 28.9052 33.5348 28.8597 24.6885C28.4402 24.7625 28.0051 24.8161 27.5545 24.8494C27.1039 24.8139 26.6678 24.7606 26.2494 24.6885Z" fill="#8BBAE9"/>
<path fill-rule="evenodd" clip-rule="evenodd" d="M27.5545 37.3449H33.2101L34.1379 43.3324H27.5545H20.971L21.8977 37.3449H27.5545Z" fill="#8BBAE9"/>
<path fill-rule="evenodd" clip-rule="evenodd" d="M27.5545 37.3449H30.9528L31.5099 43.3324H27.5545H23.5991L24.1563 37.3449H27.5545Z" fill="#A4D0FC"/>
<path fill-rule="evenodd" clip-rule="evenodd" d="M21.6779 35.7842H33.2633C33.4688 35.7859 33.6654 35.8683 33.8107 36.0136C33.956 36.159 34.0384 36.3556 34.0402 36.5611C34.0387 36.7666 33.9564 36.9634 33.811 37.1088C33.6656 37.2542 33.4689 37.3365 33.2633 37.3379H21.6779C21.4723 37.3365 21.2756 37.2542 21.1302 37.1088C20.9848 36.9634 20.9025 36.7666 20.9011 36.5611C20.9028 36.3556 20.9852 36.159 21.1305 36.0136C21.2758 35.8683 21.4724 35.7859 21.6779 35.7842Z" fill="#C3DFFA"/>
<path fill-rule="evenodd" clip-rule="evenodd" d="M19.2919 8.07617H35.8193C36.0249 8.07762 36.2217 8.15994 36.3671 8.30532C36.5124 8.45069 36.5947 8.64745 36.5962 8.85304C36.5962 9.05908 36.5143 9.25669 36.3687 9.40238C36.223 9.54807 36.0254 9.62992 35.8193 9.62992H19.2919C19.0864 9.62846 18.8896 9.54615 18.7442 9.40077C18.5988 9.25539 18.5165 9.05863 18.5151 8.85304C18.5151 8.647 18.5969 8.4494 18.7426 8.30371C18.8883 8.15802 19.0859 8.07617 19.2919 8.07617Z" fill="#A4D0FC"/>
<path fill-rule="evenodd" clip-rule="evenodd" d="M35.6063 10.085H40.4018C40.9567 17.2599 38.605 20.8957 33.9205 21.6981C34.3684 20.9751 34.6823 20.1774 34.8472 19.3431C37.9935 18.1123 39.4574 15.2645 39.3497 11.1704H35.5275L35.6063 10.085Z" fill="#99C5F2"/>
<path fill-rule="evenodd" clip-rule="evenodd" d="M19.5006 10.085H14.7051C14.1502 17.2599 16.5008 20.8957 21.1864 21.6981C20.7385 20.9751 20.4246 20.1774 20.2597 19.3431C17.1134 18.1123 15.6495 15.2645 15.7572 11.1704H19.5783L19.5006 10.085Z" fill="#99C5F2"/>
<path fill-rule="evenodd" clip-rule="evenodd" d="M19.5784 11.171L20.0578 17.821C20.0882 18.3328 20.1557 18.8417 20.2598 19.3437C20.4247 20.178 20.7386 20.9758 21.1865 21.6987C22.2553 23.3845 24.0154 24.3057 26.2495 24.6886C26.4715 24.727 26.699 24.7603 26.9321 24.7884C24.2285 23.9006 22.4928 21.9229 22.2653 18.2916L21.6748 10.1033H35.6064V10.0856L35.6386 9.63168H19.4685L19.5007 10.0856L19.5784 11.171Z" fill="#8BBAE9"/>
<path fill-rule="evenodd" clip-rule="evenodd" d="M33.4676 10.9316L32.976 17.7415C32.7418 21.5371 30.6731 23.1052 27.2049 23.5036C27.3459 23.5203 27.489 23.5347 27.6355 23.5469C31.3601 23.2295 33.5919 21.6924 33.835 17.7415L34.3266 10.9316H33.4676Z" fill="#DFEDFA"/>
<path fill-rule="evenodd" clip-rule="evenodd" d="M25.4513 14.7433V13.6068L25.691 13.5258L25.7443 13.5747C26.0765 13.5624 26.4003 13.4674 26.6865 13.2983C26.9687 13.1512 27.1879 12.9067 27.3036 12.6102L27.5433 12.5292L28.2658 12.6102V18.742C28.2658 18.9539 28.3213 19.0949 28.4345 19.1637C28.5477 19.2325 29.0005 18.9284 29.1725 19.2658L29.7064 20.309L29.4666 20.39H25.4513V19.2658L25.691 19.1848L25.802 19.2658C26.1261 19.5066 26.4679 19.2292 26.5933 19.1548C26.7187 19.0805 26.7809 18.8762 26.7809 18.5311V14.7433H25.4513Z" fill="#8BBAE9"/>
<path fill-rule="evenodd" clip-rule="evenodd" d="M25.6912 14.6623V13.5258C26.2106 13.4825 26.6212 13.3804 26.9264 13.2162C27.2106 13.0722 27.4307 12.8272 27.5435 12.5292H28.5034V18.6609C28.5034 18.8718 28.5589 19.0139 28.6721 19.0827C28.7853 19.1515 29.0317 19.1848 29.4102 19.1848H29.7043V20.309H25.6889V19.1848H26.0385C26.4425 19.1848 26.7044 19.1481 26.8298 19.0738C26.9552 18.9994 27.0174 18.7952 27.0174 18.4501V14.6623H25.6912Z" fill="white"/>
<path fill-rule="evenodd" clip-rule="evenodd" d="M41.8868 26.8131C39.9279 25.7321 39.7537 22.6146 41.8168 21.5681C42.0699 21.4394 42.4483 21.2351 42.7302 21.1996C42.8734 21.1785 43.809 21.2995 43.7979 21.5093C43.8334 20.7945 44.3628 20.1853 44.9798 19.8224C46.5336 18.9112 48.7421 19.3906 49.7764 20.8611C50.8108 22.3316 50.5112 24.5768 49.1294 25.7255C49.4067 25.6016 49.7167 25.5716 50.0126 25.6401C50.3084 25.7086 50.5738 25.8718 50.7683 26.1049C50.9629 26.3381 51.076 26.6283 51.0905 26.9316C51.105 27.235 51.02 27.5347 50.8485 27.7853C51.5744 27.3658 52.6131 27.6233 53.0604 28.3335C54.1703 28.0972 55.3253 28.1933 56.381 28.6099C56.6219 28.6865 56.837 28.8282 57.0025 29.0194C57.1534 29.2214 57.1878 29.5299 57.0169 29.7141C56.8968 29.8232 56.7453 29.8916 56.5841 29.9095C55.9792 30.0304 55.3577 30.0338 54.7406 30.0371L46.0952 30.0782C45.8044 30.0782 45.5037 30.0782 45.2395 29.9594C44.9754 29.8407 44.7567 29.5665 44.7956 29.2791C44.3815 29.6272 43.8783 29.8525 43.3428 29.9294C42.8079 29.9872 42.233 29.824 41.8712 29.4267C40.1854 29.8821 38.424 29.9868 36.6962 29.7341C36.4095 29.7105 36.1317 29.6237 35.8826 29.48C35.6429 29.3235 35.4665 29.036 35.5197 28.7553C35.573 28.4745 35.8416 28.2714 36.1224 28.2092C36.4075 28.1664 36.6984 28.1826 36.9769 28.257C36.866 27.7087 37.1989 27.1416 37.6661 26.8342C38.1334 26.5268 38.7116 26.4402 39.2709 26.4224C40.1592 26.3949 41.0453 26.5272 41.8868 26.8131Z" fill="white"/>
<path fill-rule="evenodd" clip-rule="evenodd" d="M36.1233 28.208C35.8426 28.2702 35.574 28.4722 35.5207 28.754C35.4674 29.0359 35.6439 29.3223 35.8836 29.4788C36.1327 29.6225 36.4105 29.7093 36.6971 29.7329C38.425 29.9855 40.1864 29.8809 41.8722 29.4255C42.2362 29.8228 42.8089 29.9804 43.3438 29.9282C43.8793 29.8512 44.3825 29.626 44.7966 29.2779C44.7566 29.5653 44.9741 29.8383 45.2405 29.9582C45.5069 30.0781 45.8054 30.0781 46.0962 30.0769L54.7416 30.0359C55.3587 30.0359 55.9802 30.0292 56.585 29.9083C56.7463 29.8904 56.8978 29.822 57.0179 29.7129C57.1888 29.5287 57.1544 29.2202 57.0034 29.0182C56.9473 28.9448 56.8798 28.8807 56.8037 28.8284C55.928 29.0837 54.9603 28.9915 54.0491 28.8284C53.7383 28.7729 53.4054 28.6986 53.1923 28.4644C53.1548 28.423 53.1238 28.3763 53.1002 28.3257L53.0603 28.3334C52.6163 27.6231 51.5742 27.3657 50.8484 27.7852C51.0219 27.5346 51.1085 27.2342 51.095 26.9297C51.0815 26.6253 50.9686 26.3337 50.7736 26.0995C50.5786 25.8654 50.3122 25.7016 50.0152 25.6332C49.7183 25.5648 49.4071 25.5956 49.1293 25.7209C50.1614 24.8619 50.5898 23.3903 50.3079 22.0896C50.1758 22.9852 49.864 23.8653 49.3091 24.57C48.651 25.4091 47.6233 25.9917 46.5578 25.9617C46.4806 25.4123 46.2735 24.8892 45.9536 24.4359C45.6338 23.9825 45.2105 23.6119 44.7189 23.3548C45.2527 23.7621 45.266 24.6499 44.8099 25.1427C44.3537 25.6355 43.5536 25.7198 42.9498 25.4268C42.3461 25.1338 41.9344 24.5223 41.7757 23.8731C41.5404 22.9031 41.8722 22.0863 42.3794 21.3027C42.1796 21.3815 41.9754 21.4881 41.8189 21.568C39.7558 22.6145 39.9322 25.732 41.8889 26.813C41.6791 26.7408 41.466 26.6798 41.2496 26.6276C40.5404 26.8141 39.7536 26.9317 39.051 27.1226C38.3097 27.3246 37.565 27.7818 37.3397 28.5177C37.226 28.4226 37.1058 28.3354 36.9801 28.2568C36.7009 28.1818 36.4092 28.1652 36.1233 28.208Z" fill="#F0F3FA"/>
<path fill-rule="evenodd" clip-rule="evenodd" d="M41.8867 26.813C39.9279 25.732 39.7536 22.6145 41.8168 21.568C41.9733 21.4881 42.1775 21.3815 42.3773 21.3027C41.3451 21.8044 40.8102 22.9952 40.7924 24.1428C40.7824 24.7365 40.8857 25.3636 41.2741 25.8175C41.6237 26.2237 42.1619 26.4268 42.7013 26.4589C43.2407 26.4911 43.7678 26.369 44.2795 26.2137C43.6735 26.7863 42.6159 27.2158 41.8867 26.813Z" fill="#E5EEF3"/>
<path fill-rule="evenodd" clip-rule="evenodd" d="M50.8485 27.7846C51.0215 27.534 51.1077 27.2337 51.0939 26.9296C51.0802 26.6254 50.9672 26.3341 50.7723 26.1002C50.5774 25.8663 50.3113 25.7027 50.0146 25.6343C49.7179 25.5659 49.407 25.5965 49.1294 25.7214C49.5345 25.6471 49.9218 26.0288 50.0028 26.4339C50.0838 26.839 49.9162 27.2563 49.6699 27.5903C49.5737 27.733 49.4481 27.8534 49.3014 27.9433C49.0794 28.072 48.7998 28.0776 48.5401 28.0653C47.9441 28.0365 47.2693 27.87 46.9941 27.3395C46.9419 27.7479 47.2227 28.1441 47.5834 28.3384C47.9441 28.5326 48.3692 28.577 48.7809 28.5859C49.1705 28.6058 49.5607 28.5642 49.9373 28.4627C50.309 28.3461 50.6302 28.1071 50.8485 27.7846Z" fill="#E5EEF3"/>
<path fill-rule="evenodd" clip-rule="evenodd" d="M57.0023 29.0177C57.1532 29.2197 57.1876 29.5282 57.0167 29.7124C56.8966 29.8215 56.7451 29.8899 56.5839 29.9078C55.9791 30.0287 55.3575 30.0321 54.7405 30.0354L46.095 30.0765C45.8042 30.0765 45.5035 30.0765 45.2394 29.9577C44.9752 29.839 44.7566 29.5648 44.7954 29.2774C45.2516 29.5992 45.7943 29.6625 46.3547 29.6825C47.0306 29.7069 47.7154 29.7069 48.3724 29.5493C49.0294 29.3917 49.6653 29.0632 50.0826 28.5305C50.105 28.7522 50.0663 28.9759 49.9706 29.1772C49.8749 29.3785 49.726 29.5498 49.5399 29.6725C51.4898 29.4328 53.4653 29.6581 55.4297 29.6203C56.0035 29.6048 56.7914 29.5493 57.0023 29.0177Z" fill="#E5EEF3"/>
<path fill-rule="evenodd" clip-rule="evenodd" d="M44.7966 29.2779C44.3825 29.626 43.8793 29.8513 43.3438 29.9283C42.8089 29.986 42.234 29.8228 41.8722 29.4255C40.1864 29.8809 38.425 29.9856 36.6971 29.7329C36.4105 29.7093 36.1327 29.6225 35.8836 29.4788C35.6439 29.3223 35.4674 29.0349 35.5207 28.7541C35.7504 29.198 36.3531 29.2946 36.8525 29.3367C37.4277 29.3852 38.007 29.3436 38.5694 29.2135C38.3049 29.157 38.0644 29.0197 37.8813 28.8207C39.4307 29.1946 41.0595 29.0592 42.5259 28.4344C42.4648 28.7152 42.6368 29.0115 42.8932 29.1525C43.1541 29.2808 43.4518 29.3138 43.7345 29.2457C44.2019 29.144 44.6226 28.8906 44.931 28.5248C45.2393 28.1591 45.418 27.7016 45.4392 27.2236C45.5879 27.9206 45.3548 28.8362 44.7966 29.2779Z" fill="#E5EEF3"/>
<path fill-rule="evenodd" clip-rule="evenodd" d="M100.852 35.5729C99.9545 35.8404 99.1421 36.5096 98.9135 37.3575C98.4008 37.1555 97.8281 37.0423 97.2998 37.1999C96.7715 37.3575 96.3188 37.8469 96.3421 38.3974C95.8715 38.2964 95.3932 38.1965 94.9148 38.242C94.4565 38.2864 93.956 38.4984 93.6829 38.8868C93.592 39.0061 93.5521 39.1565 93.572 39.3052C93.2046 39.0555 92.7152 38.9978 92.2823 39.0477C92.0297 39.066 91.7881 39.1583 91.5876 39.313C91.4891 39.3917 91.4146 39.4964 91.3725 39.6153C91.3303 39.7341 91.3222 39.8623 91.349 39.9855C91.4666 40.4084 92.0071 40.5149 92.4444 40.5404L94.8771 40.7014C97.1256 40.8512 99.3885 40.9988 101.628 40.7491C101.811 40.728 102.025 40.6836 102.101 40.5149C102.176 40.3462 102.074 40.1698 101.93 40.071C101.779 39.9904 101.611 39.9467 101.439 39.9434H104.518C105.339 39.9434 106.161 39.9434 106.983 39.9356C107.845 39.9267 108.726 39.9012 109.536 39.6026C109.693 39.5449 109.868 39.4528 109.897 39.2875C109.903 39.2066 109.881 39.1264 109.834 39.0598C109.788 38.9933 109.721 38.9444 109.643 38.9212C109.487 38.8788 109.323 38.8735 109.165 38.9057C109.573 38.8868 109.72 38.2686 109.442 37.9646C109.165 37.6605 108.694 37.6383 108.298 37.7359C107.902 37.8336 107.529 38.0311 107.124 38.09C106.974 37.8055 106.754 37.5636 106.486 37.3867C106.217 37.2097 105.909 37.1035 105.588 37.0778C105.207 37.0578 103.866 37.2998 103.753 37.777C103.968 36.8614 103.331 35.8725 102.445 35.5574C101.926 35.395 101.368 35.4004 100.852 35.5729Z" fill="white"/>
<path fill-rule="evenodd" clip-rule="evenodd" d="M93.6829 38.8862C93.592 39.0055 93.5521 39.156 93.572 39.3046C93.2046 39.0549 92.7152 38.9972 92.2823 39.0472C92.0297 39.0654 91.7881 39.1577 91.5876 39.3124C91.4891 39.3912 91.4146 39.4959 91.3725 39.6147C91.3303 39.7335 91.3222 39.8618 91.349 39.985C91.4666 40.4078 92.0071 40.5143 92.4444 40.5399L94.8771 40.7008C97.1256 40.8506 99.3885 40.9982 101.628 40.7485C101.811 40.7274 102.025 40.683 102.101 40.5143C102.176 40.3456 102.074 40.1692 101.93 40.0704C101.779 39.9899 101.611 39.9461 101.439 39.9428H104.518C105.339 39.9428 106.161 39.9428 106.983 39.935C107.845 39.9261 108.726 39.9006 109.536 39.6021C109.693 39.5444 109.868 39.4522 109.897 39.2869C109.903 39.2061 109.881 39.1258 109.834 39.0593C109.788 38.9927 109.721 38.9439 109.643 38.9206C109.487 38.8783 109.323 38.8729 109.165 38.9051C109.573 38.8862 109.72 38.2681 109.442 37.964C109.165 37.6599 108.694 37.6377 108.298 37.7354C107.902 37.833 107.529 38.0306 107.124 38.0894C106.998 37.8526 106.823 37.6447 106.612 37.479C106.357 37.9871 105.955 38.4062 105.457 38.6809C104.77 39.0549 103.829 39.0938 103.093 38.8296C103.406 38.5201 103.64 38.1393 103.773 37.7198C103.765 37.7388 103.758 37.7585 103.753 37.7786C103.828 37.4414 103.799 37.0895 103.671 36.7687C103.561 37.2227 103.358 37.6492 103.076 38.0217C102.691 38.4978 102.056 38.8152 101.462 38.6687C101.194 38.5947 100.95 38.4555 100.749 38.2636C100.434 37.9687 100.205 37.593 100.087 37.1773C99.9699 36.7616 99.9685 36.3217 100.083 35.9053C99.5206 36.2471 99.0733 36.7532 98.9135 37.348C98.9143 37.6369 98.9737 37.9225 99.0882 38.1877C99.2026 38.4529 99.3697 38.692 99.5794 38.8907C98.6492 39.1716 97.6549 39.158 96.7327 38.8518C97.0017 39.2081 97.3779 39.4687 97.8059 39.5954C96.8972 39.9125 95.9049 39.8932 95.0092 39.541C94.7628 39.4423 94.5053 39.2969 94.4176 39.0472C94.33 38.7975 94.4509 38.5045 94.6451 38.3191C94.6655 38.2998 94.687 38.2816 94.7095 38.2647C94.3015 38.3358 93.9351 38.5577 93.6829 38.8862Z" fill="#F0F3FA"/>
<path fill-rule="evenodd" clip-rule="evenodd" d="M109.166 38.9168C109.575 38.8979 109.721 38.2797 109.444 37.9756C109.166 37.6716 108.696 37.6494 108.299 37.747C108.44 37.7424 108.581 37.7698 108.71 37.8269C108.769 37.8568 108.82 37.8999 108.86 37.9528C108.9 38.0058 108.926 38.0671 108.939 38.1321C108.946 38.2027 108.937 38.274 108.913 38.3408C108.815 38.6382 108.536 38.8457 108.242 38.9545C107.798 39.1176 107.314 39.1021 106.843 39.0843C107.622 39.1876 108.381 38.9534 109.166 38.9168Z" fill="#E5EEF3"/>
<path fill-rule="evenodd" clip-rule="evenodd" d="M101.931 40.0792C102.075 40.1724 102.172 40.3622 102.102 40.5231C102.032 40.684 101.812 40.7362 101.629 40.7573C99.3896 41.007 97.1267 40.8594 94.8782 40.7096L92.4455 40.5486C92.0082 40.5198 91.4678 40.4132 91.3501 39.9937C91.3233 39.8705 91.3314 39.7423 91.3736 39.6235C91.4158 39.5046 91.4903 39.3999 91.5887 39.3212C91.4999 39.4954 91.5776 39.7107 91.7108 39.8539C91.8546 39.9882 92.0297 40.0844 92.2202 40.1336C93.0714 40.4033 93.9848 40.3677 94.8771 40.3311C94.7346 40.3103 94.5989 40.2565 94.4808 40.174C94.3627 40.0916 94.2655 39.9827 94.1968 39.8561C95.3277 40.36 96.6029 40.401 97.8403 40.4354C98.5928 40.4554 99.3541 40.4754 100.087 40.3056C99.7327 40.3106 99.3861 40.2047 99.0955 40.0026C100.05 40.1902 100.99 40.33 101.931 40.0792Z" fill="#E5EEF3"/>
<path fill-rule="evenodd" clip-rule="evenodd" d="M101.441 39.951H104.519C105.34 39.951 106.162 39.951 106.984 39.9433C107.846 39.9344 108.728 39.9089 109.537 39.6103C109.694 39.5526 109.87 39.4605 109.898 39.2951C109.904 39.2143 109.882 39.1341 109.836 39.0675C109.789 39.001 109.722 38.9521 109.644 38.9289C109.644 39.0543 109.539 39.1586 109.433 39.2263C109.323 39.2869 109.203 39.3271 109.078 39.3451C107.687 39.6192 106.259 39.6137 104.842 39.6081C104.287 39.6081 103.7 39.5915 103.243 39.2818C102.71 39.6725 102.1 39.9388 101.441 39.951Z" fill="#E5EEF3"/>
<path fill-rule="evenodd" clip-rule="evenodd" d="M39.6992 37.0154C40.081 36.2075 41.233 35.8856 41.9788 36.3795C42.1952 36.0959 42.4854 35.8772 42.8176 35.7472C43.1499 35.6172 43.5114 35.581 43.8629 35.6425C44.2143 35.704 44.5421 35.8608 44.8105 36.0959C45.0789 36.3309 45.2776 36.6352 45.3848 36.9755C45.7622 36.9133 46.1916 37.0976 46.3304 37.4527C46.4691 37.8078 46.2016 38.2851 45.8199 38.2817C45.6944 38.2817 45.5668 38.2329 45.4458 38.2662C45.3512 38.3008 45.2658 38.3566 45.1961 38.4293C44.2384 39.2506 42.6047 39.0952 41.8256 38.0964C41.5427 38.3275 41.1873 38.4516 40.8219 38.4467C40.4566 38.4418 40.1047 38.3084 39.828 38.0698C39.9001 38.1352 39.0755 38.3073 38.9823 38.2917C38.6815 38.2451 38.3042 38.0631 38.2531 37.7279C38.1433 37.0288 39.2109 36.6814 39.6992 37.0154Z" fill="white"/>
<path fill-rule="evenodd" clip-rule="evenodd" d="M38.2487 37.7308C38.2998 38.0638 38.6771 38.248 38.9779 38.2946C39.0711 38.309 39.8957 38.137 39.8236 38.0726C40.1003 38.3112 40.4522 38.4447 40.8176 38.4496C41.1829 38.4545 41.5383 38.3304 41.8212 38.0993C42.5981 39.0914 44.234 39.2524 45.1918 38.4322C45.2614 38.3595 45.3469 38.3037 45.4415 38.2691C45.5624 38.2358 45.6901 38.2824 45.8155 38.2846C46.1972 38.2846 46.4647 37.8118 46.326 37.4556C46.1873 37.0993 45.7578 36.9162 45.3804 36.9784C45.313 36.7669 45.209 36.5689 45.073 36.3935C45.0913 36.5939 45.0693 36.7959 45.0083 36.9876C44.9473 37.1794 44.8485 37.357 44.7179 37.51C44.5777 37.6725 44.3991 37.7976 44.1985 37.874C43.9022 37.9623 43.5892 37.9794 43.2851 37.9239C43.0786 37.9081 42.8767 37.8551 42.6891 37.7674C42.5959 37.7222 42.5143 37.6563 42.4504 37.5748C42.3866 37.4932 42.3422 37.3982 42.3207 37.2969C42.3061 37.1205 42.349 36.9442 42.4427 36.7941C42.5721 36.5575 42.748 36.3495 42.9599 36.1826C42.678 36.2336 42.4142 36.3568 42.1942 36.5403C41.9742 36.7237 41.8055 36.9611 41.7047 37.2292C41.6843 37.3077 41.6464 37.3806 41.5937 37.4423C41.5418 37.4843 41.4805 37.5132 41.4151 37.5266C41.1 37.6144 40.773 37.6518 40.4462 37.6376C40.1721 37.6265 39.8658 37.5577 39.7204 37.3246C39.6753 37.3977 39.6161 37.461 39.5461 37.5107C39.4761 37.5605 39.3969 37.5957 39.313 37.6143C39.2285 37.6299 39.1412 37.614 39.0676 37.5696C38.994 37.5252 38.9392 37.4555 38.9135 37.3734C38.904 37.3062 38.9129 37.2377 38.9393 37.1752C38.9657 37.1126 39.0086 37.0584 39.0633 37.0183C39.1011 36.9872 39.2365 36.9395 39.313 36.8907C38.8036 36.8496 38.1666 37.1803 38.2487 37.7308Z" fill="#F0F3FA"/>
<path fill-rule="evenodd" clip-rule="evenodd" d="M41.8212 38.0976C42.5981 39.0898 44.234 39.2507 45.1918 38.4305C45.2614 38.3578 45.3469 38.302 45.4415 38.2674C45.5624 38.2341 45.69 38.2807 45.8155 38.2829C46.1972 38.2829 46.4647 37.8101 46.326 37.4539C46.2865 37.5785 46.2199 37.6929 46.1311 37.7888C46.0423 37.8847 45.9333 37.9598 45.8121 38.0088C45.6948 38.058 45.5677 38.0796 45.4407 38.0719C45.3137 38.0642 45.1902 38.0274 45.0797 37.9644C45.0343 38.0907 44.962 38.2058 44.868 38.3016C44.7739 38.3973 44.6602 38.4716 44.5347 38.5193C44.2824 38.6143 44.014 38.6592 43.7445 38.6514C43.5585 38.6577 43.3723 38.6428 43.1896 38.607C42.8803 38.5231 42.5879 38.3864 42.3251 38.203C42.1031 38.0643 41.8689 37.8923 41.8201 37.637C41.8212 37.778 41.8334 37.9622 41.8212 38.0976Z" fill="#E5EEF3"/>
<path fill-rule="evenodd" clip-rule="evenodd" d="M41.8212 38.0988C41.5383 38.33 41.1829 38.454 40.8176 38.4491C40.4522 38.4443 40.1003 38.3108 39.8236 38.0722C39.8957 38.1377 39.0711 38.3097 38.9779 38.2942C38.6771 38.2475 38.2998 38.0655 38.2487 37.7304C38.1666 37.1755 38.8036 36.8492 39.3186 36.8913C39.0644 36.9546 38.8048 37.0512 38.6705 37.2764C38.5362 37.5017 38.5595 37.8314 38.7815 37.9823C38.9318 38.069 39.1093 38.0959 39.2787 38.0578C39.484 38.0267 39.7037 37.9468 39.798 37.7592C40.0558 38.0145 40.3962 38.1692 40.758 38.1954C41.1152 38.2155 41.4735 38.183 41.8212 38.0988Z" fill="#E5EEF3"/>
<path fill-rule="evenodd" clip-rule="evenodd" d="M43.315 8.08526C43.485 8.01487 43.6703 7.98992 43.8529 8.01289C44.0354 8.03585 44.2088 8.10592 44.356 8.21622C44.3248 7.83664 44.4164 7.45706 44.6174 7.13354C44.8184 6.81002 45.118 6.55969 45.4722 6.4195C45.8263 6.27932 46.2161 6.25671 46.5841 6.35501C46.952 6.45332 47.2787 6.66733 47.5157 6.96545C47.8564 5.81346 48.9684 4.89898 50.1704 4.90452C51.3723 4.91007 52.5176 5.92445 52.562 7.12416C52.8894 6.69355 53.5087 6.64028 54.0492 6.65914C54.5896 6.67801 55.159 6.74904 55.5718 7.09641C56.1556 7.59139 56.2111 8.45927 56.18 9.22283C56.8459 8.9143 57.6994 8.93427 58.2465 9.42148C58.7936 9.90869 58.8636 10.8975 58.2876 11.3503C57.8048 11.7299 57.1123 11.6345 56.5119 11.488C56.0058 12.3314 55.1801 13.0006 54.2279 13.2293C53.2756 13.4579 52.1913 13.2093 51.4944 12.5156C51.2301 12.8887 50.8692 13.1826 50.4504 13.366C50.0316 13.5493 49.5707 13.6151 49.1174 13.5562C48.664 13.4973 48.2353 13.316 47.8772 13.0318C47.5191 12.7476 47.2453 12.3711 47.0851 11.943C46.795 12.1425 46.4531 12.2532 46.1011 12.2615C45.7491 12.2699 45.4024 12.1755 45.1031 11.99C44.8039 11.8045 44.5652 11.5359 44.4162 11.2169C44.2671 10.8979 44.2142 10.5425 44.2639 10.1939C44.0629 10.3296 43.8232 10.3962 43.581 10.3838C43.3388 10.3714 43.1072 10.2806 42.921 10.1251C42.2918 9.57463 42.5659 8.40822 43.315 8.08526Z" fill="white"/>
<path fill-rule="evenodd" clip-rule="evenodd" d="M45.477 6.43008C45.1284 6.57547 44.8334 6.82536 44.6326 7.14536C44.4319 7.46535 44.3353 7.83971 44.3561 8.21689C44.2089 8.10659 44.0355 8.03651 43.8529 8.01355C43.6704 7.99059 43.4851 8.01554 43.3151 8.08593C42.566 8.40667 42.2918 9.5753 42.9255 10.1302C43.1117 10.2857 43.3433 10.3765 43.5855 10.3889C43.8277 10.4013 44.0674 10.3347 44.2684 10.199C44.2187 10.5476 44.2716 10.903 44.4207 11.222C44.5697 11.541 44.8084 11.8096 45.1076 11.9951C45.4069 12.1806 45.7537 12.275 46.1056 12.2666C46.4576 12.2583 46.7995 12.1476 47.0896 11.9481C47.2498 12.3763 47.5237 12.7527 47.8817 13.0369C48.2398 13.3211 48.6685 13.5024 49.1219 13.5613C49.5753 13.6202 50.0361 13.5544 50.4549 13.3711C50.8737 13.1878 51.2346 12.8938 51.4989 12.5208C52.1958 13.2144 53.2746 13.463 54.2324 13.2344C55.1901 13.0057 56.0081 12.3365 56.5164 11.4931C57.1123 11.6396 57.8049 11.735 58.2921 11.3554C58.8681 10.9026 58.7982 9.91268 58.251 9.42658C57.7039 8.94048 56.8482 8.9194 56.1845 9.22793C56.21 8.60865 56.1779 7.92057 55.8516 7.41893C55.8807 8.1139 55.7505 8.80632 55.4709 9.44323C55.3444 9.73068 55.1779 10.0148 54.916 10.1879C54.685 10.3203 54.4278 10.4006 54.1624 10.4232C53.648 10.4966 53.1282 10.5263 52.6087 10.512C52.3113 10.5031 51.9672 10.4521 51.8163 10.1957C52.0922 9.79349 52.2552 9.32468 52.2884 8.83806C52.3216 8.35145 52.2237 7.86484 52.005 7.42891C51.6332 8.40111 50.7575 9.21794 49.7221 9.32337C48.6866 9.4288 47.5779 8.67968 47.4625 7.64533C47.3875 7.93976 47.3784 8.24711 47.436 8.54544C47.4935 8.84376 47.6163 9.1257 47.7954 9.37109C47.279 9.49659 46.7364 9.45977 46.2417 9.26566C45.7844 9.08587 45.3616 8.74294 45.224 8.26682C45.0864 7.79071 45.2795 7.24025 45.6246 6.86846C45.849 6.64477 46.1122 6.46387 46.4015 6.33464C46.0904 6.28244 45.7709 6.31542 45.477 6.43008Z" fill="#F0F3FA"/>
<path fill-rule="evenodd" clip-rule="evenodd" d="M58.2465 9.42621C58.7937 9.91342 58.8636 10.9023 58.2876 11.3551C57.8048 11.7346 57.1123 11.6392 56.5119 11.4927C56.0058 12.3361 55.1801 13.0054 54.2279 13.234C53.2757 13.4626 52.1914 13.214 51.4944 12.5204C51.2301 12.8934 50.8692 13.1874 50.4504 13.3707C50.0316 13.554 49.5708 13.6198 49.1174 13.5609C48.6641 13.502 48.2353 13.3207 47.8772 13.0365C47.5192 12.7523 47.2453 12.3759 47.0851 11.9477C46.795 12.1472 46.4531 12.2579 46.1011 12.2663C45.7492 12.2746 45.4024 12.1803 45.1032 11.9948C44.8039 11.8092 44.5652 11.5406 44.4162 11.2216C44.2672 10.9027 44.2142 10.5472 44.2639 10.1986C44.0629 10.3343 43.8232 10.4009 43.581 10.3885C43.3388 10.3761 43.1072 10.2853 42.9211 10.1298C43.4489 10.1255 43.9675 9.99054 44.4304 9.73695C44.3947 9.46698 44.4604 9.19337 44.6146 8.96896C44.5701 9.34073 44.6073 9.71772 44.7234 10.0737C44.8396 10.4296 45.032 10.7559 45.2872 11.0299C45.811 11.5626 46.6367 11.8068 47.3437 11.5648C47.2771 11.2224 47.2737 10.8708 47.3337 10.5272C47.6367 11.5859 48.5156 12.486 49.5922 12.7146C50.6687 12.9432 51.8895 12.4305 52.3967 11.4527C52.4046 11.8363 52.3033 12.2143 52.1048 12.5426C52.3944 12.6786 52.7087 12.7542 53.0284 12.7649C53.3482 12.7756 53.6668 12.7211 53.9648 12.6047C54.5642 12.3682 55.086 11.9698 55.472 11.4538C55.8194 11.0099 56.089 10.4672 56.0757 9.9001C56.2224 10.019 56.3427 10.1671 56.4289 10.3351C56.5151 10.503 56.5652 10.6872 56.5762 10.8756C56.5701 10.9558 56.5895 11.0358 56.6317 11.1043C56.6654 11.1396 56.7079 11.1653 56.7549 11.1786C57.1989 11.3362 57.7116 11.112 57.9824 10.7347C58.2398 10.3506 58.3348 9.88013 58.2465 9.42621Z" fill="#E5EEF3"/>
<path fill-rule="evenodd" clip-rule="evenodd" d="M75.0281 19.9364C75.5557 19.7813 76.1168 19.7827 76.6436 19.9403C77.1704 20.0979 77.6401 20.4049 77.9958 20.8242C78.4691 20.5905 78.9907 20.4711 79.5185 20.4755C80.0464 20.48 80.5658 20.6082 81.0351 20.8499C81.5044 21.0915 81.9105 21.4399 82.2207 21.867C82.5309 22.2941 82.7366 22.7881 82.8213 23.3091C83.3762 23.237 83.9389 23.1637 84.4749 23.3091C85.011 23.4545 85.5159 23.864 85.5914 24.4189C86.2573 24.4411 86.9576 25.0848 86.709 25.7063C86.568 26.057 86.1807 26.2501 85.8067 26.3034C85.4327 26.3566 85.0531 26.3034 84.6747 26.3134C83.8634 26.3444 83.1043 26.6907 82.3319 26.9393C81.6855 27.161 80.995 27.2223 80.3197 27.118C79.8037 27.0248 79.2965 26.7562 79.0313 26.3045C78.3032 26.926 77.2966 27.0969 76.34 27.1424C75.6286 27.1757 74.8972 27.1491 74.2313 26.8905C73.5654 26.6319 72.9761 26.1058 72.7885 25.4177C71.8474 25.7507 70.7554 25.582 70.014 24.9072C69.4591 24.4045 69.4824 23.4767 69.9929 22.944C70.3958 22.5244 71.0461 22.4923 71.6266 22.5C72.0317 22.51 72.46 22.5355 72.7919 22.7675C72.702 22.1671 72.9417 21.5467 73.3213 21.0773C73.7558 20.5266 74.3532 20.1274 75.0281 19.9364Z" fill="white"/>
<path fill-rule="evenodd" clip-rule="evenodd" d="M75.0281 19.9355C74.3552 20.1265 73.7595 20.5245 73.3256 21.0731C72.9461 21.5481 72.7063 22.1629 72.7962 22.7634C72.8651 23.2228 73.0271 23.6268 73.3833 23.9242C73.7396 24.2217 74.1813 24.3992 74.623 24.5424C73.9782 23.0575 74.0958 21.2607 75.0281 19.9355Z" fill="#F0F3FA"/>
<path fill-rule="evenodd" clip-rule="evenodd" d="M70.0184 24.8991C70.7609 25.5739 71.8529 25.7403 72.7929 25.4096C72.9772 26.0977 73.5698 26.6237 74.2357 26.8823C74.9016 27.1409 75.6307 27.1676 76.3443 27.1343C77.301 27.0888 78.3076 26.9123 79.0356 26.2963C79.3009 26.748 79.8125 27.0166 80.3241 27.1098C80.9972 27.2131 81.6853 27.1518 82.3296 26.9312C83.1064 26.6826 83.8611 26.3363 84.6724 26.3052C85.0509 26.2919 85.4304 26.3474 85.8044 26.2952C86.1784 26.2431 86.5657 26.0489 86.7067 25.6982C86.9553 25.0789 86.2561 24.433 85.5891 24.4108C85.58 24.3474 85.5651 24.285 85.5447 24.2243C85.2816 24.198 85.0162 24.204 84.7545 24.2421C83.4105 24.4319 82.2175 25.2553 80.8702 25.4218C80.5074 25.4784 80.1365 25.4511 79.7859 25.3419C79.486 25.2289 79.2125 25.0555 78.9824 24.8325C78.5344 24.4184 78.1939 23.9015 77.9902 23.3265C78.1966 24.1422 77.5529 24.9912 76.7594 25.2687C75.9659 25.5461 75.088 25.3963 74.2812 25.1577C73.7729 25.009 73.2091 24.7626 73.0604 24.2554C72.4666 24.7504 71.5067 24.8203 70.9351 24.3031C70.2836 23.7149 70.6132 23.1378 70.8585 22.5274C70.535 22.5626 70.2322 22.7039 69.9973 22.9292C69.4868 23.4685 69.4657 24.3963 70.0184 24.8991Z" fill="#F0F3FA"/>
<path fill-rule="evenodd" clip-rule="evenodd" d="M79.0312 26.2976C78.3031 26.9191 77.2965 27.0901 76.3399 27.1356C75.6285 27.1689 74.8971 27.1422 74.2312 26.8836C73.5653 26.625 72.976 26.099 72.7885 25.4109C71.8473 25.7438 70.7553 25.5752 70.0139 24.9004C70.979 25.2859 72.0409 25.3581 73.0492 25.1068C73.4344 25.867 74.259 26.3487 75.1046 26.4486C75.9503 26.5485 76.8104 26.3065 77.5618 25.9048C77.5539 26.0849 77.4991 26.2599 77.4027 26.4124C77.3063 26.5648 77.1718 26.6894 77.0124 26.7738C77.7152 26.7927 78.4109 26.6286 79.0312 26.2976Z" fill="#E5EEF3"/>
<path fill-rule="evenodd" clip-rule="evenodd" d="M86.7089 25.6988C86.5679 26.0495 86.1806 26.2426 85.8066 26.2959C85.4326 26.3492 85.053 26.2959 84.6746 26.3059C83.8633 26.337 83.1042 26.6832 82.3318 26.9318C81.6855 27.1535 80.9949 27.2148 80.3197 27.1105C79.8036 27.0173 79.2964 26.7487 79.0312 26.297C79.8414 26.6089 80.8235 26.5967 81.6559 26.3481C82.1287 26.2071 82.5704 25.9785 83.0343 25.8098C84.2178 25.3914 85.5023 25.3526 86.7089 25.6988Z" fill="#E5EEF3"/>
<path fill-rule="evenodd" clip-rule="evenodd" d="M67.2293 35.4887C67.1846 35.1808 67.0668 34.8881 66.8858 34.635C66.7048 34.382 66.4658 34.1759 66.1888 34.0341C65.9119 33.8923 65.605 33.8189 65.2939 33.82C64.9827 33.8211 64.6764 33.8967 64.4004 34.0404C64.2283 33.5889 63.9196 33.2024 63.5172 32.9349C63.1149 32.6673 62.639 32.5321 62.1561 32.5481C61.6732 32.5642 61.2073 32.7306 60.8235 33.0242C60.4398 33.3178 60.1573 33.7239 60.0155 34.1858C59.8658 34.1842 59.7173 34.2125 59.5788 34.2691C59.4402 34.3257 59.3143 34.4095 59.2087 34.5155C59.103 34.6215 59.0196 34.7476 58.9633 34.8864C58.9071 35.0251 58.8792 35.1737 58.8813 35.3234C58.4229 35.1169 57.8714 35.6563 57.979 36.1446C58.0867 36.6329 58.6771 36.9215 59.1665 36.7983C59.7866 37.244 60.5131 37.5185 61.2729 37.5941C62.0328 37.6696 62.7991 37.5437 63.4948 37.2289C64.5913 37.9536 66.2693 37.5341 66.8953 36.3777C66.812 36.5308 68.1216 36.7772 68.3747 36.2201C68.6577 35.5864 67.711 35.2068 67.2293 35.4887Z" fill="white"/>
<path fill-rule="evenodd" clip-rule="evenodd" d="M57.979 36.143C58.09 36.6346 58.6771 36.9199 59.1665 36.7967C59.7866 37.2423 60.5131 37.5168 61.2729 37.5924C62.0328 37.668 62.7991 37.5421 63.4948 37.2273C64.5913 37.952 66.2693 37.5325 66.8953 36.376C66.812 36.5292 68.1216 36.7756 68.3747 36.2184C68.6599 35.587 67.7088 35.2074 67.2315 35.4871C67.1842 35.18 67.0653 34.8883 66.8844 34.6355C66.7036 34.3828 66.4659 34.1761 66.1906 34.0321C66.0357 33.9531 65.8706 33.8959 65.7 33.8623C65.8908 34.0873 66.0275 34.3531 66.0995 34.6392C66.185 35.0332 66.0596 35.4971 65.7133 35.7024C65.4714 35.8467 65.1728 35.8444 64.892 35.8311C64.5591 35.8156 64.1673 35.7479 64.0364 35.4449C64.0008 35.3369 63.9778 35.2252 63.9676 35.112C63.9089 34.8335 63.7548 34.5843 63.5319 34.4074C63.309 34.2304 63.0313 34.137 62.7468 34.1431C63.0398 34.1786 63.2296 34.516 63.1707 34.809C63.1314 34.951 63.057 35.0809 62.9544 35.1868C62.8519 35.2927 62.7244 35.3711 62.5836 35.4149C62.3006 35.4988 62.0038 35.5259 61.7102 35.4948C61.2186 35.4682 60.6748 35.3839 60.3673 34.9954C60.2435 35.1216 60.0809 35.2024 59.9055 35.2249C59.7302 35.2475 59.5524 35.2104 59.4007 35.1197C59.2571 35.0249 59.1496 34.8846 59.0955 34.7213C59.0893 34.7038 59.0856 34.6855 59.0844 34.6669C58.9433 34.857 58.8717 35.0897 58.8813 35.3262C58.4229 35.1153 57.8714 35.6513 57.979 36.143Z" fill="#F0F3FA"/>
<path fill-rule="evenodd" clip-rule="evenodd" d="M66.8931 36.3767C66.8099 36.5298 68.1194 36.7762 68.3725 36.2191C68.6577 35.5876 67.7066 35.2081 67.2294 35.4877C67.4589 35.4559 67.692 35.4585 67.9208 35.4955C67.9834 35.4996 68.0442 35.5185 68.0982 35.5505C68.1522 35.5825 68.1978 35.6268 68.2315 35.6797C68.2497 35.7275 68.2569 35.7787 68.2526 35.8296C68.2498 35.9152 68.2273 35.9991 68.1866 36.0746C68.146 36.1501 68.0884 36.2151 68.0185 36.2646C67.8844 36.3357 67.7339 36.3701 67.5823 36.3645C67.3792 36.3767 67.0951 36.3767 66.8931 36.3767Z" fill="#E5EEF3"/>
<path fill-rule="evenodd" clip-rule="evenodd" d="M66.8932 36.3753C66.2672 37.5317 64.5892 37.9512 63.4927 37.2265C62.797 37.5413 62.0307 37.6673 61.2708 37.5917C60.511 37.5161 59.7844 37.2416 59.1644 36.7959C58.675 36.9147 58.0857 36.6339 57.9769 36.1422C57.8682 35.6506 58.4208 35.1145 58.8792 35.321C58.5462 35.3509 58.3243 35.7482 58.4264 36.0645C58.4548 36.1415 58.499 36.2116 58.5563 36.2703C58.6135 36.3291 58.6825 36.3751 58.7587 36.4055C58.8349 36.4358 58.9166 36.4498 58.9985 36.4465C59.0805 36.4432 59.1608 36.4227 59.2343 36.3864C59.163 36.2064 59.1279 36.014 59.1311 35.8204C59.2599 36.1001 59.6128 36.1888 59.9202 36.1966C60.2173 36.2044 60.514 36.17 60.8014 36.0945C60.7617 36.2751 60.6661 36.4387 60.5283 36.562C60.3904 36.6852 60.2173 36.762 60.0334 36.7815C60.5672 37.08 61.1998 37.1433 61.8091 37.1388C62.2209 37.1388 62.6481 37.0978 63.0066 36.8936C63.3651 36.6894 63.6292 36.2743 63.5437 35.8714C63.6913 36.0097 63.7901 36.1919 63.8255 36.3909C63.8609 36.59 63.831 36.7951 63.7402 36.9757C64.2444 37.2296 64.8233 37.2931 65.3705 37.1544C65.9307 37.0139 66.4515 36.7475 66.8932 36.3753Z" fill="#E5EEF3"/>
<path fill-rule="evenodd" clip-rule="evenodd" d="M16.6128 29.6698C15.6218 29.1227 15.5341 27.5456 16.5784 27.0151C16.723 26.932 16.8783 26.8692 17.0401 26.8287C17.1122 26.8187 17.5861 26.8797 17.5806 26.9863C17.5984 26.6245 17.8658 26.3204 18.1788 26.1328C18.9623 25.6711 20.0821 25.9109 20.606 26.6578C21.1298 27.4047 20.9777 28.5378 20.273 29.1193C20.4134 29.0567 20.5704 29.0416 20.7201 29.0764C20.8699 29.1111 21.0042 29.1938 21.1027 29.3118C21.2011 29.4299 21.2583 29.5769 21.2656 29.7304C21.2729 29.884 21.2299 30.0357 21.1431 30.1626C21.3308 30.0623 21.5489 30.035 21.7555 30.0861C21.962 30.1371 22.1424 30.2628 22.2618 30.4389C22.8234 30.3191 23.4079 30.3678 23.942 30.5787C24.064 30.618 24.173 30.6897 24.2572 30.7863C24.2975 30.8357 24.3201 30.8973 24.3213 30.961C24.3225 31.0248 24.3023 31.0872 24.2639 31.1381C24.2021 31.1934 24.1245 31.228 24.0419 31.2369C23.7344 31.2883 23.4225 31.3099 23.1108 31.3012L18.7348 31.3223C18.5878 31.333 18.4403 31.3122 18.302 31.2613C18.2337 31.2343 18.1756 31.1866 18.1358 31.1249C18.096 31.0632 18.0765 30.9906 18.08 30.9172C17.8715 31.0955 17.6168 31.2109 17.3453 31.2502C17.2101 31.268 17.0726 31.2545 16.9434 31.2106C16.8143 31.1667 16.697 31.0937 16.6006 30.9972C15.7473 31.2271 14.856 31.28 13.9814 31.1525C13.8365 31.1401 13.6959 31.0962 13.5697 31.0238C13.5073 30.9867 13.4567 30.9325 13.4241 30.8676C13.3914 30.8027 13.378 30.7298 13.3855 30.6575C13.4051 30.5872 13.4443 30.5238 13.4985 30.4749C13.5527 30.426 13.6198 30.3935 13.6918 30.3812C13.8358 30.359 13.9828 30.3669 14.1235 30.4045C14.068 30.1271 14.2345 29.8396 14.472 29.6853C14.7185 29.5426 14.9996 29.4705 15.2844 29.4767C15.7352 29.4605 16.1853 29.5259 16.6128 29.6698Z" fill="white"/>
<path fill-rule="evenodd" clip-rule="evenodd" d="M13.6974 30.3769C13.6254 30.3892 13.5583 30.4217 13.5041 30.4706C13.4498 30.5195 13.4106 30.5829 13.3911 30.6532C13.3836 30.7255 13.397 30.7984 13.4296 30.8633C13.4623 30.9282 13.5128 30.9824 13.5753 31.0195C13.7015 31.0919 13.842 31.1358 13.987 31.1482C14.8615 31.2757 15.7529 31.2228 16.6062 30.9928C16.7025 31.0894 16.8198 31.1624 16.949 31.2063C17.0781 31.2502 17.2156 31.2637 17.3509 31.2459C17.6223 31.2066 17.8771 31.0912 18.0856 30.9129C18.082 30.9863 18.1015 31.0589 18.1413 31.1206C18.1812 31.1823 18.2393 31.23 18.3075 31.257C18.4458 31.3079 18.5934 31.3287 18.7404 31.318L23.1164 31.2969C23.4281 31.3056 23.7399 31.284 24.0475 31.2326C24.13 31.2237 24.2077 31.1891 24.2695 31.1338C24.3079 31.0829 24.3281 31.0205 24.3269 30.9567C24.3257 30.893 24.3031 30.8314 24.2628 30.782C24.2342 30.7449 24.2002 30.7123 24.1618 30.6854C23.7179 30.8142 23.2285 30.7675 22.7679 30.6854C22.6072 30.6725 22.4549 30.6078 22.3339 30.5012C22.3151 30.4802 22.2995 30.4567 22.2873 30.4313H22.2674C22.148 30.2552 21.9676 30.1295 21.761 30.0784C21.5545 30.0274 21.3363 30.0547 21.1487 30.1549C21.2355 30.0281 21.2785 29.8763 21.2712 29.7228C21.2639 29.5692 21.2067 29.4223 21.1082 29.3042C21.0097 29.1862 20.8755 29.1035 20.7257 29.0687C20.576 29.034 20.4189 29.0491 20.2786 29.1117C20.8013 28.6778 21.0177 27.9331 20.8745 27.2738C20.8179 27.7291 20.6434 28.1618 20.3685 28.529C20.2059 28.7455 19.9957 28.9216 19.7542 29.0438C19.5127 29.166 19.2463 29.231 18.9756 29.2338C18.9367 28.9556 18.832 28.6907 18.67 28.4611C18.508 28.2316 18.2936 28.0441 18.0445 27.9142C18.3153 28.1206 18.322 28.5701 18.0911 28.8187C17.9686 28.9374 17.8122 29.0151 17.6436 29.0409C17.4749 29.0668 17.3024 29.0395 17.15 28.963C16.9996 28.8826 16.8685 28.7703 16.7659 28.634C16.6634 28.4978 16.5918 28.3407 16.5563 28.1739C16.4375 27.6834 16.6051 27.2705 16.8615 26.8732C16.7605 26.9143 16.6572 26.9675 16.5784 27.0075C15.5341 27.538 15.6218 29.1161 16.6129 29.6622C16.5019 29.6255 16.3986 29.5945 16.2899 29.5678C15.9314 29.6633 15.5319 29.7221 15.1801 29.8187C14.8038 29.9208 14.4276 30.1516 14.3144 30.5245C14.2564 30.4764 14.1953 30.4323 14.1313 30.3924C13.9893 30.3571 13.8415 30.3518 13.6974 30.3769Z" fill="#F0F3FA"/>
<path fill-rule="evenodd" clip-rule="evenodd" d="M16.6128 29.6698C15.6217 29.1227 15.5341 27.5456 16.5784 27.0151C16.6572 26.9752 16.7604 26.9219 16.8614 26.8809C16.3387 27.135 16.069 27.7376 16.0601 28.3181C16.0545 28.6199 16.1067 28.9385 16.3032 29.166C16.396 29.265 16.5076 29.3446 16.6314 29.4003C16.7552 29.4559 16.8888 29.4864 17.0245 29.49C17.2965 29.4968 17.5674 29.4551 17.8247 29.3669C17.5162 29.6565 16.9824 29.8729 16.6128 29.6698Z" fill="#E5EEF3"/>
<path fill-rule="evenodd" clip-rule="evenodd" d="M21.1487 30.161C21.2355 30.0341 21.2786 29.8824 21.2713 29.7288C21.264 29.5753 21.2067 29.4283 21.1083 29.3103C21.0098 29.1922 20.8755 29.1095 20.7258 29.0748C20.576 29.04 20.419 29.0551 20.2786 29.1177C20.4839 29.08 20.6792 29.2731 20.7225 29.4784C20.7363 29.5821 20.7286 29.6875 20.7 29.7881C20.6713 29.8887 20.6223 29.9824 20.5561 30.0633C20.5073 30.1358 20.4433 30.1968 20.3685 30.242C20.2486 30.2988 20.1151 30.3204 19.9834 30.3041C19.6826 30.2897 19.3408 30.2043 19.2065 29.9368C19.2015 30.0412 19.2269 30.1449 19.2797 30.2351C19.3325 30.3254 19.4104 30.3983 19.5039 30.4451C19.6932 30.5353 19.9016 30.578 20.111 30.5694C20.3077 30.5806 20.5049 30.5596 20.6948 30.5072C20.8807 30.4462 21.0407 30.3242 21.1487 30.161Z" fill="#E5EEF3"/>
<path fill-rule="evenodd" clip-rule="evenodd" d="M24.2628 30.7845C24.3031 30.8339 24.3257 30.8955 24.3269 30.9592C24.3281 31.023 24.3079 31.0853 24.2695 31.1363C24.2077 31.1916 24.13 31.2262 24.0475 31.2351C23.7399 31.2865 23.4281 31.3081 23.1164 31.2994L18.7404 31.3205C18.5934 31.3312 18.4458 31.3103 18.3075 31.2595C18.2392 31.2325 18.1811 31.1848 18.1413 31.1231C18.1015 31.0614 18.082 30.9888 18.0856 30.9154C18.3164 31.0786 18.5927 31.1096 18.8758 31.1207C19.2172 31.1449 19.5604 31.1222 19.8957 31.053C20.2335 30.9834 20.5381 30.802 20.7602 30.5381C20.772 30.6503 20.7527 30.7637 20.7043 30.8657C20.656 30.9677 20.5805 31.0544 20.4861 31.1163C21.4738 30.9942 22.4727 31.1085 23.4671 31.0897C23.7567 31.0841 24.1552 31.053 24.2628 30.7845Z" fill="#E5EEF3"/>
<path fill-rule="evenodd" clip-rule="evenodd" d="M18.0856 30.916C17.8771 31.0942 17.6223 31.2097 17.3509 31.249C17.2157 31.2668 17.0781 31.2533 16.949 31.2094C16.8198 31.1655 16.7025 31.0925 16.6062 30.9959C15.7529 31.2259 14.8615 31.2787 13.987 31.1513C13.842 31.1389 13.7015 31.095 13.5753 31.0226C13.5128 30.9855 13.4623 30.9313 13.4296 30.8664C13.397 30.8015 13.3836 30.7286 13.3911 30.6563C13.5076 30.8783 13.8128 30.9293 14.0647 30.9504C14.3559 30.975 14.6491 30.9536 14.9337 30.8872C14.7998 30.8592 14.678 30.7901 14.5852 30.6896C15.3698 30.8787 16.1943 30.8102 16.9369 30.4943C16.926 30.5666 16.938 30.6405 16.9712 30.7056C17.0045 30.7706 17.0573 30.8237 17.1222 30.8572C17.254 30.9224 17.4044 30.9392 17.5473 30.9049C17.7838 30.8535 17.9967 30.7252 18.1527 30.5401C18.3087 30.355 18.399 30.1235 18.4096 29.8817C18.4862 30.2302 18.3686 30.693 18.0856 30.916Z" fill="#E5EEF3"/>
</svg>
