<svg width="117" height="84" viewBox="0 0 117 84" fill="none" xmlns="http://www.w3.org/2000/svg">
<path fill-rule="evenodd" clip-rule="evenodd" d="M58.2161 76.6962C71.7573 76.6962 84.2191 76.8983 94.109 77.2376C118.31 63.4009 109.93 36.4403 101.24 21.1892C89.1465 -0.0379508 60.5694 -7.66678 48.7489 9.26885C32.705 32.2608 17.2277 24.2355 8.87081 41.6939C0.513903 59.1522 13.2096 75.8891 22.3242 77.2376C32.213 76.8983 44.6748 76.6962 58.2161 76.6962Z" fill="#EAEFF8"/>
<path fill-rule="evenodd" clip-rule="evenodd" d="M58.2161 76.6962C90.3677 76.6962 116.432 77.8372 116.432 79.2461C116.432 80.655 90.3677 81.7949 58.2161 81.7949C26.0645 81.7949 0 80.6539 0 79.2461C0 77.8383 26.0645 76.6962 58.2161 76.6962Z" fill="#D2DFEE"/>
<path fill-rule="evenodd" clip-rule="evenodd" d="M76.99 6.31655C91.5295 9.55608 100.781 22.9271 101.688 29.3777C102.061 32.0275 101.371 25.8273 93.9542 20.1829C87.3247 15.138 82.1645 14.2034 74.2787 13.594C68.7056 13.1635 62.8689 12.4783 63.284 9.15526C63.6146 6.53398 67.603 4.22457 76.99 6.31655Z" fill="white"/>
<path fill-rule="evenodd" clip-rule="evenodd" d="M20.7154 70.8221C20.051 69.9908 19.1176 69.3045 18.8431 68.2766C18.5191 67.0686 19.2318 65.7871 19.055 64.5429C18.8354 62.978 17.3265 61.9644 16.5084 60.6126C15.7079 59.2883 16.0834 58.8435 16.0098 57.2973C15.9 54.9681 13.9903 52.0262 11.4448 52.8169C8.8609 53.6185 9.28259 56.0202 9.73722 57.8277C10.0667 59.1147 9.84704 59.3003 9.53516 60.5896C9.1552 62.1467 7.92857 63.6523 8.43702 65.171C8.75438 66.11 9.67463 66.7436 10.0085 67.6781C10.3862 68.7356 9.9283 69.8832 9.75259 70.9934C9.38252 73.3292 9.91402 75.2762 11.6107 77.2012C11.7911 77.3728 11.981 77.5341 12.1795 77.6844C14.557 77.5505 17.231 77.4264 20.1641 77.3155L20.1861 77.2924C21.7433 75.598 22.2067 72.689 20.7154 70.8221Z" fill="#D2DFEE"/>
<path fill-rule="evenodd" clip-rule="evenodd" d="M12.6188 54.9221C12.6105 54.8955 12.5969 54.8708 12.5787 54.8496C12.5605 54.8284 12.5382 54.8112 12.5131 54.799C12.4881 54.7867 12.4607 54.7798 12.4328 54.7785C12.405 54.7773 12.3771 54.7817 12.351 54.7917C12.3249 54.8016 12.3012 54.8168 12.2812 54.8362C12.2612 54.8557 12.2454 54.879 12.2348 54.9049C12.2241 54.9307 12.2189 54.9584 12.2194 54.9863C12.2199 55.0142 12.2262 55.0417 12.2377 55.0671C12.4417 55.6086 12.614 56.1616 12.7538 56.7231C12.6956 56.6704 12.6352 56.6133 12.5726 56.5694C12.2822 56.3377 11.9652 56.1416 11.6282 55.9852C11.6038 55.9718 11.5768 55.9635 11.5491 55.9609C11.5213 55.9583 11.4933 55.9614 11.4668 55.9701C11.4403 55.9787 11.4159 55.9927 11.3949 56.0112C11.374 56.0296 11.3571 56.0521 11.3453 56.0774C11.3334 56.1026 11.3268 56.13 11.326 56.1579C11.3251 56.1857 11.3299 56.2135 11.3402 56.2394C11.3504 56.2653 11.3659 56.2889 11.3856 56.3086C11.4053 56.3284 11.4288 56.3438 11.4547 56.3541C11.7623 56.4972 12.0521 56.6759 12.3179 56.8867C12.5516 57.0739 12.7605 57.2901 12.9394 57.5302C13.2008 58.7766 13.371 60.1164 13.5247 61.5297C13.3013 61.1792 13.0482 60.8485 12.7681 60.5414C12.3291 60.0551 11.8037 59.6545 11.2186 59.3598C11.1703 59.3357 11.1144 59.3319 11.0632 59.3491C11.012 59.3663 10.9698 59.4031 10.9457 59.4515C10.9217 59.4998 10.9179 59.5557 10.9351 59.6069C10.9523 59.6581 10.9891 59.7003 11.0374 59.7243C11.5773 59.9987 12.0614 60.3711 12.465 60.8225C12.9292 61.3403 13.3208 61.9188 13.6291 62.5422L13.6686 62.9254C13.7554 63.7677 13.8454 64.6309 13.9497 65.5138V65.539C14.0595 66.4604 14.1891 67.4059 14.3505 68.3591C13.9351 67.7116 13.4569 67.1065 12.923 66.5526C12.2179 65.8147 11.3877 65.2075 10.4708 64.7594C10.4465 64.7464 10.4198 64.7385 10.3924 64.7361C10.365 64.7338 10.3373 64.737 10.3112 64.7455C10.285 64.7541 10.2608 64.7679 10.2401 64.786C10.2194 64.8042 10.2026 64.8263 10.1907 64.8511C10.1787 64.876 10.1719 64.9029 10.1707 64.9304C10.1695 64.958 10.1738 64.9854 10.1835 65.0112C10.1931 65.037 10.2079 65.0606 10.2269 65.0805C10.2459 65.1005 10.2687 65.1163 10.294 65.1272C11.1674 65.5548 11.9582 66.1337 12.6298 66.837C13.3901 67.6378 14.0388 68.5376 14.5581 69.5121C14.813 70.8193 15.1456 72.1101 15.5541 73.3776C15.7628 74.0189 15.9981 74.6624 16.2602 75.3082C14.8011 74.0494 13.0558 73.1675 11.1769 72.7396C11.1239 72.7277 11.0684 72.7372 11.0224 72.766C10.9763 72.7948 10.9435 72.8405 10.9309 72.8933C10.9187 72.946 10.928 73.0014 10.9566 73.0473C10.9852 73.0933 11.0309 73.1259 11.0836 73.1382C12.136 73.3786 13.1493 73.766 14.0936 74.2891C15.0318 74.8151 15.8934 75.4673 16.6545 76.2273C16.8357 76.6303 17.0278 77.0323 17.2343 77.4353L17.6845 77.4166C16.9929 76.0846 16.4126 74.6977 15.9495 73.27C15.8739 72.2609 15.994 71.2466 16.3031 70.283C16.6591 69.1975 17.1831 68.1744 17.8558 67.251C17.8755 67.2298 17.8905 67.2046 17.8997 67.1771C17.9089 67.1496 17.9121 67.1205 17.9092 67.0917C17.9063 67.0628 17.8972 67.035 17.8827 67.0099C17.8682 66.9848 17.8485 66.9631 17.825 66.9462C17.8014 66.9294 17.7745 66.9177 17.7461 66.912C17.7177 66.9063 17.6884 66.9067 17.6602 66.9132C17.6319 66.9197 17.6054 66.9321 17.5823 66.9497C17.5593 66.9672 17.5402 66.9895 17.5264 67.0149C16.8293 67.9729 16.2865 69.0342 15.9176 70.16C15.7329 70.742 15.6114 71.3421 15.5552 71.95C14.9424 69.7373 14.6031 67.575 14.3538 65.5116C14.553 64.7487 14.8221 64.0057 15.1577 63.2922C15.392 62.7747 15.7162 62.3029 16.1153 61.8987C16.1366 61.8808 16.154 61.8587 16.1664 61.8339C16.1789 61.809 16.1861 61.7818 16.1877 61.7541C16.1893 61.7263 16.1852 61.6985 16.1757 61.6724C16.1662 61.6462 16.1514 61.6223 16.1323 61.6021C16.1132 61.5819 16.0902 61.5658 16.0646 61.5548C16.0391 61.5438 16.0116 61.5381 15.9838 61.5381C15.9559 61.5381 15.9284 61.5438 15.9029 61.5548C15.8773 61.5658 15.8543 61.5819 15.8352 61.6022C15.4001 62.04 15.0462 62.5517 14.7898 63.1132C14.5768 63.5597 14.3934 64.0197 14.2407 64.4903C14.1803 63.9412 14.1254 63.4075 14.0705 62.8793L14.0288 62.4675V62.4456C13.7411 59.6409 13.4479 57.0899 12.6188 54.9221Z" fill="white"/>
<path fill-rule="evenodd" clip-rule="evenodd" d="M13.8796 71.9173C13.1713 71.5352 12.3169 71.3331 11.8217 70.6984C11.2363 69.9495 11.3549 68.8491 10.863 68.0354C10.2458 67.0119 8.89509 66.7516 7.92543 66.0521C6.97553 65.3669 7.10511 64.9463 6.59557 63.891C5.82687 62.3009 3.63057 60.8162 2.09316 62.123C0.530501 63.4462 1.53531 64.9946 2.38857 66.118C2.99584 66.9197 2.9025 67.1063 3.06503 68.1024C3.26159 69.2994 2.85418 70.7116 3.66022 71.6164C4.15988 72.1765 4.98898 72.3456 5.49742 72.8969C6.07395 73.5228 6.09591 74.4574 6.30237 75.2821C6.57581 76.3802 7.0524 77.2587 7.80793 77.9681C9.84389 77.8144 12.2379 77.6716 14.9393 77.5398C15.1478 77.2437 15.3148 76.9204 15.4357 76.579C16.0111 74.9394 15.4719 72.775 13.8796 71.9173Z" fill="#C5DEF8"/>
<path fill-rule="evenodd" clip-rule="evenodd" d="M3.52834 63.2408C3.49921 63.2117 3.45971 63.1953 3.41852 63.1953C3.37733 63.1953 3.33783 63.2117 3.30871 63.2408C3.27958 63.2699 3.26322 63.3094 3.26322 63.3506C3.26322 63.3918 3.27958 63.4313 3.30871 63.4604C3.61141 63.7772 3.89557 64.1113 4.15977 64.4608C4.10267 64.4411 4.04996 64.4235 3.98736 64.407C3.71612 64.3326 3.43716 64.2898 3.15607 64.2797C3.13573 64.2789 3.11545 64.2822 3.09639 64.2893C3.07733 64.2964 3.05986 64.3072 3.04497 64.3211C3.0149 64.3491 2.99719 64.3879 2.99573 64.429C2.99428 64.4701 3.00919 64.51 3.0372 64.5401C3.06521 64.5702 3.10402 64.5879 3.14508 64.5893C3.40174 64.5971 3.65653 64.6358 3.9039 64.7046C4.12226 64.7654 4.3319 64.8539 4.52765 64.9682C5.07673 65.7599 5.59395 66.6418 6.11997 67.5807C5.86047 67.4024 5.586 67.247 5.29965 67.1162C4.85039 66.9075 4.36636 66.7839 3.87206 66.7516C3.83123 66.7495 3.7912 66.7635 3.76059 66.7906C3.72999 66.8177 3.71126 66.8557 3.70843 66.8965C3.70725 66.9167 3.71006 66.937 3.7167 66.9561C3.72335 66.9752 3.7337 66.9928 3.74717 67.0079C3.76064 67.023 3.77695 67.0353 3.79518 67.0441C3.8134 67.0528 3.83319 67.0579 3.85339 67.0591C4.30973 67.0896 4.7565 67.2043 5.17116 67.3973C5.64711 67.6206 6.09044 67.9076 6.48894 68.2505L6.6295 68.5064C6.93918 69.0665 7.25765 69.6419 7.59258 70.2261C7.59505 70.2321 7.59838 70.2376 7.60247 70.2426C7.95168 70.8521 8.32065 71.4692 8.71708 72.0875C8.23707 71.7584 7.72624 71.4766 7.19176 71.2463C6.48205 70.9416 5.72396 70.765 4.95263 70.7247C4.91174 70.7229 4.8718 70.7374 4.84155 70.7649C4.8113 70.7925 4.7932 70.8309 4.79121 70.8718C4.78971 70.9128 4.80444 70.9528 4.83219 70.983C4.85994 71.0132 4.89848 71.0313 4.93946 71.0333C5.67415 71.0725 6.39613 71.2412 7.07206 71.5318C7.83904 71.8644 8.55752 72.2992 9.20796 72.8243C9.77323 73.659 10.3874 74.4595 11.0474 75.2216C11.3819 75.6059 11.7363 75.9844 12.1104 76.3571C10.7212 75.9129 9.24436 75.8156 7.80892 76.0738C7.78887 76.0773 7.76972 76.0847 7.75255 76.0957C7.73538 76.1066 7.72054 76.1208 7.70886 76.1375C7.69719 76.1542 7.68891 76.173 7.6845 76.1928C7.68009 76.2127 7.67964 76.2333 7.68318 76.2533C7.68671 76.2733 7.69416 76.2925 7.70509 76.3097C7.71603 76.3268 7.73024 76.3417 7.74691 76.3534C7.76358 76.365 7.78239 76.3733 7.80227 76.3777C7.82214 76.3821 7.84268 76.3826 7.86273 76.379C8.66675 76.2349 9.48705 76.2046 10.2995 76.289C11.1088 76.3775 11.9021 76.5766 12.6572 76.8809C12.9259 77.1291 13.2052 77.3729 13.4951 77.6123L13.9553 77.5881C12.9917 76.8171 12.0997 75.9607 11.29 75.0294C10.939 74.3487 10.7224 73.6068 10.652 72.8441C10.5781 71.9821 10.64 71.1139 10.8354 70.2711C10.8414 70.2322 10.8324 70.1924 10.8101 70.1599C10.7878 70.1274 10.7539 70.1046 10.7154 70.0962C10.6769 70.0878 10.6366 70.0944 10.6028 70.1147C10.569 70.1349 10.5442 70.1673 10.5334 70.2053C10.3311 71.0794 10.2674 71.9798 10.3445 72.8737C10.3882 73.3338 10.4814 73.7877 10.6224 74.2278C9.60427 72.9227 8.68652 71.5425 7.877 70.0987C7.78972 69.5082 7.757 68.9108 7.77927 68.3142C7.78929 67.8844 7.87555 67.4598 8.03404 67.0602C8.04698 67.0232 8.04547 66.9828 8.0298 66.9469C8.01413 66.9111 7.98547 66.8825 7.94957 66.8669C7.91368 66.8513 7.87322 66.8499 7.83633 66.8629C7.79944 66.876 7.76885 66.9025 7.75072 66.9372C7.57685 67.3708 7.48165 67.8319 7.46959 68.2989C7.45256 68.6735 7.46063 69.0488 7.49375 69.4223C7.28949 69.0599 7.09183 68.7019 6.89745 68.3505L6.74591 68.0759C6.7434 68.0706 6.74046 68.0654 6.73712 68.0606C5.70926 66.1948 4.75387 64.5059 3.52834 63.2408Z" fill="white"/>
<path fill-rule="evenodd" clip-rule="evenodd" d="M93.1472 70.0381C93.8708 69.131 94.891 68.3821 95.1897 67.2609C95.5433 65.9365 94.7647 64.5441 94.958 63.1868C95.1996 61.4802 96.8446 60.3733 97.7374 58.904C98.6159 57.4588 98.2008 56.9723 98.2865 55.2867C98.4062 52.7445 100.49 49.5368 103.269 50.3966C106.088 51.2752 105.628 53.8931 105.136 55.8654C104.782 57.2699 105.013 57.4709 105.355 58.8787C105.77 60.5776 107.112 62.2204 106.549 63.8775C106.203 64.9032 105.198 65.595 104.835 66.6141C104.423 67.7682 104.921 69.0212 105.114 70.2314C105.518 72.7813 104.937 74.9018 103.085 77.0059C102.864 77.2171 102.63 77.414 102.384 77.5956C99.8217 77.4649 96.9632 77.3463 93.8544 77.2398C93.8115 77.1958 93.7698 77.1519 93.7281 77.1069C92.0237 75.2455 91.5186 72.0708 93.1472 70.0381Z" fill="#D2DFEE"/>
<path fill-rule="evenodd" clip-rule="evenodd" d="M101.982 52.6872C102.003 52.632 102.045 52.5875 102.099 52.5634C102.153 52.5393 102.214 52.5376 102.269 52.5587C102.325 52.5798 102.369 52.622 102.393 52.676C102.417 52.7299 102.419 52.7912 102.398 52.8464C102.175 53.437 101.987 54.0402 101.835 54.6529C101.898 54.5947 101.964 54.5431 102.032 54.4838C102.349 54.2315 102.695 54.0177 103.062 53.8468C103.089 53.8344 103.117 53.8272 103.147 53.8258C103.176 53.8244 103.205 53.8288 103.233 53.8387C103.26 53.8486 103.285 53.8638 103.307 53.8835C103.329 53.9032 103.346 53.9269 103.359 53.9534C103.371 53.9798 103.378 54.0085 103.38 54.0377C103.381 54.0669 103.377 54.0961 103.367 54.1237C103.357 54.1512 103.342 54.1765 103.322 54.1982C103.302 54.2198 103.279 54.2374 103.252 54.2499C102.917 54.4062 102.6 54.6011 102.31 54.8308C102.055 55.0352 101.827 55.2713 101.631 55.5336C101.347 56.8931 101.16 58.3558 100.993 59.8976C101.237 59.5148 101.513 59.1536 101.819 58.8182C102.298 58.288 102.871 57.8509 103.509 57.5289C103.535 57.516 103.564 57.5082 103.593 57.5062C103.622 57.5042 103.651 57.508 103.679 57.5173C103.706 57.5265 103.732 57.5412 103.754 57.5603C103.776 57.5795 103.794 57.6028 103.807 57.6289C103.82 57.655 103.828 57.6834 103.83 57.7125C103.832 57.7415 103.828 57.7707 103.818 57.7984C103.809 57.826 103.795 57.8515 103.775 57.8735C103.756 57.8955 103.733 57.9135 103.707 57.9265C103.118 58.2246 102.589 58.6293 102.148 59.1202C101.64 59.6849 101.213 60.3163 100.877 60.9969L100.834 61.4153C100.739 62.3344 100.642 63.2821 100.527 64.2386V64.2672C100.406 65.2731 100.266 66.2998 100.087 67.342C100.54 66.6336 101.06 65.9715 101.642 65.3653C102.411 64.5602 103.316 63.8976 104.316 63.4084C104.37 63.3828 104.431 63.3794 104.487 63.3989C104.514 63.4086 104.54 63.4237 104.562 63.4432C104.584 63.4627 104.601 63.4863 104.614 63.5127C104.627 63.5391 104.634 63.5678 104.636 63.597C104.637 63.6262 104.633 63.6555 104.623 63.6831C104.614 63.7108 104.599 63.7362 104.579 63.7581C104.56 63.7799 104.536 63.7977 104.51 63.8103C103.557 64.2774 102.694 64.9095 101.962 65.6772C101.132 66.5512 100.424 67.5335 99.8568 68.5972C99.5783 70.0238 99.2152 71.4327 98.7696 72.8163C98.5427 73.5161 98.2864 74.2182 98.0009 74.9225C99.5929 73.5489 101.497 72.5867 103.548 72.12C103.577 72.1134 103.606 72.1125 103.636 72.1174C103.665 72.1223 103.693 72.1329 103.718 72.1486C103.743 72.1643 103.765 72.1848 103.782 72.2089C103.799 72.233 103.811 72.2603 103.818 72.2891C103.824 72.318 103.825 72.3478 103.82 72.377C103.816 72.4062 103.805 72.4341 103.789 72.4592C103.774 72.4843 103.753 72.5061 103.729 72.5232C103.705 72.5404 103.678 72.5526 103.649 72.5593C102.501 72.8214 101.395 73.2443 100.365 73.8156C99.3411 74.3891 98.4007 75.1008 97.5704 75.9306C97.3596 76.3991 97.133 76.8684 96.8907 77.3384L96.3987 77.3198C97.1743 75.8396 97.8238 74.2967 98.3403 72.7075C98.4222 71.6064 98.291 70.4997 97.9537 69.4482C97.5651 68.2633 96.9934 67.1465 96.2593 66.1384C96.225 66.0904 96.2113 66.0307 96.2211 65.9725C96.2309 65.9143 96.2634 65.8624 96.3114 65.8282C96.3595 65.794 96.4192 65.7802 96.4773 65.79C96.5355 65.7998 96.5874 65.8323 96.6216 65.8803C97.3832 66.9261 97.976 68.0848 98.3787 69.3143C98.5797 69.9492 98.7126 70.6037 98.7751 71.2668C99.4439 68.8508 99.814 66.4931 100.085 64.2386C99.8667 63.4057 99.5726 62.5945 99.2067 61.815C98.8853 61.1561 98.5365 60.6495 98.1602 60.2952C98.139 60.2751 98.1219 60.251 98.11 60.2243C98.0982 60.1976 98.0916 60.1688 98.0909 60.1396C98.0901 60.1103 98.0951 60.0813 98.1056 60.054C98.1161 60.0267 98.1318 60.0017 98.1519 59.9805C98.172 59.9593 98.1961 59.9423 98.2228 59.9304C98.2495 59.9185 98.2783 59.912 98.3075 59.9113C98.3367 59.9105 98.3658 59.9155 98.3931 59.926C98.4204 59.9364 98.4453 59.9522 98.4665 59.9723C98.8824 60.3655 99.2627 60.9145 99.6075 61.6195C99.8411 62.1066 100.043 62.6084 100.21 63.1218C100.276 62.5266 100.337 61.9402 100.396 61.3648L100.442 60.9156C100.442 60.9079 100.442 60.8992 100.442 60.8915C100.757 57.832 101.077 55.0482 101.982 52.6872Z" fill="white"/>
<path fill-rule="evenodd" clip-rule="evenodd" d="M100.606 71.2298C101.374 70.8125 102.311 70.5929 102.852 69.8999C103.491 69.0829 103.361 67.8826 103.897 66.9942C104.572 65.8774 106.045 65.593 107.103 64.8298C108.141 64.0819 107.999 63.6218 108.554 62.471C109.391 60.737 111.794 59.1194 113.474 60.5415C115.178 61.9867 114.081 63.6756 113.151 64.9023C112.492 65.7808 112.59 65.985 112.412 67.0667C112.198 68.3735 112.642 69.9142 111.762 70.9036C111.213 71.5142 110.312 71.6987 109.758 72.3005C109.128 72.9824 109.105 74.0026 108.879 74.9031C108.576 76.1111 108.045 77.0862 107.2 77.8681C104.976 77.7166 102.396 77.576 99.513 77.4486C99.2587 77.1028 99.0564 76.7218 98.9123 76.3175C98.2798 74.5275 98.8651 72.1665 100.606 71.2298Z" fill="#C5DEF8"/>
<path fill-rule="evenodd" clip-rule="evenodd" d="M111.901 61.7605C111.933 61.7308 111.975 61.7145 112.018 61.7148C112.062 61.7152 112.103 61.7323 112.134 61.7625C112.166 61.7927 112.184 61.8337 112.186 61.8771C112.188 61.9205 112.173 61.9629 112.144 61.9955C111.813 62.3408 111.503 62.7052 111.216 63.0871C111.277 63.0651 111.34 63.0464 111.404 63.0278C111.699 62.9462 112.003 62.8998 112.31 62.8894C112.333 62.8869 112.356 62.8891 112.378 62.896C112.4 62.9029 112.421 62.9142 112.439 62.9294C112.456 62.9445 112.47 62.9631 112.481 62.984C112.491 63.0049 112.496 63.0277 112.497 63.0509C112.498 63.0741 112.494 63.0972 112.486 63.1189C112.477 63.1405 112.465 63.1602 112.448 63.1766C112.432 63.1931 112.412 63.206 112.391 63.2146C112.369 63.2232 112.346 63.2273 112.323 63.2265C112.043 63.2357 111.764 63.2778 111.494 63.3517C111.256 63.4189 111.028 63.5156 110.814 63.6394C110.212 64.5026 109.65 65.4668 109.076 66.4946C109.359 66.3 109.659 66.1303 109.972 65.9873C110.462 65.7592 110.99 65.6244 111.53 65.5898C111.552 65.5885 111.574 65.5915 111.595 65.5988C111.616 65.606 111.635 65.6173 111.652 65.632C111.668 65.6467 111.682 65.6645 111.691 65.6843C111.701 65.7042 111.707 65.7258 111.708 65.7479C111.709 65.77 111.706 65.7921 111.699 65.8129C111.692 65.8338 111.68 65.8531 111.666 65.8696C111.651 65.8861 111.633 65.8996 111.613 65.9092C111.593 65.9189 111.572 65.9245 111.55 65.9258C111.051 65.9587 110.563 66.0838 110.11 66.2948C109.59 66.5379 109.105 66.8512 108.669 67.226L108.516 67.5038C108.177 68.1155 107.83 68.7436 107.465 69.3795C107.462 69.386 107.458 69.3923 107.454 69.3981C107.072 70.0636 106.671 70.7379 106.237 71.4121C106.762 71.0546 107.32 70.7489 107.904 70.4996C108.678 70.1663 109.506 69.9733 110.347 69.9296C110.39 69.9305 110.431 69.9477 110.462 69.9777C110.493 70.0076 110.511 70.0481 110.513 70.091C110.515 70.1339 110.5 70.1759 110.472 70.2085C110.445 70.2411 110.405 70.262 110.363 70.2668C109.56 70.3106 108.772 70.4965 108.035 70.8158C107.198 71.1792 106.414 71.6535 105.703 72.2259C105.087 73.1372 104.417 74.011 103.697 74.8427C103.331 75.2622 102.944 75.6755 102.536 76.0826C104.052 75.5967 105.664 75.4903 107.231 75.7729C107.269 75.7857 107.302 75.812 107.323 75.8468C107.343 75.8816 107.351 75.9228 107.344 75.9627C107.337 76.0026 107.316 76.0387 107.284 76.0643C107.253 76.0899 107.213 76.1034 107.173 76.1023C106.295 75.9447 105.399 75.9118 104.512 76.0046C103.629 76.101 102.763 76.3183 101.939 76.6503C101.62 76.9431 101.288 77.2323 100.942 77.5178L100.434 77.4937C101.519 76.6333 102.522 75.6745 103.431 74.6297C103.815 73.887 104.051 73.0771 104.127 72.2445C104.208 71.3043 104.141 70.3572 103.929 69.4377C103.919 69.394 103.927 69.3483 103.952 69.3107C103.976 69.2732 104.014 69.2467 104.058 69.2372C104.101 69.2278 104.147 69.2361 104.185 69.2603C104.222 69.2845 104.249 69.3226 104.258 69.3663C104.478 70.32 104.548 71.3023 104.465 72.2775C104.417 72.7792 104.315 73.2744 104.161 73.7545C105.342 72.272 106.3 70.7379 107.156 69.2521C107.253 68.6078 107.289 67.9561 107.266 67.3051C107.255 66.8361 107.161 66.3728 106.988 65.9368C106.97 65.8959 106.969 65.8495 106.986 65.8079C107.002 65.7663 107.034 65.7329 107.075 65.7149C107.116 65.697 107.162 65.6961 107.204 65.7124C107.245 65.7287 107.279 65.7608 107.297 65.8017C107.486 66.2752 107.59 66.7787 107.603 67.2886C107.622 67.6972 107.613 68.1066 107.578 68.5141C107.797 68.1188 108.017 67.7278 108.228 67.3446L108.394 67.0459C108.396 67.0397 108.399 67.0338 108.403 67.0283C109.523 64.9869 110.57 63.1409 111.901 61.7605Z" fill="white"/>
<path fill-rule="evenodd" clip-rule="evenodd" d="M53.9893 15.636C53.7806 18.4911 53.359 18.8898 50.6323 19.1105C53.359 19.3301 53.7806 19.7244 53.9893 22.5839C54.1979 19.7288 54.6196 19.3301 57.3452 19.1105C54.6196 18.8909 54.1979 18.4955 53.9893 15.636ZM65.0718 23.178C64.962 24.7045 64.7358 24.9153 63.2796 25.0328C64.7358 25.1503 64.9609 25.3623 65.0718 26.8876C65.1816 25.3612 65.4089 25.1503 66.864 25.0328C65.4089 24.9153 65.1827 24.7034 65.0718 23.178ZM60.218 11.4279C60.1082 12.974 59.8776 13.1849 58.4039 13.3068C59.8776 13.4265 60.106 13.6362 60.218 15.1857C60.3278 13.6395 60.5584 13.4287 62.0332 13.3068C60.5584 13.1871 60.3311 12.9729 60.218 11.4268V11.4279Z" fill="white"/>
<path fill-rule="evenodd" clip-rule="evenodd" d="M49.9702 62.5202C50.1393 64.8373 50.4808 65.1557 52.6892 65.3358C50.4808 65.5137 50.1393 65.8333 49.9702 68.1504C49.8011 65.8333 49.4595 65.5148 47.2512 65.3358C49.4595 65.1568 49.8011 64.8373 49.9702 62.5202ZM40.9928 68.6313C41.0829 69.8679 41.2651 70.0392 42.4446 70.1336C41.2651 70.2292 41.0829 70.3994 40.9928 71.637C40.9028 70.3994 40.7205 70.2292 39.5411 70.1336C40.7205 70.0392 40.9028 69.8679 40.9928 68.6313ZM44.9242 59.1115C45.0164 60.3645 45.2009 60.5391 46.3946 60.6335C45.2009 60.7302 45.0164 60.9026 44.9242 62.1556C44.833 60.9026 44.6485 60.728 43.4538 60.6335C44.6474 60.5369 44.8363 60.3645 44.9231 59.1115H44.9242Z" fill="white"/>
<path fill-rule="evenodd" clip-rule="evenodd" d="M85.2558 56.8085C85.1273 58.582 84.8649 58.8269 83.1693 58.9642C84.8605 59.1004 85.1229 59.3453 85.2558 61.1188C85.3854 59.3453 85.6467 59.1004 87.3423 58.9642C85.6511 58.8269 85.3898 58.582 85.2558 56.8085ZM92.1302 61.4866C92.061 62.4343 91.9216 62.565 91.0189 62.6375C91.9216 62.7111 92.061 62.8407 92.1302 63.7884C92.1994 62.8407 92.3389 62.7111 93.2426 62.6375C92.3389 62.565 92.1994 62.4343 92.1302 61.4866ZM89.1202 54.1982C89.0499 55.158 88.9082 55.2898 87.9946 55.3634C88.9082 55.438 89.0499 55.5698 89.1202 56.5296C89.1905 55.5698 89.331 55.438 90.2458 55.3634C89.331 55.2898 89.1905 55.158 89.1202 54.1982Z" fill="white"/>
<path fill-rule="evenodd" clip-rule="evenodd" d="M47.2918 63.7303L58.0942 65.7574L58.0053 79.3822L47.3796 77.1782L47.2918 63.7303Z" fill="#8BBAE9"/>
<path d="M58.0053 79.4883H57.9844L47.362 77.2854C47.3385 77.2799 47.3175 77.2668 47.3023 77.2481C47.287 77.2295 47.2783 77.2063 47.2774 77.1822L47.1896 63.7343C47.1894 63.7184 47.1927 63.7026 47.1992 63.6881C47.2057 63.6736 47.2153 63.6606 47.2273 63.6502C47.2394 63.6397 47.2535 63.632 47.2688 63.6276C47.2841 63.6231 47.3001 63.6221 47.3159 63.6245L58.1173 65.6527C58.1422 65.6581 58.1646 65.672 58.1804 65.6921C58.1962 65.7121 58.2046 65.737 58.204 65.7626L58.1162 79.3873C58.1157 79.4029 58.112 79.4182 58.1051 79.4322C58.0983 79.4462 58.0886 79.4586 58.0766 79.4686C58.0559 79.4832 58.0306 79.4902 58.0053 79.4883ZM47.485 77.09L57.9042 79.2511L57.991 65.846L47.4026 63.8573L47.485 77.09Z" fill="#61A0E0"/>
<path fill-rule="evenodd" clip-rule="evenodd" d="M67.0002 62.7812L58.0942 65.7572L58.0052 79.3819L67.088 76.5597L67.0002 62.7812Z" fill="#C3DFFA"/>
<path d="M58.0052 79.4879C57.9827 79.4875 57.9609 79.4803 57.9426 79.4671C57.9293 79.4568 57.9186 79.4437 57.9111 79.4286C57.9037 79.4136 57.8998 79.3971 57.8998 79.3803L57.9876 65.7567C57.9881 65.7345 57.9953 65.713 58.0082 65.6949C58.0211 65.6769 58.0392 65.6632 58.0601 65.6556L66.9661 62.6797C66.9821 62.6748 66.9991 62.6736 67.0157 62.6763C67.0322 62.6789 67.0479 62.6854 67.0616 62.695C67.0752 62.7049 67.0863 62.7178 67.0941 62.7326C67.1019 62.7475 67.1062 62.7639 67.1067 62.7807L67.1945 76.5592C67.1941 76.5818 67.1867 76.6038 67.1734 76.6221C67.16 76.6403 67.1413 76.654 67.1198 76.6613L58.0371 79.4813C58.0269 79.4852 58.0161 79.4874 58.0052 79.4879ZM58.1996 65.8335L58.1128 79.2309L66.9815 76.4757L66.8947 62.9235L58.1996 65.8335Z" fill="#61A0E0"/>
<path fill-rule="evenodd" clip-rule="evenodd" d="M67.0002 62.7818L58.0942 65.7578L47.2918 63.7306L56.9917 60.423L67.0002 62.7818Z" fill="#EFF9FC"/>
<path d="M58.1008 65.8655H58.0745L47.272 63.8372L47.2566 63.6318L56.9862 60.3154L57.0159 60.322L67.0244 62.6808L67.0343 62.8851L58.1008 65.8655ZM47.7091 63.6977L58.0866 65.6469L66.6115 62.7983L56.9972 60.5318L47.7091 63.6977Z" fill="#61A0E0"/>
<path fill-rule="evenodd" clip-rule="evenodd" d="M47.2918 50.1671L58.0942 52.1954L58.0053 65.819L47.3796 63.615L47.2918 50.1671Z" fill="#EFF9FC"/>
<path d="M58.0053 65.925H57.9844L47.362 63.7188C47.3385 63.7133 47.3176 63.7002 47.3023 63.6815C47.287 63.6629 47.2783 63.6397 47.2775 63.6156L47.1896 50.1677C47.1894 50.1518 47.1927 50.136 47.1992 50.1215C47.2058 50.107 47.2153 50.094 47.2274 50.0836C47.2394 50.0731 47.2535 50.0654 47.2688 50.061C47.2841 50.0566 47.3002 50.0555 47.3159 50.0579L58.1173 52.0862C58.1423 52.0915 58.1646 52.1054 58.1804 52.1255C58.1963 52.1455 58.2046 52.1704 58.204 52.196L58.1162 65.8196C58.1162 65.8487 58.1046 65.8767 58.084 65.8973C58.0634 65.9178 58.0355 65.9294 58.0064 65.9294L58.0053 65.925ZM47.485 63.5278L57.9042 65.6889L57.991 52.2827L47.4027 50.2951L47.485 63.5278Z" fill="#61A0E0"/>
<path fill-rule="evenodd" clip-rule="evenodd" d="M67.0001 49.2188L58.0942 52.1947L58.0052 65.8183L67.088 62.9972L67.0001 49.2188Z" fill="#C3DFFA"/>
<path d="M58.0054 65.925C57.9762 65.925 57.9483 65.9134 57.9277 65.8928C57.9071 65.8722 57.8955 65.8443 57.8955 65.8152L57.9834 52.1904C57.9841 52.1684 57.9913 52.1471 58.0043 52.1293C58.0172 52.1115 58.0352 52.098 58.0559 52.0905L66.9618 49.1145C66.9778 49.1094 66.9947 49.1081 67.0113 49.1106C67.0278 49.1131 67.0436 49.1193 67.0574 49.1288C67.0709 49.1387 67.082 49.1515 67.0898 49.1664C67.0976 49.1812 67.1019 49.1977 67.1024 49.2144L67.1903 62.9929C67.1899 63.0155 67.1825 63.0375 67.1691 63.0558C67.1557 63.0741 67.137 63.0878 67.1156 63.095L58.0328 65.9173C58.0241 65.9211 58.0148 65.9237 58.0054 65.925ZM58.1997 52.2717L58.113 65.6691L66.9816 62.9138L66.8949 49.3605L58.1997 52.2717Z" fill="#61A0E0"/>
<path fill-rule="evenodd" clip-rule="evenodd" d="M67.0002 49.2193L58.0942 52.1953L47.2917 50.167L56.9917 46.8594L67.0002 49.2193Z" fill="#EFF9FC"/>
<path d="M58.1008 52.3053H58.0745L47.272 50.2716L47.2566 50.0662L56.9862 46.7498L57.0159 46.7564L67.0244 49.1163L67.0343 49.3206L58.1008 52.3053ZM47.708 50.1376L58.0866 52.0857L66.6115 49.2371L56.9972 46.9705L47.708 50.1376Z" fill="#61A0E0"/>
<path fill-rule="evenodd" clip-rule="evenodd" d="M18.1523 65.4669L28.9559 67.4952L28.8669 81.1188L18.2412 78.9148L18.1523 65.4669Z" fill="#FC9774"/>
<path d="M28.8671 81.2264C28.8602 81.2274 28.8531 81.2274 28.8462 81.2264L18.2194 79.0213C18.196 79.0157 18.175 79.0026 18.1597 78.984C18.1444 78.9653 18.1357 78.9422 18.1349 78.918L18.047 65.4701C18.0466 65.4544 18.0499 65.4387 18.0566 65.4244C18.0632 65.4101 18.0731 65.3976 18.0855 65.3878C18.0975 65.378 18.1114 65.3709 18.1264 65.367C18.1413 65.363 18.1569 65.3622 18.1722 65.3647L28.9758 67.393C29.0006 67.3986 29.0226 67.4126 29.0383 67.4326C29.0539 67.4526 29.0621 67.4774 29.0614 67.5028L28.9736 81.1264C28.9736 81.1555 28.962 81.1835 28.9414 81.2041C28.9208 81.2247 28.8929 81.2362 28.8638 81.2362L28.8671 81.2264ZM18.3468 78.8236L28.7617 80.9859L28.8484 67.5797L18.2612 65.5953L18.3468 78.8236Z" fill="#61A0E0"/>
<path fill-rule="evenodd" clip-rule="evenodd" d="M37.862 64.5196L28.9561 67.4966L28.8671 81.1203L37.9499 78.298L37.862 64.5196Z" fill="#C3DFFA"/>
<path d="M28.867 81.2251C28.8441 81.225 28.8218 81.2177 28.8033 81.2043C28.7901 81.1941 28.7794 81.1812 28.772 81.1663C28.7646 81.1515 28.7606 81.1352 28.7604 81.1186L28.8494 67.4939C28.8501 67.4719 28.8573 67.4506 28.8703 67.4328C28.8832 67.4149 28.9012 67.4014 28.9219 67.394L37.8278 64.418C37.8437 64.4124 37.8607 64.4108 37.8774 64.4132C37.894 64.4157 37.9098 64.4222 37.9234 64.4322C37.9369 64.4421 37.948 64.455 37.9558 64.4698C37.9636 64.4847 37.9679 64.5011 37.9684 64.5179L38.0563 78.2964C38.0559 78.319 38.0485 78.341 38.0351 78.3593C38.0217 78.3775 38.003 78.3912 37.9816 78.3985L28.8988 81.2207C28.8885 81.2237 28.8777 81.2252 28.867 81.2251ZM29.0613 67.5719L28.9746 80.9693L37.8432 78.2129L37.7565 64.6607L29.0613 67.5719Z" fill="#61A0E0"/>
<path fill-rule="evenodd" clip-rule="evenodd" d="M37.8618 64.519L28.9559 67.4961L18.1523 65.4678L27.8533 62.1602L37.8618 64.519Z" fill="#EFF9FC"/>
<path d="M28.9626 67.6057H28.9362L18.1338 65.5774L18.1184 65.372L27.848 62.0556L27.8776 62.0622L37.8862 64.421L37.8949 64.6253L28.9626 67.6057ZM18.5697 65.4368L28.9483 67.386L37.4787 64.5375L27.8645 62.2709L18.5697 65.4368Z" fill="#61A0E0"/>
<path fill-rule="evenodd" clip-rule="evenodd" d="M33.5461 69.6778C35.4964 69.3198 37.0778 70.6112 37.0778 72.5615C37.0778 74.5118 35.4964 76.382 33.5461 76.7345C31.5958 77.087 30.0156 75.801 30.0156 73.8507C30.0156 71.9004 31.5969 70.038 33.5461 69.6778Z" fill="#8BBAE9"/>
<path fill-rule="evenodd" clip-rule="evenodd" d="M33.5254 69.5696C33.7428 69.5298 33.9633 69.5092 34.1843 69.5081C34.8867 69.4982 35.5705 69.7344 36.117 70.1758C36.6526 70.6222 37.0109 71.2454 37.1273 71.9328C37.1655 72.1411 37.1846 72.3525 37.1844 72.5643C37.165 73.579 36.7895 74.5547 36.1236 75.3206C35.4717 76.1081 34.5686 76.6471 33.566 76.847C33.3487 76.8875 33.1282 76.9081 32.9071 76.9085C32.2314 76.9176 31.5722 76.6999 31.0348 76.2903L30.2661 77.1216L30.1914 77.2028L30.1112 77.1282L29.6423 76.6889L29.5633 76.6153L29.6368 76.5341L30.444 75.6555C30.2018 75.3014 30.0378 74.8997 29.963 74.4772C29.9257 74.2692 29.907 74.0582 29.907 73.8469C29.9262 72.8318 30.3017 71.8557 30.9678 71.0894C31.6209 70.3046 32.5238 69.768 33.5254 69.5696ZM30.8646 76.1497C30.7611 76.0543 30.6646 75.9515 30.5758 75.8422L29.8697 76.6109L30.1782 76.8975L30.8646 76.1541V76.1497ZM31.0139 75.9883L32.9906 73.8502L33.0653 73.7689L33.1454 73.8447L33.6034 74.2697L34.7015 71.689L32.2142 72.9783L32.6765 73.4087L32.7567 73.4823L32.682 73.5636L30.7262 75.6797C30.8134 75.7903 30.9097 75.8935 31.0139 75.9883ZM33.0762 74.0797L31.1819 76.1288C31.6786 76.5007 32.2845 76.6976 32.9049 76.6889C33.1132 76.6871 33.3208 76.6665 33.5254 76.6274C34.4797 76.4365 35.3391 75.9227 35.9589 75.1724C36.591 74.4459 36.9478 73.5204 36.967 72.5577C36.9672 72.3595 36.9496 72.1618 36.9143 71.9669C36.8067 71.3306 36.4753 70.7538 35.9797 70.3405C35.4722 69.932 34.8379 69.7137 34.1865 69.7233C33.978 69.724 33.7699 69.7435 33.5649 69.7815C32.6113 69.9727 31.7525 70.4861 31.1325 71.2355C30.5004 71.9624 30.1436 72.8882 30.1244 73.8513C30.1236 74.0494 30.1413 74.2472 30.1771 74.4421C30.2436 74.8179 30.386 75.1762 30.5955 75.4952L32.4481 73.4911L31.9506 73.0288L31.8408 72.919L31.9792 72.8476L34.8728 71.3563L35.0244 71.4969L33.745 74.4992L33.6835 74.6431L33.5737 74.5332L33.0762 74.0797Z" fill="#61A0E0"/>
<path fill-rule="evenodd" clip-rule="evenodd" d="M30.1849 77.0475L33.0719 73.9243L33.644 74.4558L34.9223 71.4502L32.0275 72.9525L32.603 73.4884L29.7159 76.6115L30.1849 77.0475Z" fill="white"/>
<path fill-rule="evenodd" clip-rule="evenodd" d="M24.023 76.4217L22.0354 76.1055V76.7918L24.023 77.1092V76.4217Z" fill="#C3DFFA"/>
<path fill-rule="evenodd" clip-rule="evenodd" d="M24.0045 76.034C24.0656 76.0179 24.119 75.9808 24.1554 75.9291C24.1917 75.8775 24.2087 75.8147 24.2033 75.7517V75.7034C24.2274 74.3615 25.4112 74.1726 25.5046 72.7C25.5129 72.5903 25.5129 72.4802 25.5046 72.3705C25.319 71.212 24.2472 70.2841 23.0414 70.0919C21.6676 69.8723 20.4663 70.6662 20.5552 72.0751C20.6453 73.5335 21.772 74.0793 21.7939 75.3871C21.7939 75.5288 21.9455 75.7166 22.074 75.7243L24.0045 76.034Z" fill="#61A0E0"/>
<path fill-rule="evenodd" clip-rule="evenodd" d="M23.9714 75.8751L23.4586 76.2408L22.5098 75.8608L22.0706 75.572H22.064C22.0189 75.5632 21.9541 75.4622 21.9541 75.4117C21.9403 74.9509 21.8059 74.5018 21.5643 74.1092C21.3897 73.7985 21.1854 73.5031 21.024 73.1846C20.8452 72.8466 20.7397 72.4746 20.7143 72.0931C20.6752 71.6564 20.8049 71.2214 21.0767 70.8774C21.5259 70.3283 22.2935 70.1285 23.0479 70.2482C24.1131 70.4173 25.1739 71.2365 25.354 72.3676C25.3611 72.467 25.3611 72.5668 25.354 72.6663C25.3348 73.033 25.2213 73.3885 25.0246 73.6985C24.8533 73.9742 24.6358 74.2125 24.4524 74.4793C24.1972 74.8275 24.0574 75.2468 24.0527 75.6785V75.7268C24.0567 75.757 24.051 75.7876 24.0364 75.8143C24.0218 75.8409 23.999 75.8622 23.9714 75.8751Z" fill="#C3DFFA"/>
<path fill-rule="evenodd" clip-rule="evenodd" d="M23.2983 75.9541L23.1094 76.1035L22.5043 75.8608L22.0651 75.572H22.0585C22.0134 75.5632 21.9487 75.4622 21.9487 75.4117C21.9348 74.9509 21.8004 74.5018 21.5588 74.1092C21.3842 73.7985 21.1799 73.5031 21.0185 73.1846C20.8397 72.8466 20.7342 72.4746 20.7088 72.0931C20.6698 71.6564 20.7994 71.2214 21.0712 70.8774C21.5204 70.3283 22.288 70.1285 23.0424 70.2482C23.2709 70.2857 23.4943 70.3498 23.7079 70.4392C24.2306 70.8541 24.5793 71.4495 24.6852 72.1084C24.6925 72.2181 24.6925 72.3282 24.6852 72.4379C24.6659 72.8352 24.5531 73.2224 24.3558 73.5679C24.1834 73.8721 23.967 74.1356 23.7837 74.4288C23.525 74.8198 23.3861 75.2778 23.3839 75.7466V75.7993C23.386 75.8306 23.379 75.8618 23.3638 75.8893C23.3487 75.9168 23.3259 75.9393 23.2983 75.9541Z" fill="#DFEDFA"/>
<path fill-rule="evenodd" clip-rule="evenodd" d="M21.9629 76.9395C21.9729 77.0171 22.0072 77.0896 22.0608 77.1466C22.1145 77.2036 22.1847 77.2422 22.2616 77.2569L22.4901 77.2931L22.5801 77.4523C22.5942 77.488 22.619 77.5185 22.651 77.5397C22.683 77.561 22.7207 77.5718 22.7591 77.5709L23.2983 77.6566C23.3971 77.672 23.4268 77.672 23.4773 77.5962L23.5673 77.4644L23.7969 77.5007C23.8309 77.5076 23.8661 77.5073 23.9001 77.4997C23.9341 77.4922 23.9661 77.4776 23.994 77.4569C24.022 77.4362 24.0453 77.4098 24.0624 77.3795C24.0795 77.3492 24.09 77.3157 24.0933 77.281V77.1712C24.0892 77.1533 24.0799 77.1371 24.0666 77.1244C24.0534 77.1117 24.0367 77.1032 24.0187 77.0998L22.042 76.7847C22.0256 76.7814 22.0085 76.7846 21.9944 76.7936C21.9803 76.8026 21.9702 76.8167 21.9662 76.833C21.9662 76.833 21.9662 76.8429 21.9662 76.844V76.9318L21.9629 76.9395ZM23.9901 76.5727C24.0199 76.5773 24.0471 76.5921 24.0671 76.6145C24.0872 76.6369 24.0988 76.6657 24.0999 76.6957V76.8593C24.1006 76.8731 24.0979 76.8868 24.0923 76.8993C24.0867 76.9118 24.0782 76.9229 24.0675 76.9315C24.0568 76.9402 24.0442 76.9462 24.0308 76.9491C24.0174 76.952 24.0034 76.9517 23.9901 76.9483L22.0673 76.6419C22.0376 76.6376 22.0104 76.623 21.9904 76.6008C21.9703 76.5785 21.9587 76.55 21.9575 76.52V76.3564C21.9568 76.3427 21.9595 76.329 21.9651 76.3164C21.9707 76.3039 21.9792 76.2929 21.9899 76.2842C22.0006 76.2756 22.0132 76.2695 22.0266 76.2666C22.04 76.2637 22.054 76.264 22.0673 76.2674L23.9901 76.5727ZM23.9901 76.0335L22.0761 75.7283C22.0626 75.7256 22.0486 75.7261 22.0353 75.7295C22.022 75.733 22.0097 75.7393 21.9991 75.7482C21.9886 75.757 21.9802 75.7681 21.9745 75.7806C21.9688 75.7931 21.966 75.8068 21.9662 75.8205V75.9918C21.9672 76.0224 21.9787 76.0517 21.9987 76.0749C22.0186 76.098 22.046 76.1137 22.0761 76.1192L23.9901 76.4234C24.0036 76.4262 24.0176 76.4259 24.031 76.4226C24.0444 76.4192 24.0569 76.4129 24.0675 76.404C24.078 76.3951 24.0865 76.3839 24.0921 76.3713C24.0977 76.3587 24.1004 76.3449 24.0999 76.3311V76.1609C24.0987 76.1297 24.0867 76.0999 24.0658 76.0766C24.045 76.0534 24.0166 76.0381 23.9857 76.0335H23.9901Z" fill="#61A0E0"/>
<path fill-rule="evenodd" clip-rule="evenodd" d="M23.3322 75.928L23.5365 73.4978L23.8308 73.545C23.8884 73.5558 23.9478 73.5539 24.0046 73.5395C24.0615 73.5251 24.1146 73.4985 24.1602 73.4615C24.2038 73.4237 24.2386 73.3767 24.2621 73.324C24.2857 73.2712 24.2973 73.214 24.2964 73.1562C24.2933 73.0275 24.2451 72.9039 24.1602 72.807C24.0762 72.7073 23.9594 72.6407 23.8308 72.6193C23.7753 72.609 23.7183 72.6109 23.6636 72.625C23.609 72.639 23.5581 72.6648 23.5145 72.7005C23.4285 72.7771 23.3761 72.8844 23.3684 72.9992L23.3454 73.2595L22.4438 73.1167L22.4207 72.8488C22.4086 72.721 22.3572 72.6002 22.2736 72.5028C22.1935 72.4068 22.0817 72.3426 21.9584 72.3217C21.9007 72.3107 21.8414 72.3124 21.7844 72.3268C21.7275 72.3413 21.6745 72.368 21.629 72.4051C21.585 72.4427 21.5499 72.4896 21.5264 72.5424C21.5028 72.5952 21.4914 72.6526 21.4928 72.7104C21.4948 72.839 21.5432 72.9626 21.629 73.0585C21.713 73.1582 21.8298 73.2248 21.9584 73.2463L22.2527 73.2935L22.4559 75.7885L22.6645 75.8215L22.4614 73.332L23.3278 73.4703L23.1246 75.9005L23.3322 75.9335V75.928ZM23.5518 73.2924L23.5738 73.0497C23.5776 72.9811 23.6084 72.9167 23.6594 72.8707C23.6829 72.8517 23.7101 72.838 23.7392 72.8304C23.7684 72.8228 23.7989 72.8216 23.8286 72.8268C23.8989 72.8397 23.9625 72.8765 24.0087 72.9311C24.0557 72.9842 24.0822 73.0524 24.0833 73.1233C24.0841 73.1549 24.0778 73.1863 24.0649 73.2152C24.052 73.2441 24.0328 73.2697 24.0087 73.2902C23.9839 73.3108 23.955 73.3257 23.9239 73.3339C23.8927 73.342 23.8602 73.3432 23.8286 73.3374L23.5518 73.2924ZM22.234 73.0827L21.9573 73.0387C21.8875 73.0258 21.8241 72.9896 21.7776 72.9359C21.7311 72.8822 21.7042 72.8143 21.7014 72.7433C21.7011 72.7115 21.7078 72.68 21.7209 72.651C21.7339 72.622 21.7532 72.5962 21.7772 72.5753C21.802 72.5549 21.831 72.5402 21.8621 72.5323C21.8933 72.5243 21.9257 72.5232 21.9573 72.5292C22.0231 72.5409 22.0826 72.5756 22.1253 72.6269C22.175 72.6851 22.2053 72.7572 22.2121 72.8334L22.234 73.0827Z" fill="white"/>
<path fill-rule="evenodd" clip-rule="evenodd" d="M22.1343 70.8158C22.1503 70.8115 22.1651 70.8036 22.1776 70.7928C22.1901 70.7819 22.2 70.7684 22.2066 70.7532C22.2131 70.738 22.2162 70.7215 22.2154 70.7049C22.2147 70.6884 22.2102 70.6722 22.2024 70.6576C22.19 70.6242 22.1663 70.5962 22.1354 70.5786C22.1045 70.5609 22.0683 70.5547 22.0333 70.561C21.9812 70.5747 21.9298 70.5912 21.8795 70.6104C21.8301 70.6289 21.7817 70.6502 21.7346 70.6741C21.7202 70.6826 21.7077 70.6939 21.698 70.7075C21.6882 70.7211 21.6815 70.7365 21.678 70.7529C21.6746 70.7692 21.6747 70.7861 21.6782 70.8024C21.6817 70.8187 21.6885 70.8341 21.6983 70.8476C21.715 70.8788 21.7426 70.9027 21.7759 70.9147C21.8092 70.9266 21.8457 70.9258 21.8784 70.9124C21.9191 70.8926 21.9597 70.8751 22.0036 70.8586C22.0475 70.8421 22.0904 70.8279 22.1343 70.8158ZM21.5622 71.1452C21.5846 71.1187 21.5958 71.0846 21.5936 71.05C21.5913 71.0154 21.5757 70.983 21.5501 70.9596C21.5392 70.9464 21.5258 70.9356 21.5106 70.9276C21.4955 70.9196 21.4789 70.9147 21.4618 70.9132C21.4448 70.9116 21.4276 70.9135 21.4113 70.9186C21.3949 70.9238 21.3798 70.9321 21.3667 70.9432C21.2266 71.0817 21.1167 71.2477 21.0438 71.4307C20.9695 71.6207 20.9322 71.8231 20.934 72.027C20.9349 72.0633 20.9483 72.0982 20.9719 72.1258C20.9955 72.1534 21.0279 72.172 21.0636 72.1786C21.0796 72.1815 21.096 72.1809 21.1117 72.1767C21.1274 72.1725 21.142 72.1648 21.1544 72.1543C21.1668 72.1438 21.1767 72.1307 21.1834 72.1159C21.1901 72.1011 21.1935 72.085 21.1932 72.0688C21.1921 71.8951 21.2246 71.7228 21.2887 71.5614C21.3489 71.4021 21.4421 71.2572 21.5622 71.1364V71.1452Z" fill="white"/>
<path fill-rule="evenodd" clip-rule="evenodd" d="M58.0217 65.9346L68.8242 67.9639L68.7364 81.5876L58.1096 79.3825L58.0217 65.9346Z" fill="#C3DFFA"/>
<path d="M68.7363 81.6939H68.7144L58.0887 79.4822C58.0652 79.4767 58.0442 79.4636 58.0289 79.4449C58.0136 79.4263 58.0049 79.4031 58.0041 79.379L57.9152 65.9311C57.9153 65.9154 57.9188 65.8999 57.9255 65.8857C57.9321 65.8715 57.9417 65.8589 57.9536 65.8487C57.9658 65.8388 57.9799 65.8316 57.995 65.8277C58.0102 65.8237 58.026 65.823 58.0415 65.8256L68.8439 67.8539C68.8689 67.8593 68.8912 67.8732 68.9071 67.8932C68.9229 67.9133 68.9313 67.9382 68.9307 67.9637L68.8428 81.5885C68.8424 81.604 68.8386 81.6193 68.8318 81.6333C68.825 81.6474 68.8153 81.6598 68.8033 81.6697C68.7843 81.685 68.7607 81.6935 68.7363 81.6939ZM58.2161 79.2955L68.6309 81.4589L68.7177 68.0538L58.1293 66.065L58.2161 79.2955Z" fill="#61A0E0"/>
<path fill-rule="evenodd" clip-rule="evenodd" d="M77.7302 64.9854L68.8243 67.9624L68.7364 81.5861L77.8192 78.7638L77.7302 64.9854Z" fill="#C3DFFA"/>
<path d="M68.7363 81.6935C68.7134 81.6933 68.6911 81.686 68.6726 81.6726C68.6593 81.6624 68.6485 81.6492 68.6411 81.6342C68.6337 81.6191 68.6298 81.6026 68.6298 81.5858L68.7176 67.9622C68.7183 67.9402 68.7256 67.9189 68.7385 67.9011C68.7514 67.8833 68.7694 67.8698 68.7901 67.8623L77.6972 64.8852C77.7131 64.8798 77.7302 64.8783 77.7468 64.881C77.7635 64.8837 77.7792 64.8904 77.7927 64.9006C77.806 64.9106 77.8169 64.9235 77.8245 64.9383C77.8322 64.9532 77.8363 64.9696 77.8366 64.9862L77.9245 78.7647C77.9241 78.7873 77.9167 78.8093 77.9033 78.8276C77.89 78.8459 77.8713 78.8596 77.8498 78.8668L68.7681 81.688C68.7578 81.6914 68.7471 81.6932 68.7363 81.6935ZM68.9296 68.0402L68.8439 81.4376L77.7125 78.6823L77.6258 65.1301L68.9296 68.0402Z" fill="#61A0E0"/>
<path fill-rule="evenodd" clip-rule="evenodd" d="M77.7302 64.9867L68.8242 67.9637L58.0217 65.9344L67.7217 62.6278L77.7302 64.9867Z" fill="#EFF9FC"/>
<path d="M68.8319 68.0726H68.8045L58.002 66.0443L57.9877 65.839L67.7162 62.5215L67.7458 62.5292L77.7555 64.888L77.7642 65.0922L68.8319 68.0726ZM58.439 65.9038L68.8165 67.853L77.3415 65.0044L67.7261 62.7378L58.439 65.9038Z" fill="#61A0E0"/>
<path fill-rule="evenodd" clip-rule="evenodd" d="M58.0217 52.3719L68.8242 54.4002L68.7363 68.025L58.1096 65.8199L58.0217 52.3719Z" fill="#8BBAE9"/>
<path d="M68.7363 68.1308H68.7143L58.0887 65.9257C58.0652 65.9202 58.0442 65.9071 58.0289 65.8884C58.0136 65.8698 58.0049 65.8466 58.0041 65.8225L57.9152 52.3746C57.9153 52.3589 57.9188 52.3434 57.9255 52.3292C57.9321 52.315 57.9417 52.3024 57.9536 52.2922C57.9658 52.2823 57.9799 52.2752 57.995 52.2712C58.0102 52.2672 58.026 52.2665 58.0415 52.2692L68.8439 54.2963C68.8689 54.3017 68.8912 54.3156 68.9071 54.3356C68.9229 54.3557 68.9313 54.3806 68.9307 54.4062L68.8428 68.0309C68.8425 68.0466 68.8389 68.0621 68.832 68.0763C68.8252 68.0906 68.8154 68.1031 68.8033 68.1132C68.7835 68.1262 68.76 68.1323 68.7363 68.1308ZM58.2161 65.7335L68.6309 67.8947L68.7176 54.4885L58.1293 52.5009L58.2161 65.7335Z" fill="#61A0E0"/>
<path fill-rule="evenodd" clip-rule="evenodd" d="M77.7302 51.4238L68.8243 54.3998L68.7364 68.0245L77.8192 65.2023L77.7302 51.4238Z" fill="#C3DFFA"/>
<path d="M68.7363 68.1308C68.7135 68.131 68.6913 68.1241 68.6726 68.111C68.6593 68.1008 68.6485 68.0877 68.6411 68.0726C68.6337 68.0576 68.6298 68.0411 68.6298 68.0243L68.7176 54.3996C68.7183 54.3776 68.7256 54.3563 68.7385 54.3385C68.7514 54.3207 68.7694 54.3071 68.7901 54.2996L77.6972 51.3237C77.713 51.3192 77.7297 51.3184 77.7459 51.3212C77.7621 51.324 77.7775 51.3305 77.7909 51.3401C77.8043 51.3497 77.8154 51.3622 77.8233 51.3766C77.8312 51.3911 77.8358 51.4071 77.8366 51.4236L77.9245 65.2021C77.9241 65.2247 77.9167 65.2467 77.9033 65.265C77.89 65.2832 77.8713 65.2969 77.8498 65.3042L68.7681 68.1264C68.7578 68.1294 68.7471 68.1309 68.7363 68.1308ZM68.9296 54.4775L68.8439 67.875L77.7125 65.1197L77.6258 51.5664L68.9296 54.4775Z" fill="#61A0E0"/>
<path fill-rule="evenodd" clip-rule="evenodd" d="M77.7302 51.4242L68.8242 54.4002L58.0217 52.372L67.7217 49.0654L77.7302 51.4242Z" fill="#EFF9FC"/>
<path d="M68.8319 54.5096H68.8045L58.002 52.4814L57.9877 52.2771L67.7162 48.9541L67.7458 48.9618L77.7555 51.3206L77.7642 51.5249L68.8319 54.5096ZM58.439 52.343L68.8165 54.2911L77.3415 51.4425L67.7272 49.1737L58.439 52.343Z" fill="#61A0E0"/>
<path fill-rule="evenodd" clip-rule="evenodd" d="M68.9659 68.2334L79.7684 70.2617L79.6805 83.8853L69.0537 81.6802L68.9659 68.2334Z" fill="#EFF9FC"/>
<path d="M79.6805 83.9921H79.6585L69.0329 81.7882C69.0094 81.7826 68.9884 81.7695 68.9731 81.7509C68.9578 81.7322 68.9491 81.709 68.9483 81.6849L68.8594 68.237C68.8592 68.2211 68.8625 68.2053 68.869 68.1908C68.8755 68.1763 68.8851 68.1633 68.8971 68.1529C68.9091 68.1425 68.9233 68.1347 68.9385 68.1303C68.9538 68.1259 68.9699 68.1248 68.9856 68.1272L79.7881 70.1555C79.8131 70.1608 79.8354 70.1747 79.8513 70.1948C79.8671 70.2148 79.8754 70.2397 79.8749 70.2653L79.787 83.89C79.787 83.9191 79.7754 83.9471 79.7549 83.9677C79.7343 83.9882 79.7063 83.9998 79.6772 83.9998L79.6805 83.9921ZM69.1602 81.5938L79.5751 83.7549L79.6618 70.3498L69.0735 68.3611L69.1602 81.5938Z" fill="#61A0E0"/>
<path fill-rule="evenodd" clip-rule="evenodd" d="M88.6743 67.2842L79.7683 70.2613L79.6805 83.8849L88.7633 81.0626L88.6743 67.2842Z" fill="#C3DFFA"/>
<path d="M79.6804 83.9926C79.6576 83.9924 79.6353 83.9852 79.6167 83.9717C79.6035 83.9615 79.5927 83.9484 79.5853 83.9333C79.5778 83.9183 79.574 83.9017 79.5739 83.885L79.6618 70.2614C79.6624 70.2394 79.6697 70.2181 79.6826 70.2002C79.6956 70.1824 79.7135 70.1689 79.7342 70.1614L88.6413 67.1854C88.6572 67.1799 88.6742 67.1782 88.6909 67.1807C88.7075 67.1832 88.7233 67.1897 88.7369 67.1997C88.7502 67.2097 88.7611 67.2226 88.7687 67.2375C88.7763 67.2523 88.7805 67.2687 88.7808 67.2854L88.8697 81.0638C88.8693 81.0866 88.8617 81.1087 88.8481 81.127C88.8346 81.1453 88.8156 81.1589 88.794 81.166L79.7123 83.9849C79.7021 83.989 79.6914 83.9916 79.6804 83.9926ZM79.8737 70.3393L79.7881 83.7367L88.6567 80.9815L88.5699 67.4292L79.8737 70.3393Z" fill="#61A0E0"/>
<path fill-rule="evenodd" clip-rule="evenodd" d="M88.6743 67.2856L79.7684 70.2626L68.9659 68.2343L78.6658 64.9267L88.6743 67.2856Z" fill="#8BBAE9"/>
<path d="M79.7761 70.3674H79.7486L68.9462 68.3392L68.9319 68.1338L78.6604 64.8174L78.69 64.824L88.6997 67.1828L88.7084 67.3871L79.7761 70.3674ZM69.3832 68.1986L79.7574 70.1478L88.2835 67.2992L78.6681 65.0326L69.3832 68.1986Z" fill="#61A0E0"/>
<path fill-rule="evenodd" clip-rule="evenodd" d="M47.2917 36.5176L58.0942 38.5459L58.0053 52.1695L47.3796 49.9655L47.2917 36.5176Z" fill="#C3DFFA"/>
<path d="M58.0053 52.277H57.9844L47.362 50.0708C47.3386 50.0653 47.3176 50.0522 47.3023 50.0335C47.287 50.0148 47.2783 49.9917 47.2775 49.9676L47.1896 36.5197C47.1893 36.5039 47.1926 36.4883 47.1993 36.474C47.206 36.4597 47.2158 36.4472 47.2281 36.4373C47.2399 36.4269 47.254 36.4195 47.2693 36.4155C47.2845 36.4115 47.3005 36.411 47.3159 36.4142L58.1173 38.4414C58.1423 38.4468 58.1646 38.4607 58.1804 38.4807C58.1963 38.5008 58.2046 38.5257 58.204 38.5512L58.1162 52.1759C58.1162 52.2051 58.1046 52.233 58.084 52.2536C58.0634 52.2742 58.0355 52.2858 58.0064 52.2858L58.0053 52.277ZM47.485 49.8797L57.9043 52.0409L57.9866 38.6314L47.3983 36.6437L47.485 49.8797Z" fill="#61A0E0"/>
<path fill-rule="evenodd" clip-rule="evenodd" d="M67.0001 35.5695L58.0942 38.5466L58.0052 52.1702L67.088 49.3491L67.0001 35.5695Z" fill="#8BBAE9"/>
<path d="M58.0054 52.2764C57.9762 52.2764 57.9483 52.2648 57.9277 52.2442C57.9071 52.2236 57.8955 52.1957 57.8955 52.1666L57.9834 38.5419C57.9841 38.5199 57.9913 38.4986 58.0043 38.4808C58.0172 38.4629 58.0352 38.4494 58.0559 38.4419L66.9618 35.466C66.9777 35.4603 66.9947 35.4586 67.0114 35.4611C67.0281 35.4636 67.0439 35.4702 67.0574 35.4802C67.0709 35.4901 67.082 35.503 67.0898 35.5178C67.0976 35.5327 67.1019 35.5491 67.1024 35.5659L67.1903 49.3443C67.1899 49.367 67.1825 49.389 67.1691 49.4072C67.1557 49.4255 67.137 49.4392 67.1156 49.4465L58.0328 52.2687C58.0241 52.2726 58.0148 52.2752 58.0054 52.2764ZM58.1997 38.6231L58.113 52.0282L66.9816 49.273L66.8949 35.7196L58.1997 38.6231Z" fill="#61A0E0"/>
<path fill-rule="evenodd" clip-rule="evenodd" d="M67.0002 35.5698L58.0942 38.5468L47.2917 36.5186L56.9917 33.2109L67.0002 35.5698Z" fill="#EFF9FC"/>
<path d="M58.1008 38.6561L58.0745 38.6506L47.272 36.6224L47.2566 36.417L56.9862 33.1006L57.0159 33.1072L67.0244 35.466L67.0343 35.6703L58.1008 38.6561ZM47.7091 36.4884L58.0866 38.4365L66.6115 35.5879L56.9972 33.3213L47.7091 36.4884Z" fill="#61A0E0"/>
<path d="M60.2367 31.0038H52.9175V33.5328H60.2367V31.0038Z" fill="#C3DFFA"/>
<path fill-rule="evenodd" clip-rule="evenodd" d="M60.1698 29.5967C60.3949 29.5005 60.5854 29.3383 60.7162 29.1314C60.847 28.9245 60.9119 28.6827 60.9022 28.4382V28.2603C60.989 23.3076 65.3409 21.9196 65.6934 16.4409C65.7195 16.0385 65.7162 15.6348 65.6836 15.2329C65.0027 11.0775 61.0527 8.28716 56.6162 8.28716C51.5647 8.28716 47.1358 11.911 47.4598 17.0482C47.7947 22.3632 51.9413 23.7106 52.0237 28.515C52.0237 29.0356 52.5794 29.6351 53.0538 29.5934L60.1698 29.5967Z" fill="#61A0E0"/>
<path fill-rule="evenodd" clip-rule="evenodd" d="M60.0291 29.0299L58.137 30.6772L54.6438 29.8338L53.0284 29.0288H53.0054C52.8395 29.0288 52.5924 28.6741 52.5892 28.5061C52.5628 26.7776 52.0489 25.3929 51.1539 23.9378C50.5115 22.8946 49.7581 21.9271 49.1651 20.8531C48.4951 19.6765 48.1051 18.3613 48.0253 17.0096C47.9039 15.3401 48.3752 13.6813 49.3562 12.3249C51.0111 10.0353 53.8378 8.85037 56.6161 8.85037C60.5354 8.85037 64.4437 11.2465 65.1212 15.2987C65.1492 15.6641 65.1514 16.0311 65.1278 16.3968C65.0425 17.8086 64.6264 19.1805 63.9133 20.4018C63.2818 21.5197 62.4857 22.5245 61.807 23.6139C60.8923 25.0865 60.3673 26.4998 60.3366 28.2634V28.4413C60.3446 28.5583 60.3201 28.6751 60.2658 28.779C60.2115 28.8828 60.1296 28.9697 60.0291 29.0299Z" fill="#C3DFFA"/>
<path fill-rule="evenodd" clip-rule="evenodd" d="M57.5749 29.7131L56.8809 30.372L54.6494 29.8328L53.034 29.0278H53.011C52.8452 29.0278 52.5981 28.6731 52.5948 28.5051C52.5684 26.7766 52.0545 25.3919 51.1595 23.9368C50.5171 22.8936 49.7638 21.9261 49.1708 20.8521C48.5013 19.6752 48.1113 18.3602 48.0309 17.0086C47.9095 15.3391 48.3808 13.6803 49.3618 12.3239C51.0167 10.0343 53.8434 8.84937 56.6217 8.84937C57.448 8.85012 58.2708 8.95565 59.0706 9.16344C60.0321 9.7827 60.8503 10.6001 61.4705 11.561C62.0908 12.522 62.4987 13.6042 62.667 14.7354C62.695 15.1346 62.6972 15.5352 62.6736 15.9346C62.5904 17.4581 62.1759 18.9452 61.459 20.2921C60.8276 21.511 60.0314 22.607 59.3528 23.7941C58.438 25.4007 57.9131 26.9414 57.8824 28.8653V29.0597C57.8769 29.3639 57.7802 29.5714 57.5749 29.7131Z" fill="#DFEDFA"/>
<path fill-rule="evenodd" clip-rule="evenodd" d="M52.654 34.1176C52.6818 34.3898 52.8093 34.642 53.0122 34.8255C53.215 35.0091 53.4786 35.111 53.7522 35.1115H54.5956L54.925 35.6485C55.1128 35.957 55.2237 35.9779 55.5839 35.9779H57.5748C57.9361 35.9779 58.0471 35.9581 58.2337 35.6485L58.5632 35.1115H59.4077C59.6778 35.1116 59.9387 35.0128 60.141 34.8337C60.3433 34.6547 60.4731 34.4078 60.5058 34.1396V33.7531C60.4906 33.6907 60.455 33.6352 60.4047 33.5954C60.3543 33.5556 60.2921 33.5338 60.228 33.5334H52.9341C52.8697 33.5336 52.8073 33.5553 52.7567 33.5951C52.7061 33.6349 52.6704 33.6905 52.6551 33.7531C52.6551 33.764 52.6551 33.7882 52.6551 33.7937V34.1143L52.654 34.1176ZM60.1215 31.5831H53.0373C52.9343 31.5834 52.8356 31.6244 52.7627 31.6973C52.6899 31.7701 52.6488 31.8688 52.6486 31.9719V32.5747C52.6488 32.6778 52.6899 32.7765 52.7627 32.8493C52.8356 32.9221 52.9343 32.9632 53.0373 32.9635H60.1171C60.2201 32.9632 60.3188 32.9221 60.3916 32.8493C60.4645 32.7765 60.5055 32.6778 60.5058 32.5747V31.9719C60.5055 31.8688 60.4645 31.7701 60.3916 31.6973C60.3188 31.6244 60.2201 31.5834 60.1171 31.5831H60.1215ZM60.1006 29.5977H53.0527C52.9457 29.5982 52.8432 29.641 52.7676 29.7167C52.6919 29.7923 52.6491 29.8948 52.6486 30.0018V30.6299C52.6488 30.737 52.6915 30.8396 52.7672 30.9154C52.843 30.9911 52.9456 31.0337 53.0527 31.034H60.1006C60.2079 31.034 60.3108 30.9915 60.3867 30.9157C60.4627 30.84 60.5055 30.7372 60.5058 30.6299V30.0018C60.5052 29.8946 60.4623 29.792 60.3864 29.7163C60.3105 29.6406 60.2078 29.5979 60.1006 29.5977Z" fill="#61A0E0"/>
<path fill-rule="evenodd" clip-rule="evenodd" d="M57.6957 29.5959L58.4446 20.5296H59.5307C59.7551 20.5302 59.9773 20.4864 60.1847 20.4006C60.392 20.3149 60.5803 20.1889 60.7387 20.03C60.9768 19.7915 61.1389 19.4878 61.2043 19.1572C61.2697 18.8266 61.2356 18.484 61.1063 18.1728C60.977 17.8616 60.7583 17.5957 60.4778 17.4089C60.1973 17.2221 59.8677 17.1226 59.5307 17.1232C59.3142 17.1225 59.0998 17.165 58.8999 17.2482C58.7001 17.3313 58.5188 17.4535 58.3667 17.6075C58.0537 17.9279 57.8633 18.348 57.8286 18.7946L57.744 19.7653H54.4221L54.3365 18.7946C54.3014 18.3479 54.1105 17.9278 53.7973 17.6075C53.6454 17.4531 53.4641 17.3306 53.2642 17.2473C53.0643 17.1639 52.8498 17.1213 52.6332 17.1221C52.4088 17.1217 52.1865 17.1658 51.9792 17.2517C51.7719 17.3377 51.5836 17.4638 51.4253 17.6228C51.1873 17.8614 51.0254 18.1652 50.96 18.4958C50.8946 18.8264 50.9288 19.169 51.058 19.4802C51.1873 19.7914 51.406 20.0573 51.6863 20.2443C51.9667 20.4313 52.2962 20.531 52.6332 20.5307H53.7193L54.4693 29.597H55.238L54.4913 20.5307H57.6759L56.9303 29.597L57.6957 29.5959ZM58.5116 19.7642L58.5907 18.8594C58.6101 18.5924 58.7223 18.3406 58.908 18.1477C58.9891 18.0649 59.086 17.9992 59.193 17.9545C59.2999 17.9098 59.4148 17.887 59.5307 17.8875C59.7163 17.8872 59.8978 17.942 60.0523 18.045C60.2067 18.148 60.3271 18.2944 60.3983 18.4659C60.4694 18.6373 60.4881 18.826 60.4519 19.0081C60.4157 19.1901 60.3263 19.3574 60.1951 19.4886C60.0205 19.6639 59.7836 19.763 59.5362 19.7642H58.5116ZM53.6534 19.7642H52.6332C52.4478 19.7639 52.2667 19.7086 52.1128 19.6054C51.9588 19.5021 51.839 19.3554 51.7684 19.184C51.6979 19.0125 51.6798 18.824 51.7164 18.6423C51.7531 18.4606 51.8428 18.2938 51.9743 18.1631C52.1489 17.9879 52.3859 17.8892 52.6332 17.8886C52.749 17.8888 52.8637 17.9119 52.9705 17.9565C53.0774 18.0012 53.1744 18.0666 53.2559 18.1488C53.4414 18.3418 53.5537 18.5935 53.5732 18.8604L53.6534 19.7642Z" fill="white"/>
<path fill-rule="evenodd" clip-rule="evenodd" d="M53.2811 11.476C53.3424 11.4542 53.3987 11.4202 53.4465 11.3759C53.4942 11.3316 53.5324 11.278 53.5586 11.2184C53.5849 11.1589 53.5987 11.0945 53.5992 11.0294C53.5997 10.9643 53.5869 10.8998 53.5616 10.8398C53.5362 10.7798 53.4989 10.7257 53.4519 10.6806C53.4048 10.6356 53.3491 10.6007 53.288 10.578C53.227 10.5553 53.162 10.5453 53.097 10.5487C53.0319 10.552 52.9683 10.5686 52.9099 10.5975C52.7122 10.6809 52.5233 10.771 52.3476 10.8654C52.1719 10.9599 51.9863 11.0708 51.8139 11.185C51.7082 11.255 51.6347 11.3642 51.6094 11.4885C51.5842 11.6128 51.6094 11.742 51.6794 11.8477C51.7495 11.9534 51.8586 12.027 51.9829 12.0522C52.1072 12.0775 52.2364 12.0523 52.3421 11.9822C52.4893 11.8845 52.643 11.7934 52.8001 11.7088C52.9571 11.6242 53.1229 11.5441 53.2811 11.4771V11.476ZM51.1781 13.0013C51.2588 12.9051 51.2985 12.7811 51.2886 12.656C51.2787 12.5309 51.2201 12.4146 51.1254 12.3323C51.0307 12.2499 50.9074 12.2081 50.7821 12.2157C50.6568 12.2234 50.5395 12.2799 50.4555 12.3732C49.9445 12.9599 49.5428 13.6334 49.2695 14.3619C48.9972 15.085 48.8577 15.8514 48.8577 16.6241C48.8636 16.7473 48.9167 16.8634 49.0059 16.9485C49.0952 17.0336 49.2138 17.081 49.3371 17.081C49.4604 17.081 49.5789 17.0336 49.6682 16.9485C49.7574 16.8634 49.8105 16.7473 49.8164 16.6241C49.8145 15.9641 49.9325 15.3092 50.1645 14.6914C50.3993 14.0723 50.7425 13.5 51.1781 13.0013Z" fill="white"/>
<path fill-rule="evenodd" clip-rule="evenodd" d="M56.2866 0.000999451C56.3408 0.000996337 56.3944 0.0117331 56.4444 0.032592C56.4944 0.0534509 56.5397 0.0840181 56.5778 0.12252C56.6159 0.161022 56.646 0.206696 56.6663 0.2569C56.6867 0.307104 56.6968 0.360841 56.6962 0.415V5.5763C56.696 5.68455 56.6528 5.78829 56.5763 5.86484C56.4997 5.94139 56.396 5.98452 56.2877 5.98481C56.1795 5.98452 56.0757 5.94139 55.9992 5.86484C55.9226 5.78829 55.8795 5.68455 55.8792 5.5763V0.415C55.8792 0.306555 55.9222 0.202536 55.9988 0.125751C56.0754 0.0489658 56.1793 0.00568037 56.2877 0.00538963L56.2866 0.000999451ZM41.085 26.8167C41.1358 26.9114 41.2219 26.9824 41.3246 27.0143C41.4274 27.0461 41.5385 27.0363 41.6341 26.9869L46.198 24.5808C46.2929 24.5302 46.3641 24.4442 46.3962 24.3414C46.4283 24.2387 46.4186 24.1274 46.3693 24.0318C46.3186 23.9368 46.2326 23.8656 46.1299 23.8335C46.0271 23.8015 45.9159 23.8111 45.8202 23.8605L41.2563 26.2643C41.1615 26.3152 41.0905 26.4012 41.0585 26.5038C41.0264 26.6065 41.036 26.7177 41.085 26.8134V26.8167ZM38.2924 18.2281C38.2959 18.282 38.31 18.3348 38.3341 18.3833C38.3581 18.4317 38.3915 18.475 38.4324 18.5104C38.4732 18.5459 38.5207 18.5728 38.5721 18.5898C38.6235 18.6067 38.6777 18.6133 38.7316 18.6091L43.8798 18.2709C43.9337 18.2673 43.9864 18.253 44.0348 18.2289C44.0832 18.2049 44.1263 18.1714 44.1618 18.1306C44.1972 18.0898 44.2242 18.0423 44.2412 17.991C44.2582 17.9397 44.2649 17.8855 44.2608 17.8316C44.2572 17.7777 44.2429 17.725 44.2189 17.6766C44.1948 17.6282 44.1614 17.585 44.1205 17.5496C44.0797 17.5142 44.0323 17.4872 43.981 17.4702C43.9296 17.4532 43.8755 17.4465 43.8216 17.4506L38.6734 17.7888C38.6196 17.7926 38.5669 17.8069 38.5186 17.831C38.4703 17.8552 38.4272 17.8886 38.3918 17.9294C38.3564 17.9702 38.3294 18.0176 38.3123 18.0688C38.2953 18.1201 38.2885 18.1742 38.2924 18.2281ZM39.966 9.51865C39.9287 9.62045 39.9334 9.73286 39.9789 9.83125C40.0243 9.92964 40.107 10.006 40.2087 10.0436L45.0482 11.8357C45.15 11.8727 45.2623 11.8679 45.3606 11.8224C45.4589 11.777 45.5353 11.6945 45.5731 11.593C45.6104 11.4914 45.6059 11.3791 45.5606 11.2807C45.5154 11.1824 45.433 11.1059 45.3315 11.0681L40.492 9.27925C40.39 9.24257 40.2777 9.24747 40.1793 9.29287C40.0809 9.33828 40.0043 9.42055 39.966 9.52194V9.51865ZM46.2946 2.58165C46.2081 2.64655 46.1509 2.743 46.1352 2.84997C46.1196 2.95694 46.1469 3.06575 46.2111 3.15268L49.2914 7.2927C49.3562 7.3794 49.4526 7.43687 49.5597 7.45252C49.6667 7.46816 49.7756 7.4407 49.8625 7.37616C49.9489 7.31125 50.0062 7.21481 50.0218 7.10784C50.0375 7.00087 50.0102 6.89206 49.9459 6.80512L46.8711 2.6651C46.8062 2.57834 46.7095 2.52084 46.6023 2.50519C46.4951 2.48955 46.386 2.51704 46.299 2.58165H46.2946ZM71.4883 26.8167C71.4375 26.9114 71.3514 26.9824 71.2486 27.0143C71.1459 27.0461 71.0348 27.0363 70.9392 26.9869L66.3709 24.5819C66.2761 24.5311 66.2052 24.445 66.1733 24.3423C66.1415 24.2395 66.1513 24.1284 66.2007 24.0329C66.2514 23.9379 66.3374 23.8667 66.4401 23.8346C66.5429 23.8026 66.6541 23.8122 66.7498 23.8616L71.3137 26.2676C71.4085 26.3185 71.4795 26.4045 71.5115 26.5071C71.5435 26.6098 71.534 26.7209 71.485 26.8167H71.4883ZM74.2809 18.2281C74.2773 18.282 74.263 18.3347 74.2389 18.3831C74.2149 18.4315 74.1814 18.4746 74.1406 18.5101C74.0998 18.5455 74.0523 18.5725 74.001 18.5895C73.9497 18.6065 73.8955 18.6131 73.8416 18.6091L68.6935 18.2709C68.6395 18.2674 68.5868 18.2532 68.5383 18.2292C68.4898 18.2052 68.4466 18.1718 68.4112 18.1309C68.3757 18.09 68.3487 18.0425 68.3318 17.9912C68.3148 17.9398 68.3083 17.8856 68.3125 17.8316C68.3198 17.7237 68.3695 17.6231 68.4508 17.5517C68.5321 17.4803 68.6383 17.4439 68.7462 17.4506L73.8954 17.7888C73.9493 17.7926 74.0019 17.8069 74.0503 17.831C74.0986 17.8552 74.1417 17.8886 74.1771 17.9294C74.2125 17.9702 74.2395 18.0176 74.2565 18.0688C74.2736 18.1201 74.2804 18.1742 74.2765 18.2281H74.2809ZM72.6062 9.51865C72.6432 9.62047 72.6384 9.73275 72.5929 9.83106C72.5475 9.92937 72.465 10.0057 72.3635 10.0436L67.5251 11.8357C67.4233 11.8727 67.311 11.8679 67.2127 11.8224C67.1144 11.777 67.038 11.6945 67.0002 11.593C66.9624 11.4917 66.9662 11.3795 67.0109 11.2809C67.0555 11.1824 67.1373 11.1055 67.2385 11.067L72.078 9.27815C72.1798 9.24122 72.2921 9.246 72.3904 9.29145C72.4887 9.33691 72.5651 9.41935 72.6029 9.52084L72.6062 9.51865ZM66.2787 2.58165C66.3651 2.64655 66.4224 2.743 66.4381 2.84997C66.4537 2.95694 66.4264 3.06575 66.3621 3.15268L63.2873 7.2927C63.2224 7.37947 63.1257 7.43697 63.0185 7.45261C62.9113 7.46825 62.8022 7.44076 62.7152 7.37616C62.6287 7.31125 62.5715 7.21481 62.5558 7.10784C62.5402 7.00087 62.5675 6.89206 62.6317 6.80512L65.7065 2.6651C65.7715 2.57834 65.8681 2.52084 65.9754 2.50519C66.0826 2.48955 66.1917 2.51704 66.2787 2.58165Z" fill="#FC9774"/>
<path fill-rule="evenodd" clip-rule="evenodd" d="M83.9755 64.5885L83.9645 66.2412L82.1943 65.5933C82.1943 65.5933 81.206 64.0559 79.9332 62.0101C80.7414 61.6587 81.5804 61.36 82.4238 61.0547C83.2968 63.1203 83.9755 64.5885 83.9755 64.5885Z" fill="#FCB88D"/>
<path fill-rule="evenodd" clip-rule="evenodd" d="M82.0832 65.4864C82.0832 65.4864 82.9727 65.2317 83.188 65.0307C83.4032 64.8298 83.5306 64.3345 83.8831 64.3499C84.2356 64.3652 85.4919 65.5216 85.5951 65.8807C85.6983 66.2398 85.683 66.7537 85.4622 66.9536C85.2415 67.1534 81.3497 69.6561 80.5579 69.9065C79.7661 70.1569 79.0908 69.577 79.6344 68.8083C80.1779 68.0396 81.5627 65.4667 82.0832 65.4864Z" fill="#284191"/>
<path fill-rule="evenodd" clip-rule="evenodd" d="M89.0533 44.1875C89.0533 44.1875 73.5134 46.2465 73.2608 48.2001C72.6711 52.7662 81.2948 64.7657 81.2948 64.7657L83.7206 63.7071L79.3698 51.1014C79.3698 51.1014 86.3123 50.4151 86.9316 49.9813C87.551 49.5476 89.0533 44.1875 89.0533 44.1875Z" fill="#3B5BB3"/>
<path fill-rule="evenodd" clip-rule="evenodd" d="M94.9502 74.4034L94.6658 76.033L93.0273 75.1018C93.0273 75.1018 92.3091 73.426 91.3878 71.1913C92.2443 70.9805 93.1207 70.8223 94.0025 70.6609C94.5241 72.8385 94.9502 74.4034 94.9502 74.4034Z" fill="#FCB88D"/>
<path fill-rule="evenodd" clip-rule="evenodd" d="M92.9351 74.9792C92.9351 74.9792 93.8564 74.8694 94.1013 74.7135C94.3462 74.5575 94.5559 74.0842 94.8997 74.1567C95.2434 74.2292 96.2932 75.5755 96.3338 75.9423C96.38 76.3333 96.2767 76.8208 96.0264 76.9834C95.776 77.1459 90.6751 79.195 89.8537 79.3125C89.0322 79.43 88.9104 78.5823 89.5714 77.919C90.2325 77.2557 92.4255 74.8694 92.9351 74.9792Z" fill="#284191"/>
<path fill-rule="evenodd" clip-rule="evenodd" d="M86.242 45.6798L87.7047 43.7647C87.7047 43.7647 92.1775 44.4367 92.7562 46.454C93.3349 48.4713 92.4015 61.2109 92.4015 61.2109C92.4015 61.2109 94.141 69.9346 94.8987 73.0995C94.0202 73.262 92.7847 73.5146 91.9271 73.7265C90.3326 69.8589 87.0513 61.4405 87.0513 61.4405L85.6336 49.844L86.242 45.6798Z" fill="#4567C6"/>
<path fill-rule="evenodd" clip-rule="evenodd" d="M71.9308 42.1113C72.9103 42.0641 72.8796 42.2332 73.0059 42.2211C73.153 42.2123 74.7365 40.989 74.7365 40.989C74.7365 40.989 79.4179 37.4189 79.6639 37.219L82.5861 31.8381L85.6313 32.553C85.6313 32.553 82.2995 38.3194 82.0733 38.5928C81.8471 38.8663 74.9628 42.9393 74.3665 43.3149C74.3665 43.3149 73.8174 44.032 73.466 44.4712C73.1146 44.9105 72.5798 45.1641 72.459 45.2729C72.1341 45.5244 71.7788 45.734 71.4015 45.8966C70.8645 46.1371 71.2653 45.6649 71.2653 45.6649C71.2653 45.6649 72.1822 45.0433 72.1218 44.9797C72.0615 44.916 71.5947 45.297 71.0028 45.5661C70.8513 45.6353 70.702 45.7011 70.5636 45.7604C70.2001 45.9197 69.998 45.7429 70.3527 45.5112C70.5122 45.4069 70.6788 45.3141 70.8513 45.2333C71.0096 45.1474 71.1612 45.0498 71.3048 44.9412C71.4657 44.8492 71.6212 44.748 71.7704 44.6381C71.7518 44.6304 71.7836 44.5558 71.62 44.625C71.4223 44.7051 71.0435 44.9731 70.7415 45.0719C70.5724 45.1279 70.2265 45.2652 70.2265 45.2652C70.2265 45.2652 69.64 45.4255 69.6236 45.3926C69.5291 45.2256 69.9179 44.9884 70.1551 44.9467C70.3144 44.8464 70.4846 44.7646 70.6624 44.7029C70.6624 44.7029 71.3477 44.2637 71.2873 44.1626C71.2269 44.0616 69.3962 44.8127 69.3106 44.6403C69.2436 44.4965 69.7883 44.2494 69.7883 44.2494C69.7883 44.2494 70.1287 44.1275 70.2396 44.0759C70.3681 44.0177 70.7426 43.8101 70.7426 43.8101C70.7426 43.8101 72.0076 43.0414 71.944 42.947C71.8803 42.8525 71.631 42.6944 71.5321 42.7197C71.4333 42.7449 71.2818 42.8712 71.1895 42.8877C71.1338 42.8983 71.0762 42.8892 71.0265 42.862C70.9768 42.8347 70.9381 42.791 70.9172 42.7383C70.8853 42.6197 71.3059 42.3441 71.3059 42.3441C71.3059 42.3441 71.6485 42.1234 71.9308 42.1113Z" fill="#FFB27D"/>
<path fill-rule="evenodd" clip-rule="evenodd" d="M81.4243 33.3378L84.5573 35.108C84.5573 35.108 85.8992 32.4483 86.468 31.147C87.1566 29.5701 87.8572 27.4858 87.6508 27.4474C87.0698 27.3375 86.2836 27.32 85.6027 27.7219C83.2505 29.1209 81.4243 33.3378 81.4243 33.3378Z" fill="#61A0E0"/>
<path fill-rule="evenodd" clip-rule="evenodd" d="M96.7063 49.164C97.2554 48.2701 97.3762 48.3953 97.442 48.2789C97.5222 48.1405 97.4343 46.0123 97.4343 46.0123C97.4343 46.0123 97.2147 39.7287 97.1928 39.3894L94.3947 33.589L96.8106 31.3125C96.8106 31.3125 99.6888 37.7059 99.7822 38.0694C99.8755 38.4329 99.2111 46.9644 99.1749 47.7243C99.1749 47.7243 99.4549 48.638 99.6142 49.2167C99.7734 49.7954 99.6724 50.417 99.691 50.5839C99.7106 51.0256 99.6767 51.4681 99.59 51.9017C99.4692 52.5177 99.3089 51.8775 99.3089 51.8775C99.3089 51.8775 99.3319 50.697 99.243 50.7102C99.1716 50.7201 99.1947 51.3691 99.0695 52.0543C99.0376 52.2267 99.0036 52.4035 98.9729 52.5617C98.8916 52.9823 98.6203 53.0492 98.6434 52.6001C98.649 52.3946 98.6695 52.1898 98.7049 51.9873C98.7278 51.7972 98.7359 51.6055 98.7291 51.4141C98.7495 51.2171 98.7565 51.019 98.7499 50.8211C98.7335 50.8299 98.6884 50.7585 98.6489 50.9452C98.5995 51.1648 98.5995 51.6667 98.5039 51.9873C98.4501 52.1685 98.3601 52.5617 98.3601 52.5617C98.3601 52.5617 98.1163 53.125 98.079 53.1206C97.8813 53.1063 97.9428 52.6715 98.0471 52.4321C98.0595 52.2315 98.0926 52.0328 98.1459 51.8391C98.1459 51.8391 98.1822 50.9694 98.0614 50.9606C98.0109 50.9606 97.9263 51.491 97.7649 52.0027C97.6133 52.476 97.386 52.9306 97.2905 52.9109C97.1302 52.8878 97.2433 52.342 97.2433 52.342C97.2433 52.342 97.3421 51.9698 97.3663 51.8402C97.3937 51.6919 97.4431 51.2384 97.4431 51.2384C97.4431 51.2384 97.5453 49.6505 97.43 49.6549C97.3147 49.6593 97.028 49.7932 96.9907 49.8899C96.9534 49.9865 96.9687 50.1995 96.9292 50.2962C96.9056 50.3504 96.8639 50.3948 96.8112 50.4216C96.7585 50.4485 96.6981 50.4561 96.6404 50.4433C96.5218 50.406 96.5394 49.8657 96.5394 49.8657C96.5394 49.8657 96.5492 49.4275 96.7063 49.164Z" fill="#FFB27D"/>
<path fill-rule="evenodd" clip-rule="evenodd" d="M73.1135 43.0236C72.9284 43.1082 72.7254 43.146 72.5222 43.1338C72.319 43.1215 72.122 43.0596 71.9484 42.9534C72.2262 43.3619 72.8269 43.3267 73.1135 43.0236Z" fill="#F58B67"/>
<path fill-rule="evenodd" clip-rule="evenodd" d="M91.3428 26.8322C91.3428 26.8322 93.2383 27.0957 93.7368 27.4636C94.2969 27.8743 96.0429 29.8016 96.0429 29.8016C96.0429 29.8016 92.419 40.1692 92.5618 42.0152C92.7045 43.8612 93.101 46.5966 93.101 46.5966C93.101 46.5966 86.019 47.0458 83.3571 45.9938C83.3571 45.9938 84.2477 41.8043 84.2477 40.7095C84.2477 39.6146 84.7199 28.6353 85.0559 28.061C85.392 27.4867 86.0695 27.1627 87.3544 26.8805C88.6392 26.5983 91.3428 26.8322 91.3428 26.8322Z" fill="#8BBAE9"/>
<path fill-rule="evenodd" clip-rule="evenodd" d="M98.3887 33.5185L95.2205 35.9959C95.2205 35.9959 93.8215 34.6572 93.1176 33.1692C92.4137 31.6813 93.0308 27.2832 93.7874 27.4841C95.4808 27.9377 98.3887 33.5185 98.3887 33.5185Z" fill="#61A0E0"/>
<path fill-rule="evenodd" clip-rule="evenodd" d="M90.8069 26.0189C90.64 25.8114 90.7992 24.8318 90.685 24.4815C90.7458 24.2956 90.8084 24.0617 90.8728 23.7798C92.0537 22.9408 92.2045 22.3358 91.3252 21.9646C91.1517 22.0671 90.9405 22.3746 90.6916 22.887C90.484 22.887 90.6795 22.338 90.5675 22.1403C90.797 21.2771 90.5873 21.0169 90.6509 20.481C90.0415 19.6167 88.5645 19.3828 86.7415 19.6607C86.5867 21.3408 86.0673 25.304 88.0989 25.1767L88.3427 25.1251C88.4525 25.8103 88.4744 26.7723 88.6479 27.3664L88.6864 27.4498C89.3431 27.0721 89.7285 27.1445 90.8069 26.0189Z" fill="#FFB27D"/>
<path fill-rule="evenodd" clip-rule="evenodd" d="M86.8349 19.8017C88.6578 19.526 90.0415 19.6216 90.6509 20.4858C90.5872 21.0217 90.7366 21.3501 90.5071 22.211C90.6169 22.4131 90.484 22.8886 90.6916 22.8919C90.9405 22.3794 91.1517 22.0719 91.3252 21.9694C92.2037 22.3406 92.0529 22.9457 90.8728 23.7846C90.8083 24.0672 90.7457 24.3011 90.685 24.4864C92.7594 23.2674 93.6665 20.3134 91.7831 18.9319C91.3988 16.4853 87.8836 18.731 86.0728 17.5867C85.3787 18.5816 86.2825 19.7918 86.8349 19.8017Z" fill="#284191"/>
<path fill-rule="evenodd" clip-rule="evenodd" d="M91.9732 19.7737C91.8012 19.5255 91.7884 19.3103 91.9348 19.128C92.347 19.0416 92.6819 19.1397 92.9396 19.4223C92.7441 19.374 92.422 19.4911 91.9732 19.7737Z" fill="#284191"/>
<path fill-rule="evenodd" clip-rule="evenodd" d="M91.5471 19.0078C91.7177 19.1982 91.8736 19.2403 92.0149 19.1341C92.0613 18.9748 92.0715 18.8071 92.0447 18.6433C92.0179 18.4795 91.9548 18.3238 91.8601 18.1875C91.8842 18.3698 91.7799 18.6432 91.5471 19.0078Z" fill="#284191"/>
<path fill-rule="evenodd" clip-rule="evenodd" d="M88.1187 19.6708C88.1044 19.1404 87.899 18.8242 87.5004 18.7188C86.8298 19.0277 86.4601 19.516 86.3913 20.1837C86.6153 19.9106 87.1911 19.7397 88.1187 19.6708Z" fill="#284191"/>
<path fill-rule="evenodd" clip-rule="evenodd" d="M89.3376 17.8065C89.2564 18.0261 89.3618 18.3259 89.0434 18.3951C88.8325 19.3658 88.0671 18.0557 88.0814 17.6934C88.2175 17.7951 88.6363 17.8328 89.3376 17.8065Z" fill="#284191"/>
<path fill-rule="evenodd" clip-rule="evenodd" d="M90.6533 23.8921L91.1124 26.9065C91.1124 26.9065 89.4311 30.4985 88.4263 30.1888C87.584 29.9264 88.0969 26.7516 88.0969 26.7516C88.0969 26.7516 88.557 25.0429 88.4197 24.1875C88.2825 23.332 90.6533 23.8921 90.6533 23.8921Z" fill="#FFB27D"/>
<path fill-rule="evenodd" clip-rule="evenodd" d="M89.5551 24.873C89.2623 25.0195 88.8596 25.1044 88.3472 25.1278C88.3552 25.2937 88.3522 25.4598 88.3384 25.6253C88.8259 25.5412 89.262 25.2716 89.5551 24.873Z" fill="#F08261"/>
<path fill-rule="evenodd" clip-rule="evenodd" d="M91.3539 26.8268C90.8147 27.9931 90.2711 28.9034 89.8066 29.48C89.3146 30.0898 88.8512 30.3826 88.4163 30.3585H88.3966C88.0188 30.2904 87.8354 29.8204 87.763 29.223C87.678 28.4062 87.6861 27.5825 87.7871 26.7675L88.1067 26.7412C88.0148 27.5525 88.0111 28.3714 88.0957 29.1835C88.1495 29.6337 88.256 29.9818 88.4449 30.0279C88.7634 30.0411 89.1294 29.7904 89.543 29.2757C90.1567 28.5033 90.6731 27.6583 91.0805 26.7599L91.3539 26.8268Z" fill="#61A0E0"/>
<path fill-rule="evenodd" clip-rule="evenodd" d="M88.5975 29.7646C88.6772 29.7646 88.7551 29.7883 88.8214 29.8326C88.8877 29.8769 88.9393 29.9398 88.9698 30.0134C89.0003 30.0871 89.0083 30.1681 88.9928 30.2463C88.9772 30.3245 88.9388 30.3963 88.8825 30.4526C88.8261 30.509 88.7543 30.5474 88.6761 30.5629C88.5979 30.5785 88.5169 30.5705 88.4433 30.54C88.3696 30.5095 88.3067 30.4579 88.2624 30.3916C88.2181 30.3253 88.1945 30.2474 88.1945 30.1677C88.1943 30.1147 88.2046 30.0622 88.2248 30.0133C88.2451 29.9643 88.2747 29.9198 88.3122 29.8824C88.3496 29.8449 88.3941 29.8152 88.4431 29.795C88.492 29.7748 88.5445 29.7645 88.5975 29.7646Z" fill="#61A0E0"/>
<path fill-rule="evenodd" clip-rule="evenodd" d="M88.525 30.5713C88.5787 30.5711 88.6312 30.5868 88.676 30.6165C88.7207 30.6461 88.7557 30.6884 88.7764 30.738C88.7971 30.7875 88.8026 30.8421 88.7923 30.8948C88.7819 30.9475 88.7562 30.9959 88.7183 31.0339C88.6804 31.072 88.6321 31.0979 88.5794 31.1085C88.5268 31.119 88.4722 31.1137 88.4226 31.0932C88.3729 31.0727 88.3305 31.038 88.3006 30.9933C88.2708 30.9487 88.2549 30.8962 88.2549 30.8425C88.2551 30.7709 88.2837 30.7022 88.3342 30.6514C88.3848 30.6007 88.4533 30.5719 88.525 30.5713Z" fill="#61A0E0"/>
<path fill-rule="evenodd" clip-rule="evenodd" d="M88.4695 31.1319C88.5017 31.1319 88.5333 31.1414 88.5601 31.1593C88.5869 31.1772 88.6078 31.2027 88.6201 31.2325C88.6324 31.2623 88.6357 31.295 88.6294 31.3267C88.6231 31.3583 88.6076 31.3873 88.5848 31.4101C88.562 31.4329 88.5329 31.4484 88.5013 31.4547C88.4697 31.461 88.4369 31.4578 88.4071 31.4455C88.3773 31.4331 88.3519 31.4122 88.334 31.3854C88.3161 31.3586 88.3065 31.3271 88.3065 31.2949C88.3065 31.2516 88.3237 31.2102 88.3542 31.1796C88.3848 31.149 88.4263 31.1319 88.4695 31.1319Z" fill="#61A0E0"/>
<path fill-rule="evenodd" clip-rule="evenodd" d="M90.8146 19.8115C91.0748 20.0608 91.1275 20.2827 90.9705 20.4781C90.7435 20.5362 90.5063 20.5428 90.2764 20.4974C90.0465 20.452 89.8297 20.3557 89.6418 20.2157C89.8987 20.2589 90.2897 20.1242 90.8146 19.8115Z" fill="#284191"/>
<path fill-rule="evenodd" clip-rule="evenodd" d="M30.9723 17.1845C30.801 17.1845 30.6626 17.525 30.6626 17.9445C30.6626 18.3639 30.4979 18.2036 30.9723 18.7044C31.4467 19.2051 31.4642 18.6648 31.283 17.9445C31.1018 17.2241 31.1436 17.1845 30.9723 17.1845Z" fill="#284191"/>
<path fill-rule="evenodd" clip-rule="evenodd" d="M33.086 23.8571C33.9437 27.6852 29.8498 29.652 32.2998 35.873C30.482 36.1556 28.3453 36.1845 25.8899 35.9598C26.026 36.6483 26.1337 37.2633 26.2127 37.7256C25.701 37.7058 25.2068 37.5543 24.6413 38.2648L24.6237 38.234L24.6061 38.2033L24.5919 38.1802V38.1725L24.5743 38.1407L24.5556 38.1077L24.5457 38.0913L24.537 38.0759L24.5007 38.0089L24.4952 37.999L24.4623 37.9419L24.4436 37.9068L24.426 37.8749L24.4074 37.8387L24.3909 37.8101V37.8036V37.7981L24.3547 37.7311L24.3437 37.7091L24.336 37.6948L24.3162 37.6575L24.2965 37.6202L24.2899 37.6059L24.2767 37.5817L24.2569 37.5444L24.2372 37.506L24.2196 37.473L24.1998 37.4335L24.1823 37.3983L24.1625 37.3588L24.1427 37.3193L24.1284 37.2918L24.1219 37.2786L24.1021 37.238L24.0812 37.1974L24.0724 37.1787L24.0615 37.1556L24.0241 37.0799V37.0733V37.0645L24.0076 37.0305L23.9879 36.9887L23.967 36.947L23.9462 36.9042L23.9253 36.8613L23.911 36.8295L23.9055 36.8185L23.8616 36.7636L23.8407 36.7197L23.8308 36.6977L23.799 36.6318L23.7781 36.5868L23.7726 36.5758L23.7518 36.544L23.732 36.4979L23.7111 36.4539L23.6705 36.365L23.6529 36.3276V36.3189L23.6321 36.2738L23.6112 36.2277L23.5991 36.2003L23.5904 36.1805L23.5695 36.1344L23.5486 36.0872L23.542 36.0718L23.5278 36.041L23.5069 35.9938L23.486 35.9466L23.4674 35.9038L23.4465 35.8565L23.4289 35.8148L23.4092 35.7665L23.3883 35.7193L23.3751 35.6885L23.3674 35.671L23.3312 35.5864L23.318 35.5556L23.2609 35.4206L23.206 35.291L23.1884 35.2471L23.1522 35.1614V35.1559C23.1171 35.0725 23.083 34.9879 23.049 34.9033L23.0424 34.8869L23.0138 34.8155L22.9875 34.7496L22.9787 34.7276L22.9326 34.6178L22.9095 34.5585L22.8788 34.4806V34.4707L22.8458 34.3828L22.8304 34.3422L22.8118 34.295L22.7777 34.2071L22.7711 34.1907L22.7272 34.0808V34.0753L22.7129 34.0391L22.68 33.9524V33.9381L22.6295 33.8019L22.6207 33.7766L22.5888 33.6899L22.5801 33.6657L22.5581 33.6031L22.5317 33.5296V33.5164L22.501 33.4307L22.4889 33.3945L22.4713 33.344L22.4417 33.2605L22.412 33.1749L22.3967 33.1287L22.3835 33.0903L22.3549 33.0058V32.9959L22.3308 32.9212L22.3121 32.8652L22.3033 32.8377L22.2759 32.7543L22.2704 32.7345L22.2495 32.6719L22.2286 32.6049V32.5895L22.2034 32.5083L22.1935 32.4775L22.1781 32.427L22.1551 32.3513V32.3458L22.1309 32.2667L22.1199 32.2261L22.1079 32.1876L22.0859 32.1086L22.0793 32.0833L22.0244 31.8834V31.867L22.009 31.8077L21.9936 31.7495V31.733L21.975 31.6594L21.9684 31.6342V31.6243L21.9431 31.52V31.5134L21.9212 31.4211V31.409L21.9135 31.3728L21.8981 31.3036C21.8838 31.2355 21.8707 31.1696 21.8575 31.1049V31.0928V31.0774L21.8432 31.0049V30.9928V30.9753L21.83 30.8984V30.8874C21.8212 30.8281 21.8124 30.7699 21.8048 30.7139V30.6941L21.796 30.6162V30.4526V30.2099V29.5839V28.9591C21.7158 19.3404 22.4296 20.4254 27.4536 19.3437C27.7589 20.1893 29.584 20.7932 30.121 20.7603C30.5065 20.555 30.7053 19.9587 31.0281 19.4074C32.5655 19.7445 34.1029 20.6461 34.9298 21.3841C34.2556 20.2334 33.6835 19.026 33.22 17.7755C33.3946 17.2517 33.6384 17.0167 34.1458 16.7444C39.4289 21.5762 41.0004 24.8333 40.0208 25.4736C38.3 26.1017 34.3544 25.0244 33.1706 23.9043L33.086 23.8571ZM24.4908 28.7394C24.4908 28.7976 24.4799 28.8493 24.4733 28.9108V28.936V28.9602V28.981V28.9876V29.0063V29.0162V29.0326V29.0436V29.0579V29.0821V29.0996V29.1073V29.1271V29.149V29.1732V29.1985V29.2204V29.2402V29.2479V29.2655V29.2753V29.2896V29.3028V29.3149V29.3302V29.3401V29.3577V29.3643V29.3841V29.4071V29.4313V29.4554V29.4763V29.495V29.5038V29.5202V29.5301V29.5444V29.5576V29.5685V29.5839V29.5927V29.6103V29.6169V29.6377V29.6608V29.6849V29.7069V29.7267V29.7333V29.7508V29.7607V29.775V29.7871V29.7992V29.8134V29.8222V29.8398V29.8464V29.865V29.8859V29.9101V29.9331V29.954V29.9595V29.9782V29.9858V30.0012V30.0111V30.0243V30.0375V30.0473V30.0627V30.0715V30.088V30.1077V30.1297V30.1539V30.1747V30.1934V30.2V30.2165V30.2252V30.2395V30.2494V30.2615V30.2747V30.2845V30.2999V30.3065V30.3252L24.4678 30.3449L24.4612 30.3669C24.7748 30.9755 25.0353 31.61 25.2398 32.2634C25.22 31.4632 24.9696 30.2886 24.4886 28.7394H24.4908Z" fill="#8BBAE9"/>
<path fill-rule="evenodd" clip-rule="evenodd" d="M32.2954 35.8676C33.9273 40.1504 34.3995 44.0686 34.3226 48.7719C30.4 49.8064 26.6938 49.4945 22.2748 48.0691C22.5658 44.006 21.1371 41.9195 22.1079 38.4669H22.1365C22.436 37.4869 22.846 36.5441 23.3587 35.6568C23.7337 36.5506 24.1605 37.4218 24.6369 38.266C25.2025 37.5555 25.6967 37.707 26.2084 37.7268C26.1293 37.2644 26.0217 36.6495 25.8855 35.9609V35.9489C25.7329 35.1868 25.5451 34.3324 25.3178 33.4912C28.4065 34.2892 30.5131 34.309 31.6376 33.5505C31.7711 34.3447 31.9917 35.1217 32.2954 35.8676Z" fill="#4567C6"/>
<path fill-rule="evenodd" clip-rule="evenodd" d="M30.0343 20.7118C29.4973 20.7448 27.6722 20.1408 27.3669 19.2952C27.6819 18.8492 27.9017 18.343 28.0126 17.8083C27.9262 17.648 27.8296 17.4426 27.7227 17.1923C26.4943 16.6124 26.2549 16.0784 27.0045 15.5901C27.1817 15.656 27.4277 15.9049 27.7425 16.3368C28.5255 16.182 28.0719 14.9586 27.8721 14.3019C28.2916 13.4026 29.0625 12.893 30.7909 12.8469C30.941 13.2862 31.0805 13.7532 31.2093 14.2481C31.5531 14.4776 31.675 15.5066 31.5838 16.7288C31.8276 17.3782 31.4714 17.8094 30.5153 18.0225C30.545 18.3343 30.7415 19.1085 30.9414 19.3589C30.6185 19.9102 30.4198 20.5109 30.0343 20.7118Z" fill="#FFB27D"/>
<path fill-rule="evenodd" clip-rule="evenodd" d="M30.7909 12.8483C29.0624 12.8944 28.2915 13.404 27.8721 14.3034C28.0719 14.9623 28.5309 16.1834 27.7425 16.3382C27.4277 15.9063 27.1817 15.6574 27.0045 15.5915C26.2541 16.0798 26.4935 16.6139 27.7227 17.1937C27.8325 17.4441 27.9259 17.6483 28.0126 17.8098C27.9226 19.1671 28.1631 20.0412 27.7084 20.6023C26.9397 21.5467 26.7728 20.744 25.5714 19.95C25.242 19.7304 24.3097 20.0961 24.0944 19.9742C24.4843 19.6678 25.5989 16.7797 25.522 16.4338C25.2881 15.3861 24.4502 12.185 27.0737 12.2004C26.9298 10.976 32.4678 10.2029 31.127 13.9377C31.0215 13.5563 30.9117 13.1931 30.7975 12.8483H30.7909ZM30.8283 17.9393C30.7327 17.9701 30.6284 17.9975 30.5153 18.0239C30.5495 18.2821 30.6064 18.5368 30.6855 18.7849C30.7399 18.989 30.8262 19.1832 30.9414 19.3603C31.351 20.1839 31.6925 19.6404 32.0955 19.7117C31.9948 19.5639 31.9143 19.4032 31.8561 19.234C31.4355 18.5949 31.4498 18.182 31.3071 18.0371C31.1643 17.8921 31.0358 17.9251 30.8283 17.9393Z" fill="#284191"/>
<path fill-rule="evenodd" clip-rule="evenodd" d="M29.1966 17.9238C29.6295 18.0156 30.0727 18.0489 30.5144 18.0227C30.5486 18.2809 30.6055 18.5355 30.6846 18.7837C30.2201 18.7474 29.4239 18.2269 29.1966 17.9238Z" fill="#F08261"/>
<path fill-rule="evenodd" clip-rule="evenodd" d="M34.8343 63.533C34.2051 63.6944 34.8848 64.0721 34.4928 64.2676C33.488 63.9546 32.7149 62.705 32.2339 62.1811C31.9802 61.9066 31.922 62.3327 31.9187 62.7983C31.91 63.7987 32.1713 65.0638 32.4777 65.4119C32.5875 65.0901 32.5491 64.1721 32.5875 63.5999C33.6352 64.2116 33.6165 65.122 34.2029 65.3131C35.1913 65.2332 36.175 65.1035 37.1503 64.9243C37.2008 64.0656 35.5866 64.6772 34.8343 63.533Z" fill="#284191"/>
<path fill-rule="evenodd" clip-rule="evenodd" d="M19.5909 63.2679C18.9551 63.1285 19.3922 63.7731 18.954 63.7687C18.1985 63.0362 18.0755 61.5724 17.8811 60.8871C17.779 60.5269 17.5352 60.8871 17.3211 61.2957C16.8621 62.183 16.5227 63.4294 16.6391 63.8796C16.8807 63.6402 17.2629 62.8067 17.5583 62.3136C18.2172 63.3327 17.7889 64.1366 18.2259 64.5725C19.1437 64.9488 20.0797 65.2787 21.0306 65.5609C21.46 64.813 19.7447 64.6285 19.5909 63.2679Z" fill="#284191"/>
<path fill-rule="evenodd" clip-rule="evenodd" d="M34.8431 21.337C35.2199 22.0799 35.762 22.7264 36.4278 23.2269C35.4175 22.6559 34.4588 21.7192 33.5517 20.4168C34.0106 20.6816 34.443 20.9898 34.8431 21.337ZM25.3826 33.7362C25.2706 33.3145 25.1362 32.8511 24.9796 32.346C25.1333 31.4909 24.9697 30.2888 24.4887 28.7396C24.5985 27.968 24.6783 27.3131 24.7281 26.7751C25.3726 28.9588 25.6002 31.2443 25.3991 33.5122L25.3134 33.4902C25.3398 33.5726 25.3617 33.6538 25.3826 33.7362Z" fill="#61A0E0"/>
<path fill-rule="evenodd" clip-rule="evenodd" d="M19.2562 60.9347C19.1324 61.6156 19.1753 62.3872 19.3846 63.2496C19.0552 63.2924 19.3319 63.7723 18.9542 63.768C18.2448 63.0794 18.091 61.7463 17.9153 61.0226C18.025 60.8954 18.1163 60.7534 18.1866 60.6009C21.3448 52.9369 20.2873 51.7301 23.0568 48.9166C22.9932 48.697 22.9338 48.4773 22.8756 48.2577C23.8523 48.5581 24.8442 48.8062 25.8472 49.0012L25.7868 49.1966C24.5218 52.1957 21.7237 56.0853 19.2562 60.9369V60.9347ZM32.2978 35.8662C32.3571 36.0178 32.4076 36.166 32.468 36.3143L32.2978 35.8662ZM34.0548 48.8386C34.4578 51.9134 33.3728 56.8617 33.6759 61.9066C33.9219 62.5142 34.2484 63.0859 34.6467 63.6065C34.3678 63.7899 34.8334 64.0963 34.493 64.2654C33.5485 63.9711 32.8084 62.8488 32.323 62.2811C32.4196 62.1309 32.4936 61.9674 32.5426 61.7957C31.8903 56.2379 30.4419 53.8253 31.238 49.3108C32.1879 49.2296 33.1297 49.0732 34.0548 48.843V48.8386Z" fill="#FFB27D"/>
<path fill-rule="evenodd" clip-rule="evenodd" d="M32.8664 15.3724C34.0382 14.9836 33.8548 15.8303 34.0557 16.7C33.622 16.9339 33.3804 17.1393 33.2124 17.528C32.8829 17.2788 32.6402 17.3403 32.4239 16.9987C32.0604 16.5463 31.6102 15.681 32.0802 15.6239C32.2196 16.006 32.3975 16.0928 32.615 16.2509C32.5979 16.0591 32.5611 15.8696 32.5051 15.6853C32.4187 15.4016 32.2727 15.1395 32.0769 14.9166C31.6442 14.7969 31.4718 14.6619 31.5574 14.5125C32.0985 14.4247 32.5348 14.7113 32.8664 15.3724Z" fill="#FFB27D"/>
<path fill-rule="evenodd" clip-rule="evenodd" d="M26.0678 37.7232C26.2428 38.3275 26.3648 38.9459 26.4324 39.5714C26.1102 40.4031 25.7156 40.8658 25.2486 40.9595C24.7138 40.9133 24.6127 40.5048 24.4865 40.2149C24.7801 40.0062 24.9803 39.6909 25.0443 39.3364C24.7566 39.1065 24.6834 38.8668 24.8247 38.6171C24.7676 38.4751 24.7149 38.3477 24.6665 38.235C25.0223 37.7957 25.3507 37.7089 25.6746 37.7024C25.8064 37.7024 25.9371 37.7144 26.0678 37.7232Z" fill="#FFB27D"/>
<path fill-rule="evenodd" clip-rule="evenodd" d="M33.5517 20.4168C33.8434 20.5871 34.1253 20.7737 34.3961 20.9757C34.5608 21.0976 34.7102 21.2195 34.8431 21.337C35.2199 22.0799 35.762 22.7264 36.4277 23.2269C35.6576 22.7734 34.9706 22.1918 34.3961 21.5072C34.0956 21.1589 33.8137 20.7949 33.5517 20.4168Z" fill="#61A0E0"/>
<path fill-rule="evenodd" clip-rule="evenodd" d="M27.3505 12.424C27.0181 12.5082 26.8124 12.438 26.7333 12.2132C26.8008 12.0013 26.9147 11.8071 27.0667 11.6447C27.2187 11.4823 27.4049 11.3558 27.6118 11.2743C27.45 11.4602 27.3629 11.8435 27.3505 12.424Z" fill="#284191"/>
<path fill-rule="evenodd" clip-rule="evenodd" d="M26.92 12.4768C26.8376 12.5306 26.775 12.4427 26.7333 12.2132C26.7333 11.7673 26.7904 11.4851 26.8881 11.3643C26.8607 11.5323 26.8706 11.9035 26.92 12.4768Z" fill="#284191"/>
<path fill-rule="evenodd" clip-rule="evenodd" d="M30.4286 12.3027C30.7581 12.3916 30.9052 12.5531 30.8679 12.787C30.7054 12.9395 30.5107 13.0536 30.2982 13.1209C30.0857 13.1882 29.8609 13.2069 29.6402 13.1757C29.8697 13.0945 30.1332 12.8023 30.4286 12.3027Z" fill="#284191"/>
<path fill-rule="evenodd" clip-rule="evenodd" d="M29.627 21.0033C29.1143 20.9058 28.6212 20.7244 28.1675 20.4663C28.0698 20.4103 27.9743 20.3565 27.8831 20.2906C27.9209 20.1872 27.9478 20.0801 27.9633 19.971C28.52 20.3396 29.1477 20.5876 29.806 20.6991C29.8576 20.6612 29.9198 20.6405 29.9839 20.6398C30.0264 20.6399 30.0684 20.6493 30.1069 20.6673C30.4462 20.429 30.6395 19.8755 30.9415 19.3594C30.9963 19.4804 31.0705 19.5916 31.1611 19.6888C31.1446 19.7218 31.1468 19.736 31.1303 19.736C31.1139 19.736 30.6911 20.5772 30.3144 20.9078C30.3409 20.9753 30.3543 21.0472 30.354 21.1197C30.354 21.3822 30.1892 21.5941 29.9861 21.5941C29.7829 21.5941 29.6182 21.3822 29.6182 21.1197C29.6186 21.0828 29.6222 21.0461 29.6292 21.0099L29.627 21.0033ZM30.0113 22.231C29.9812 22.2228 29.9492 22.2241 29.9199 22.235C29.8906 22.2459 29.8654 22.2656 29.848 22.2915C29.8305 22.3175 29.8216 22.3482 29.8225 22.3794C29.8234 22.4107 29.8341 22.4408 29.8531 22.4657C29.872 22.4905 29.8983 22.5088 29.9282 22.5179C29.9581 22.527 29.9901 22.5265 30.0197 22.5165C30.0493 22.5065 30.075 22.4874 30.0932 22.462C30.1114 22.4366 30.1212 22.4061 30.1211 22.3749C30.1247 22.3414 30.1153 22.3079 30.0948 22.2811C30.0744 22.2544 30.0445 22.2365 30.0113 22.231ZM30.0201 21.626C29.9687 21.6124 29.9143 21.6153 29.8646 21.6343C29.8149 21.6532 29.7723 21.6873 29.7429 21.7316C29.7136 21.776 29.6988 21.8284 29.7007 21.8816C29.7026 21.9347 29.7212 21.986 29.7537 22.0281C29.7862 22.0702 29.8311 22.101 29.882 22.1163C29.933 22.1316 29.9875 22.1306 30.0378 22.1134C30.0881 22.0962 30.1318 22.0636 30.1627 22.0203C30.1936 21.977 30.2102 21.9251 30.2101 21.8719C30.2137 21.8426 30.2115 21.8129 30.2034 21.7845C30.1953 21.7561 30.1815 21.7297 30.163 21.7067C30.1444 21.6837 30.1214 21.6648 30.0954 21.6509C30.0693 21.637 30.0407 21.6285 30.0113 21.626H30.0201Z" fill="#4F8ECC"/>
<path fill-rule="evenodd" clip-rule="evenodd" d="M24.973 26.1234C24.978 26.1142 24.9847 26.1062 24.9928 26.0996C25.0009 26.093 25.0102 26.0881 25.0202 26.0852C25.0302 26.0822 25.0407 26.0813 25.051 26.0824C25.0614 26.0835 25.0714 26.0866 25.0806 26.0916C25.0898 26.0965 25.0979 26.1033 25.1044 26.1114C25.111 26.1195 25.1159 26.1288 25.1188 26.1388C25.1218 26.1488 25.1227 26.1592 25.1216 26.1696C25.1205 26.18 25.1174 26.19 25.1125 26.1992C24.9045 26.5883 24.8033 27.0255 24.8192 27.4664C24.8424 28.007 24.9618 28.5392 25.1718 29.0379C25.1768 29.0569 25.1747 29.0771 25.1658 29.0946C25.1569 29.1122 25.1419 29.1258 25.1236 29.133C25.1052 29.1402 25.0849 29.1404 25.0665 29.1336C25.048 29.1268 25.0327 29.1134 25.0235 29.0961C24.8066 28.5799 24.6835 28.0292 24.66 27.4697C24.6436 27.0012 24.7516 26.5367 24.973 26.1234Z" fill="#61A0E0"/>
<path fill-rule="evenodd" clip-rule="evenodd" d="M31.7563 7.12259H29.1888L29.3074 8.60179C29.309 8.64598 29.2972 8.68962 29.2736 8.72702C29.25 8.76441 29.2157 8.79381 29.1751 8.81137C29.1345 8.82893 29.0896 8.83383 29.0462 8.82544C29.0028 8.81704 28.9629 8.79574 28.9318 8.76432L27.4405 7.12259H14.5274C14.207 7.12259 13.8998 6.99532 13.6732 6.76878C13.4467 6.54224 13.3194 6.23499 13.3194 5.91462V1.20796C13.3194 0.887591 13.4467 0.580342 13.6732 0.353805C13.8998 0.127268 14.207 0 14.5274 0H31.7563C32.0766 0 32.3839 0.127268 32.6104 0.353805C32.8369 0.580342 32.9642 0.887591 32.9642 1.20796V5.91462C32.9642 6.23499 32.8369 6.54224 32.6104 6.76878C32.3839 6.99532 32.0766 7.12259 31.7563 7.12259Z" fill="#8BBAE9"/>
<path fill-rule="evenodd" clip-rule="evenodd" d="M31.2191 2.3774H28.913C28.8787 2.37967 28.8442 2.37487 28.8118 2.36329C28.7794 2.35171 28.7497 2.3336 28.7246 2.31007C28.6994 2.28655 28.6794 2.25812 28.6657 2.22654C28.652 2.19495 28.6449 2.1609 28.6449 2.12648C28.6449 2.09205 28.652 2.05799 28.6657 2.02641C28.6794 1.99483 28.6994 1.9664 28.7246 1.94288C28.7497 1.91935 28.7794 1.90124 28.8118 1.88966C28.8442 1.87808 28.8787 1.87328 28.913 1.87555H31.2191C31.2535 1.87328 31.2879 1.87808 31.3203 1.88966C31.3527 1.90124 31.3824 1.91935 31.4076 1.94288C31.4327 1.9664 31.4527 1.99483 31.4664 2.02641C31.4801 2.05799 31.4872 2.09205 31.4872 2.12648C31.4872 2.1609 31.4801 2.19495 31.4664 2.22654C31.4527 2.25812 31.4327 2.28655 31.4076 2.31007C31.3824 2.3336 31.3527 2.35171 31.3203 2.36329C31.2879 2.37487 31.2535 2.37967 31.2191 2.3774ZM21.4632 5.24796H15.0763C15.0096 5.24796 14.9457 5.22147 14.8985 5.17431C14.8514 5.12715 14.8249 5.06318 14.8249 4.99648C14.8249 4.92979 14.8514 4.86583 14.8985 4.81866C14.9457 4.7715 15.0096 4.74501 15.0763 4.74501H21.4676C21.5343 4.74501 21.5982 4.7715 21.6454 4.81866C21.6925 4.86583 21.719 4.92979 21.719 4.99648C21.719 5.06318 21.6925 5.12715 21.6454 5.17431C21.5982 5.22147 21.5343 5.24796 21.4676 5.24796H21.4632ZM28.7186 5.24796H22.4932C22.4265 5.24796 22.3626 5.22147 22.3154 5.17431C22.2683 5.12715 22.2418 5.06318 22.2418 4.99648C22.2418 4.92979 22.2683 4.86583 22.3154 4.81866C22.3626 4.7715 22.4265 4.74501 22.4932 4.74501H28.7186C28.7853 4.74501 28.8493 4.7715 28.8965 4.81866C28.9436 4.86583 28.9701 4.92979 28.9701 4.99648C28.9701 5.06318 28.9436 5.12715 28.8965 5.17431C28.8493 5.22147 28.7853 5.24796 28.7186 5.24796ZM19.0297 3.81378H15.0763C15.042 3.81605 15.0075 3.81125 14.9751 3.79967C14.9427 3.78809 14.913 3.76998 14.8879 3.74645C14.8628 3.72293 14.8427 3.6945 14.829 3.66291C14.8153 3.63133 14.8083 3.59728 14.8083 3.56285C14.8083 3.52843 14.8153 3.49437 14.829 3.46279C14.8427 3.43121 14.8628 3.40278 14.8879 3.37925C14.913 3.35573 14.9427 3.33762 14.9751 3.32604C15.0075 3.31446 15.042 3.30965 15.0763 3.31193H19.0297C19.064 3.30965 19.0985 3.31446 19.1309 3.32604C19.1633 3.33762 19.193 3.35573 19.2181 3.37925C19.2433 3.40278 19.2633 3.43121 19.277 3.46279C19.2907 3.49437 19.2978 3.52843 19.2978 3.56285C19.2978 3.59728 19.2907 3.63133 19.277 3.66291C19.2633 3.6945 19.2433 3.72293 19.2181 3.74645C19.193 3.76998 19.1633 3.78809 19.1309 3.79967C19.0985 3.81125 19.064 3.81605 19.0297 3.81378ZM31.2191 3.81378H20.1278C20.0935 3.81605 20.059 3.81125 20.0266 3.79967C19.9942 3.78809 19.9645 3.76998 19.9394 3.74645C19.9142 3.72293 19.8942 3.6945 19.8805 3.66291C19.8668 3.63133 19.8597 3.59728 19.8597 3.56285C19.8597 3.52843 19.8668 3.49437 19.8805 3.46279C19.8942 3.43121 19.9142 3.40278 19.9394 3.37925C19.9645 3.35573 19.9942 3.33762 20.0266 3.32604C20.059 3.31446 20.0935 3.30965 20.1278 3.31193H31.2191C31.2535 3.30965 31.2879 3.31446 31.3203 3.32604C31.3527 3.33762 31.3824 3.35573 31.4076 3.37925C31.4327 3.40278 31.4527 3.43121 31.4664 3.46279C31.4801 3.49437 31.4872 3.52843 31.4872 3.56285C31.4872 3.59728 31.4801 3.63133 31.4664 3.66291C31.4527 3.6945 31.4327 3.72293 31.4076 3.74645C31.3824 3.76998 31.3527 3.78809 31.3203 3.79967C31.2879 3.81125 31.2535 3.81605 31.2191 3.81378ZM27.85 2.3774H15.0763C15.042 2.37967 15.0075 2.37487 14.9751 2.36329C14.9427 2.35171 14.913 2.3336 14.8879 2.31007C14.8628 2.28655 14.8427 2.25812 14.829 2.22654C14.8153 2.19495 14.8083 2.1609 14.8083 2.12648C14.8083 2.09205 14.8153 2.05799 14.829 2.02641C14.8427 1.99483 14.8628 1.9664 14.8879 1.94288C14.913 1.91935 14.9427 1.90124 14.9751 1.88966C15.0075 1.87808 15.042 1.87328 15.0763 1.87555H27.8588C27.8931 1.87328 27.9276 1.87808 27.96 1.88966C27.9924 1.90124 28.0221 1.91935 28.0472 1.94288C28.0724 1.9664 28.0924 1.99483 28.1061 2.02641C28.1198 2.05799 28.1269 2.09205 28.1269 2.12648C28.1269 2.1609 28.1198 2.19495 28.1061 2.22654C28.0924 2.25812 28.0724 2.28655 28.0472 2.31007C28.0221 2.3336 27.9924 2.35171 27.96 2.36329C27.9276 2.37487 27.8931 2.37967 27.8588 2.3774H27.85Z" fill="#FFE2DC"/>
<path fill-rule="evenodd" clip-rule="evenodd" d="M31.2191 2.3774H28.913C28.8787 2.37967 28.8442 2.37487 28.8118 2.36329C28.7794 2.35171 28.7497 2.3336 28.7246 2.31007C28.6994 2.28655 28.6794 2.25812 28.6657 2.22654C28.652 2.19495 28.6449 2.1609 28.6449 2.12648C28.6449 2.09205 28.652 2.05799 28.6657 2.02641C28.6794 1.99483 28.6994 1.9664 28.7246 1.94288C28.7497 1.91935 28.7794 1.90124 28.8118 1.88966C28.8442 1.87808 28.8787 1.87328 28.913 1.87555H31.2191C31.2535 1.87328 31.2879 1.87808 31.3203 1.88966C31.3527 1.90124 31.3824 1.91935 31.4076 1.94288C31.4327 1.9664 31.4527 1.99483 31.4664 2.02641C31.4801 2.05799 31.4872 2.09205 31.4872 2.12648C31.4872 2.1609 31.4801 2.19495 31.4664 2.22654C31.4527 2.25812 31.4327 2.28655 31.4076 2.31007C31.3824 2.3336 31.3527 2.35171 31.3203 2.36329C31.2879 2.37487 31.2535 2.37967 31.2191 2.3774ZM21.4632 5.24796H15.0763C15.0096 5.24796 14.9457 5.22147 14.8985 5.17431C14.8514 5.12715 14.8249 5.06318 14.8249 4.99648C14.8249 4.92979 14.8514 4.86583 14.8985 4.81866C14.9457 4.7715 15.0096 4.74501 15.0763 4.74501H21.4676C21.5343 4.74501 21.5982 4.7715 21.6454 4.81866C21.6925 4.86583 21.719 4.92979 21.719 4.99648C21.719 5.06318 21.6925 5.12715 21.6454 5.17431C21.5982 5.22147 21.5343 5.24796 21.4676 5.24796H21.4632ZM28.7186 5.24796H22.4932C22.4265 5.24796 22.3626 5.22147 22.3154 5.17431C22.2683 5.12715 22.2418 5.06318 22.2418 4.99648C22.2418 4.92979 22.2683 4.86583 22.3154 4.81866C22.3626 4.7715 22.4265 4.74501 22.4932 4.74501H28.7186C28.7853 4.74501 28.8493 4.7715 28.8965 4.81866C28.9436 4.86583 28.9701 4.92979 28.9701 4.99648C28.9701 5.06318 28.9436 5.12715 28.8965 5.17431C28.8493 5.22147 28.7853 5.24796 28.7186 5.24796ZM19.0297 3.81378H15.0763C15.042 3.81605 15.0075 3.81125 14.9751 3.79967C14.9427 3.78809 14.913 3.76998 14.8879 3.74645C14.8628 3.72293 14.8427 3.6945 14.829 3.66291C14.8153 3.63133 14.8083 3.59728 14.8083 3.56285C14.8083 3.52843 14.8153 3.49437 14.829 3.46279C14.8427 3.43121 14.8628 3.40278 14.8879 3.37925C14.913 3.35573 14.9427 3.33762 14.9751 3.32604C15.0075 3.31446 15.042 3.30965 15.0763 3.31193H19.0297C19.064 3.30965 19.0985 3.31446 19.1309 3.32604C19.1633 3.33762 19.193 3.35573 19.2181 3.37925C19.2433 3.40278 19.2633 3.43121 19.277 3.46279C19.2907 3.49437 19.2978 3.52843 19.2978 3.56285C19.2978 3.59728 19.2907 3.63133 19.277 3.66291C19.2633 3.6945 19.2433 3.72293 19.2181 3.74645C19.193 3.76998 19.1633 3.78809 19.1309 3.79967C19.0985 3.81125 19.064 3.81605 19.0297 3.81378ZM31.2191 3.81378H20.1278C20.0935 3.81605 20.059 3.81125 20.0266 3.79967C19.9942 3.78809 19.9645 3.76998 19.9394 3.74645C19.9142 3.72293 19.8942 3.6945 19.8805 3.66291C19.8668 3.63133 19.8597 3.59728 19.8597 3.56285C19.8597 3.52843 19.8668 3.49437 19.8805 3.46279C19.8942 3.43121 19.9142 3.40278 19.9394 3.37925C19.9645 3.35573 19.9942 3.33762 20.0266 3.32604C20.059 3.31446 20.0935 3.30965 20.1278 3.31193H31.2191C31.2535 3.30965 31.2879 3.31446 31.3203 3.32604C31.3527 3.33762 31.3824 3.35573 31.4076 3.37925C31.4327 3.40278 31.4527 3.43121 31.4664 3.46279C31.4801 3.49437 31.4872 3.52843 31.4872 3.56285C31.4872 3.59728 31.4801 3.63133 31.4664 3.66291C31.4527 3.6945 31.4327 3.72293 31.4076 3.74645C31.3824 3.76998 31.3527 3.78809 31.3203 3.79967C31.2879 3.81125 31.2535 3.81605 31.2191 3.81378ZM27.85 2.3774H15.0763C15.042 2.37967 15.0075 2.37487 14.9751 2.36329C14.9427 2.35171 14.913 2.3336 14.8879 2.31007C14.8628 2.28655 14.8427 2.25812 14.829 2.22654C14.8153 2.19495 14.8083 2.1609 14.8083 2.12648C14.8083 2.09205 14.8153 2.05799 14.829 2.02641C14.8427 1.99483 14.8628 1.9664 14.8879 1.94288C14.913 1.91935 14.9427 1.90124 14.9751 1.88966C15.0075 1.87808 15.042 1.87328 15.0763 1.87555H27.8588C27.8931 1.87328 27.9276 1.87808 27.96 1.88966C27.9924 1.90124 28.0221 1.91935 28.0472 1.94288C28.0724 1.9664 28.0924 1.99483 28.1061 2.02641C28.1198 2.05799 28.1269 2.09205 28.1269 2.12648C28.1269 2.1609 28.1198 2.19495 28.1061 2.22654C28.0924 2.25812 28.0724 2.28655 28.0472 2.31007C28.0221 2.3336 27.9924 2.35171 27.96 2.36329C27.9276 2.37487 27.8931 2.37967 27.8588 2.3774H27.85Z" fill="white"/>
</svg>
