<svg width="44" height="44" viewBox="0 0 44 44" fill="none" xmlns="http://www.w3.org/2000/svg">
<path d="M39.1111 9.77814H14.6667C11.9782 9.77814 9.77824 11.9777 9.77824 14.6661V39.1098C9.77824 41.7982 11.9782 43.9986 14.6676 43.9986H39.1111C41.7996 43.9986 44 41.7991 44 39.1098L43.9991 14.6661C43.9991 11.9777 41.7996 9.77814 39.1111 9.77814ZM39.1111 14.6661V19.5554H14.6667V14.6661H39.1111ZM24.4449 29.3326V24.4433L29.3329 24.4442V29.3335L24.4449 29.3326ZM29.3329 34.2214V39.1107H24.4449V34.2214H29.3329ZM19.5556 29.3326H14.6667V24.4433L19.5556 24.4442V29.3326ZM34.2218 24.4442H39.1111V29.3335L34.2218 29.3326V24.4442ZM14.6667 34.2214H19.5556V39.1107H14.6667V34.2214ZM34.2218 39.1107V34.2214H39.1111V39.1107H34.2218ZM7.33378 34.2214H4.88936C2.20092 34.2214 0 32.0219 0 29.3326L0.000921511 4.88885C0.000921511 2.20044 2.2009 0 4.89024 0L29.3329 0.000899561C32.0213 0.000899561 34.2218 2.20044 34.2218 4.88975V7.3346L29.3329 7.3337V4.88885H4.88936V29.3326H7.33378V34.2214Z" fill="url(#paint0_linear_101_5348)"/>
<defs>
<linearGradient id="paint0_linear_101_5348" x1="-3.38462" y1="2.20026" x2="34.2398" y2="52.8077" gradientUnits="userSpaceOnUse">
<stop stop-color="#7DAEEB"/>
<stop offset="1" stop-color="#3E7CCE"/>
</linearGradient>
</defs>
</svg>
