<svg width="58" height="40" viewBox="0 0 58 40" fill="none" xmlns="http://www.w3.org/2000/svg">
<path d="M19.3333 22.413C24.5861 22.413 29.2259 23.6697 32.9951 25.3127C36.4757 26.8594 38.6667 30.34 38.6667 34.1092V39.3299H0V34.1422C0 30.34 2.19095 26.8594 5.67156 25.3457C9.44083 23.6697 14.081 22.413 19.3333 22.413ZM45.1115 23.2194C48.6554 23.2194 51.5565 20.3197 51.5565 16.7745C51.5565 13.2307 48.6568 10.3297 45.1115 10.3297C41.5663 10.3297 38.6667 13.2294 38.6667 16.7745C38.6667 20.3197 41.5663 23.2194 45.1115 23.2194ZM58 34.2709C58 31.6613 56.4533 29.3412 54.0685 28.3099C51.3297 27.1178 48.3008 26.4415 45.1115 26.4415C43.8548 26.4415 42.6623 26.5708 41.4701 26.7645C42.7585 28.9554 43.5002 31.4689 43.5002 34.1431V39.3299H58V34.2709ZM19.3333 0.664062C24.6823 0.664062 29.0005 4.98124 29.0005 10.3311C29.0005 15.68 24.6833 19.9981 19.3347 19.9981C13.9857 19.9981 9.66848 15.6809 9.66848 10.3324C9.66622 4.98123 13.9848 0.664062 19.3333 0.664062Z" fill="url(#paint0_linear_101_5310)"/>
<defs>
<linearGradient id="paint0_linear_101_5310" x1="-4.46154" y1="2.59764" x2="23.0152" y2="58.0344" gradientUnits="userSpaceOnUse">
<stop stop-color="#7DAEEB"/>
<stop offset="1" stop-color="#3E7CCE"/>
</linearGradient>
</defs>
</svg>
